<svg xmlns="http://www.w3.org/2000/svg" width="25.861" height="25.859"><g data-name="Group 2"><g data-name="Group 1" fill="#bf4949"><path data-name="Path 2" d="M25.183 19.95l-5.234-3.491a1.528 1.528 0 00-2.046.332l-1.525 1.96a.652.652 0 01-.836.176l-.29-.16a17.528 17.528 0 01-4.568-3.585 17.6 17.6 0 01-3.584-4.57l-.159-.29a.652.652 0 01.172-.839l1.959-1.524A1.529 1.529 0 009.4 5.913L5.91.682A1.52 1.52 0 003.861.221L1.673 1.532A3.088 3.088 0 00.265 3.359c-.788 2.872-.2 7.828 7.106 15.13 5.808 5.808 10.132 7.369 13.1 7.369a7.635 7.635 0 002.026-.265 3.085 3.085 0 001.831-1.411l1.316-2.188a1.52 1.52 0 00-.461-2.044zm-.283 1.607l-1.313 2.189a2.227 2.227 0 01-1.314 1.019c-2.651.728-7.283.125-14.293-6.885S.368 6.239 1.1 3.587a2.231 2.231 0 011.02-1.316L4.305.958a.659.659 0 01.889.2l1.9 2.847 1.588 2.387a.663.663 0 01-.144.888L6.579 8.804a1.508 1.508 0 00-.4 1.936l.156.283a18.282 18.282 0 003.736 4.766 18.3 18.3 0 004.766 3.735l.283.156a1.508 1.508 0 001.936-.4l1.524-1.96a.664.664 0 01.888-.144l5.232 3.492a.659.659 0 01.2.889z"/><path data-name="Path 3" d="M14.654 4.312a7.335 7.335 0 017.326 7.326.431.431 0 10.862 0 8.2 8.2 0 00-8.188-8.188.431.431 0 000 .862z"/><path data-name="Path 4" d="M14.654 6.897a4.746 4.746 0 014.741 4.741.431.431 0 00.862 0 5.609 5.609 0 00-5.6-5.6.431.431 0 100 .862z"/><path data-name="Path 5" d="M14.654 9.483a2.157 2.157 0 012.155 2.155.431.431 0 10.862 0 3.02 3.02 0 00-3.017-3.017.431.431 0 000 .862z"/></g></g></svg>