<svg xmlns="http://www.w3.org/2000/svg" width="255.291" height="33.609"><path data-name="Path 105" d="M.5.5h254.291v32.609H.5z" fill="none" stroke="#77787b"/><path data-name="Path 1" d="M11.526.489h7.067v18.914h-7.067zm29.127 0h7l5.831 9.755a12.973 12.973 0 01-.162-1.481 38.291 38.291 0 01-.05-2.123V.489h6.7v18.914h-6.873l-5.939-9.97c.07.428.124.888.158 1.381s.054 1.048.054 1.66v6.928h-6.72zm45.453 0h8.165a16.5 16.5 0 012.284 1.014l-2.114 5.031a8.749 8.749 0 00-2.017-1.125 5.484 5.484 0 00-1.963-.383 2.162 2.162 0 00-1.121.241.764.764 0 00-.386.677c0 .539.962 1.018 2.89 1.427l.711.157A5.5 5.5 0 0195.7 9.353a5.022 5.022 0 011.159 3.332 6.589 6.589 0 01-2.313 5.204 8.85 8.85 0 01-6.032 2.02 13.916 13.916 0 01-3.806-.536 17.419 17.419 0 01-3.8-1.614l2.195-5.379a14.092 14.092 0 002.662 1.53 5.74 5.74 0 002.183.482 2.033 2.033 0 001.124-.272.832.832 0 00.406-.727c0-.532-.68-.941-2.044-1.22l-1.032-.222a6.127 6.127 0 01-3.3-1.878 4.942 4.942 0 01-1.159-3.332 6.372 6.372 0 012.23-5.038A7.549 7.549 0 0186.106.489zm71.408 0h7.067v18.914h-7.067zm73.467 0h7.952l6.658 18.906h-7.477l-.618-2.414h-5.25l-.6 2.414h-7.461zm2.427 11.936h2.89l-.572-2.181q-.433-1.653-.591-2.54a13.17 13.17 0 01-.2-1.679c-.143.524-.209 1.086-.317 1.679s-.305 1.438-.6 2.54zM186.652.489h11.65a6.888 6.888 0 012.906 1.37 5.864 5.864 0 012.009 4.8 5.391 5.391 0 01-1.024 3.393 3.9 3.9 0 01-2.724 1.53l5.166 7.82h-7.8l-3.377-6.339v6.339h-6.808zm6.82 4.648v3.768h1.082a2.225 2.225 0 001.526-.478 1.743 1.743 0 00.533-1.37 1.826 1.826 0 00-.533-1.412 2.194 2.194 0 00-1.526-.49zM119.105.489h11.592a7.156 7.156 0 013.134 1.381q2.029 1.676 2.029 5.325 0 3.4-1.824 4.973t-5.8 1.569h-2.179v5.666h-6.955zm6.99 5.05v3.2h1.082a2.417 2.417 0 001.515-.413 1.4 1.4 0 00.525-1.174 1.425 1.425 0 00-.541-1.186 2.374 2.374 0 00-1.5-.425z" fill="#707070" fill-rule="evenodd"/></svg>