<svg data-name="vD logo" xmlns="http://www.w3.org/2000/svg" width="200" height="79"><defs><clipPath id="a"><path data-name="Clip 3" d="M0 0h23.579v27.513H0z" transform="translate(.001 .562)" fill="none"/></clipPath><clipPath id="b"><path data-name="Clip 18" d="M0 0h24.8v28.854H0z" transform="translate(.241 .564)" fill="none"/></clipPath></defs><g data-name="Group 55"><path data-name="Fill 1" d="M2.141 78.545h196.853V56.551H2.141z" fill="#002e42"/><g data-name="Group 54"><g data-name="Group 4"><path data-name="Clip 3" d="M.001 13.107H23.58V40.62H.001z" fill="none"/><g data-name="Group 4" clip-path="url(#a)" transform="translate(0 12.545)"><path data-name="Fill 2" d="M13.486 28.075l-4.1-.022L0 1.391 4.263.562l6.078 18.235q.366 1.068.654 2.16t.444 1.679a4.727 4.727 0 01.156.692h.105a46.137 46.137 0 011.3-4.466l6.162-17.529 4.418.023z" fill="#002e42"/></g></g><path data-name="Fill 5" d="M46.056 41.537a5.035 5.035 0 01-2.294-1.477 5.871 5.871 0 01-1.285-2.428 13.642 13.642 0 01-3.641 2.722 9.146 9.146 0 01-3.934.8h-.068a10.605 10.605 0 01-4.073-.713 7.437 7.437 0 01-2.611-1.77 6.059 6.059 0 01-1.363-2.425 9.616 9.616 0 01-.383-2.69 8.588 8.588 0 01.939-4.013 8.326 8.326 0 012.77-2.993c2.411-1.624 5.843-2.447 10.2-2.447h.191c.553 0 1.18.024 1.863.063l.009-1.85a18.921 18.921 0 00-.12-2.616 2.8 2.8 0 00-.715-1.51 3.9 3.9 0 00-1.494-1.091 5.631 5.631 0 00-2.084-.355h-.051a12.424 12.424 0 00-2.3.228 13.536 13.536 0 00-2.385.68 17 17 0 00-2.146 1 8.991 8.991 0 00-1.641 1.135l-2.059-2.992a19.758 19.758 0 0111.023-3.508h.1a9.383 9.383 0 014.64 1.063 6.144 6.144 0 012.667 3.127 8.621 8.621 0 01.517 2.558c.064.987.076 2.1.036 3.3l-.26 8.729a32.851 32.851 0 00-.014 2.66 6.785 6.785 0 00.283 1.784 3.418 3.418 0 00.659 1.2 3.845 3.845 0 001.167.857l-2.143 2.972zm-6.063-14.615a18.667 18.667 0 00-4.143.4 7.858 7.858 0 00-2.854 1.2 4.586 4.586 0 00-1.569 1.965 7.022 7.022 0 00-.5 2.659 5.024 5.024 0 001.136 3.6 4.624 4.624 0 003.46 1.217h.034a7 7 0 003.786-1.113 7.388 7.388 0 002.7-2.964l.2-6.853a19.097 19.097 0 00-2.095-.117z" fill="#002e42"/><path data-name="Fill 7" d="M71.08 40.548l.09-17.772q.006-1.055-.044-1.741a8.378 8.378 0 00-.153-1.16 3.2 3.2 0 00-.289-.82 3.935 3.935 0 00-.449-.661 3.662 3.662 0 00-2.921-1.123 6.369 6.369 0 00-1.785.281 11.545 11.545 0 00-1.973.78 15.2 15.2 0 00-1.949 1.176 11.139 11.139 0 00-1.657 1.415l-.1 19.568-3.995-.021.107-20.358a15.79 15.79 0 00-.982-5.572l4.051-1.092a3.434 3.434 0 01.263.587 12.029 12.029 0 01.444 1.519 8.645 8.645 0 01.229 2.051q4.119-4.077 8.378-4.057a7.477 7.477 0 013.935 1.083 6.3 6.3 0 012.54 2.824 7.467 7.467 0 01.623 3.077l-.106 20.04z" fill="#002e42"/><path data-name="Fill 9" d="M96.861 40.792h-.129l-13.415-.068.2-37.1 13.039.068a27.287 27.287 0 014.239.394 11.119 11.119 0 014.551 1.938 12.685 12.685 0 014.58 6.066 27.516 27.516 0 011.382 9.561 36.383 36.383 0 01-.89 8.033 15.852 15.852 0 01-3.376 6.689 12.417 12.417 0 01-4.153 3.278 13.91 13.91 0 01-6.028 1.141zm-3.808-29.4l-.113 21.449 3.172.016h.036a4.694 4.694 0 001.842-.364 3.281 3.281 0 001.517-1.57 11.95 11.95 0 001.022-3.525 41.144 41.144 0 00.4-6.177 26.99 26.99 0 00-.369-5.189 8.785 8.785 0 00-1.043-2.948 3.167 3.167 0 00-1.579-1.345 6.068 6.068 0 00-1.98-.331l-2.905-.016z" fill="#002e42"/><path data-name="Fill 11" d="M125.417 40.943l-9.314-.049.142-27.038 9.32-.8-.147 27.886zm-4.559-29.511h-.023a5.247 5.247 0 01-2.02-.41 5.154 5.154 0 01-1.67-1.128 5.5 5.5 0 01-1.136-1.681 5.016 5.016 0 01.022-4.045 5.292 5.292 0 011.179-1.667 5.383 5.383 0 011.736-1.112 5.555 5.555 0 012.073-.388h.03a5.378 5.378 0 012.075.41 4.869 4.869 0 011.644 1.126 5.478 5.478 0 011.083 1.656 5.176 5.176 0 01.388 2.051 4.945 4.945 0 01-.437 2.02 5.551 5.551 0 01-1.153 1.671 5.105 5.105 0 01-1.709 1.109 5.61 5.61 0 01-2.082.388z" fill="#002e42"/><path data-name="Fill 13" d="M132.327 53.487l-3.65-4.806a8.693 8.693 0 001.391-1.38 6.867 6.867 0 00.967-1.671 8.975 8.975 0 00.542-2.127 21.333 21.333 0 00.175-2.794l.14-26.771 9.32-.8-.142 26.986a26.359 26.359 0 01-.428 4.973 10 10 0 01-1.409 3.559 9.58 9.58 0 01-2.691 2.647 24.817 24.817 0 01-4.213 2.187zm3.929-41.975h-.038a5.236 5.236 0 01-2.021-.409 5.178 5.178 0 01-1.67-1.128 5.531 5.531 0 01-1.136-1.68 5.006 5.006 0 01.021-4.046 5.294 5.294 0 011.18-1.668 5.391 5.391 0 011.735-1.111 5.558 5.558 0 012.074-.389h.03a5.385 5.385 0 012.074.41 4.894 4.894 0 011.645 1.127 5.468 5.468 0 011.082 1.655 5.165 5.165 0 01.388 2.051 4.938 4.938 0 01-.436 2.02 5.563 5.563 0 01-1.153 1.67 5.112 5.112 0 01-1.709 1.109 5.558 5.558 0 01-2.066.389z" fill="#002e42"/><path data-name="Fill 15" d="M174.223 41.199l-10.376-.054-7-15.548 4.906-11.874 10.859.058-7.564 11.115 9.175 16.3zm-17.511-.092l-9.314-.049.154-29.379a94.179 94.179 0 00-.081-4.795 18.271 18.271 0 00-.408-3.351l9.266-1.549c.106.546.193 1.111.259 1.679.069.593.129 1.264.176 2 .049.754.08 1.623.093 2.582s.017 2.089.006 3.429l-.151 29.432z" fill="#002e42"/><g data-name="Group 19"><path data-name="Clip 18" d="M174.241 13.109h24.8v28.854h-24.8z" fill="none"/><g data-name="Group 19" clip-path="url(#b)" transform="translate(174 12.545)"><path data-name="Fill 17" d="M13.841 29.417h-.112a16.915 16.915 0 01-5.865-.968 10.786 10.786 0 01-4.238-2.837 12.208 12.208 0 01-2.556-4.518 19.372 19.372 0 01-.829-6.012c.023-4.518 1.148-8.113 3.343-10.68a10.469 10.469 0 013.913-2.879 13.282 13.282 0 015.182-.959h.094a13.821 13.821 0 015.612 1.067 9.921 9.921 0 013.828 3 12.567 12.567 0 012.174 4.748 26.547 26.547 0 01.655 6.311l-.012 2.289-15.223-.078a8.722 8.722 0 00.149 1.523 5.538 5.538 0 00.6 1.688 3.71 3.71 0 001.314 1.366 4.32 4.32 0 002.3.555h.05a11.687 11.687 0 007.152-2.729l3.513 5.3a19.141 19.141 0 01-5.421 2.956 17.894 17.894 0 01-5.623.857zm-.753-22.464a2.927 2.927 0 00-2.35 1.04 6.107 6.107 0 00-.9 3.785l6.174.033a7.139 7.139 0 00-.54-3.557 2.444 2.444 0 00-2.363-1.3z" fill="#002e42"/></g></g><path data-name="Fill 20" d="M16.585 72.517a1.6 1.6 0 01-.736-.468 1.881 1.881 0 01-.417-.776 4.382 4.382 0 01-1.16.878 2.95 2.95 0 01-1.28.264 3.368 3.368 0 01-1.305-.222 2.368 2.368 0 01-.839-.562 1.929 1.929 0 01-.44-.775 3.076 3.076 0 01-.123-.861 2.581 2.581 0 011.175-2.249 5.891 5.891 0 013.322-.8c.187 0 .387.006.6.017v-.593a5.981 5.981 0 00-.043-.837.892.892 0 00-.23-.482 1.244 1.244 0 00-.481-.347 1.813 1.813 0 00-.668-.11 3.869 3.869 0 00-.753.077 4.3 4.3 0 00-.762.221 5.4 5.4 0 00-.686.324 2.87 2.87 0 00-.526.371l-.664-.959a6.311 6.311 0 013.555-1.141 2.265 2.265 0 012.346 1.329 2.732 2.732 0 01.17.818 10.447 10.447 0 01.017 1.053l-.072 2.8c-.012.34-.012.626 0 .852a2.193 2.193 0 00.1.568 1.052 1.052 0 00.213.383 1.234 1.234 0 00.373.273l-.686.953zm-1.911-4.669a6.05 6.05 0 00-1.376.139 2.513 2.513 0 00-.913.388 1.472 1.472 0 00-.5.633 2.243 2.243 0 00-.155.852 1.336 1.336 0 001.482 1.527 2.233 2.233 0 001.221-.363 2.359 2.359 0 00.861-.953l.051-2.184c-.1-.01-.213-.019-.327-.025s-.212-.014-.344-.014z" fill="#fff"/><path data-name="Fill 22" d="M28.616 61.289a4 4 0 00-.579-.264 1.941 1.941 0 00-.682-.128q-1.158 0-1.158 1.49v1.3h2.352l-.409 1.027h-1.942v7.446h-1.364v-7.446h-.818v-1.022h.818v-1.317a3.126 3.126 0 01.092-.81 2.452 2.452 0 01.232-.583 2.009 2.009 0 01.3-.4 2.676 2.676 0 01.291-.268 2.415 2.415 0 011.488-.439 3.378 3.378 0 011.874.486z" fill="#fff"/><path data-name="Fill 24" d="M38.278 72.279h-1.312l-3.05-8.519 1.363-.273 1.976 5.827c.08.228.151.457.214.69l.144.537a1.345 1.345 0 01.051.222h.035a14.488 14.488 0 01.409-1.432l1.942-5.622h1.414z" fill="#fff"/><path data-name="Fill 26" d="M53.813 72.517a1.6 1.6 0 01-.736-.468 1.881 1.881 0 01-.417-.776 4.382 4.382 0 01-1.16.878 2.95 2.95 0 01-1.28.264 3.374 3.374 0 01-1.305-.222 2.368 2.368 0 01-.839-.562 1.929 1.929 0 01-.44-.775 3.076 3.076 0 01-.123-.861 2.581 2.581 0 011.175-2.249 5.891 5.891 0 013.322-.8c.187 0 .387.006.6.017v-.593a5.981 5.981 0 00-.043-.837.892.892 0 00-.23-.482 1.244 1.244 0 00-.481-.347 1.813 1.813 0 00-.668-.11 3.869 3.869 0 00-.753.077 4.3 4.3 0 00-.762.221 5.4 5.4 0 00-.686.324 2.87 2.87 0 00-.526.371l-.664-.959a6.311 6.311 0 013.555-1.141 2.265 2.265 0 012.346 1.329 2.732 2.732 0 01.17.818 10.447 10.447 0 01.017 1.053l-.072 2.8c-.012.34-.012.626 0 .852a2.193 2.193 0 00.1.568 1.052 1.052 0 00.213.383 1.234 1.234 0 00.373.273l-.686.953zm-1.911-4.669a6.05 6.05 0 00-1.376.139 2.513 2.513 0 00-.913.388 1.472 1.472 0 00-.5.633 2.243 2.243 0 00-.155.852 1.336 1.336 0 001.482 1.527 2.233 2.233 0 001.221-.363 2.359 2.359 0 00.861-.953l.051-2.184c-.1-.01-.213-.019-.327-.025s-.212-.014-.344-.014z" fill="#fff"/><path data-name="Fill 28" d="M63.929 72.33a2.179 2.179 0 01-.434.034 1.421 1.421 0 01-1.018-.358 1.162 1.162 0 01-.31-.468 2.171 2.171 0 01-.1-.742v-9a7.888 7.888 0 00-.208-1.734l1.343-.256a9.576 9.576 0 01.225 2.011v8.673a1.642 1.642 0 00.093.673.391.391 0 00.383.179.914.914 0 00.17-.035l.273.869a2.03 2.03 0 01-.417.154" fill="#fff"/><path data-name="Fill 30" d="M75.984 72.125a3.533 3.533 0 01-1.4.255 3.051 3.051 0 01-2.7-1.278 4.338 4.338 0 01-.614-1.337 6.533 6.533 0 01-.193-1.678 5.693 5.693 0 01.362-2.232 4.449 4.449 0 01.9-1.38 3.145 3.145 0 012.299-.988 2.814 2.814 0 011.329.28 5.616 5.616 0 01.988.667l-.733.927a3.484 3.484 0 00-.783-.528 2.022 2.022 0 00-.835-.154 1.806 1.806 0 00-.929.256 1.761 1.761 0 00-.673.7 6.118 6.118 0 00-.477 2.776 3.76 3.76 0 00.537 2.2 1.8 1.8 0 001.559.749 2.308 2.308 0 001.823-.92l.733.847a4.011 4.011 0 01-1.193.835" fill="#fff"/><path data-name="Fill 32" d="M87.341 72.415a3.275 3.275 0 01-2.716-1.21 5.211 5.211 0 01-.956-3.306 5.044 5.044 0 01.965-3.263 3.254 3.254 0 012.656-1.184 3.4 3.4 0 011.779.426 3.835 3.835 0 011.141 1.057 4.271 4.271 0 01.589 1.346 7.354 7.354 0 01.2 1.806 5.87 5.87 0 01-.277 1.865 3.884 3.884 0 01-.76 1.355 3.213 3.213 0 01-1.153.827 3.771 3.771 0 01-1.468.281zm-.077-7.855a2.243 2.243 0 00-1.039.246 1.6 1.6 0 00-.7.672 3.4 3.4 0 00-.307.918 7 7 0 00-.1 1.292 8.536 8.536 0 00.145 1.64 3.512 3.512 0 00.382 1.124 1.653 1.653 0 00.707.621 2.29 2.29 0 001.014.23 1.96 1.96 0 001.142-.331 1.9 1.9 0 00.7-.943 4.327 4.327 0 00.2-.8 7.427 7.427 0 00.06-1.037 6.166 6.166 0 00-.399-2.54 1.783 1.783 0 00-.775-.825 2.222 2.222 0 00-1.03-.267z" fill="#fff"/><path data-name="Fill 34" d="M103.436 72.159v-5.69c0-.225-.006-.411-.017-.557a2.746 2.746 0 00-.051-.372 1.008 1.008 0 00-.094-.261 1.258 1.258 0 00-.145-.211 1.17 1.17 0 00-.937-.355 2.027 2.027 0 00-.57.093 3.663 3.663 0 00-.631.253 4.87 4.87 0 00-.622.38 3.563 3.563 0 00-.528.456v6.264H98.56v-6.518a5.042 5.042 0 00-.324-1.781l1.295-.357a.976.976 0 01.085.188 3.647 3.647 0 01.145.485 2.779 2.779 0 01.077.656 3.821 3.821 0 012.675-1.312 2.386 2.386 0 011.261.34 2.017 2.017 0 01.818.9 2.4 2.4 0 01.2.985v6.414z" fill="#fff"/><path data-name="Fill 36" d="M116.024 64.714h-1.772v5.469a1.575 1.575 0 00.23.988 1.085 1.085 0 00.86.273 2.049 2.049 0 00.469-.043 1.946 1.946 0 00.366-.127l.188.851a3.167 3.167 0 01-1.5.341 2.771 2.771 0 01-.6-.059 2.107 2.107 0 01-.493-.18 1.29 1.29 0 01-.614-.63 2.618 2.618 0 01-.184-1.059v-5.824h-1.107v-1.023h1.107q0-.306.016-.681t.042-.7q.026-.322.075-.766l1.366-.306q-.051.442-.085.8c-.022.238-.042.5-.059.792s-.026.577-.026.86h2.13z" fill="#fff"/><path data-name="Fill 38" d="M128.905 72.517a1.6 1.6 0 01-.736-.468 1.881 1.881 0 01-.417-.776 4.4 4.4 0 01-1.159.878 2.957 2.957 0 01-1.281.264 3.368 3.368 0 01-1.3-.222 2.362 2.362 0 01-.839-.562 1.955 1.955 0 01-.441-.775 3.11 3.11 0 01-.132-.861 2.58 2.58 0 011.176-2.249 5.891 5.891 0 013.322-.8c.187 0 .387.006.6.017v-.593a5.787 5.787 0 00-.043-.837.892.892 0 00-.23-.482 1.257 1.257 0 00-.481-.347 1.813 1.813 0 00-.668-.11 3.9 3.9 0 00-.754.077 4.294 4.294 0 00-.761.221 5.323 5.323 0 00-.685.324 2.85 2.85 0 00-.527.371l-.664-.959a6.311 6.311 0 013.555-1.141 2.265 2.265 0 012.346 1.329 2.757 2.757 0 01.17.818c.022.313.028.668.017 1.056l-.068 2.797c-.013.34-.013.626 0 .852a2.163 2.163 0 00.095.568 1.078 1.078 0 00.213.383 1.261 1.261 0 00.374.273l-.68.953zm-1.915-4.669a6.05 6.05 0 00-1.376.139 2.487 2.487 0 00-.912.388 1.469 1.469 0 00-.5.633 2.26 2.26 0 00-.154.852 1.336 1.336 0 001.48 1.527 2.232 2.232 0 001.221-.363 2.367 2.367 0 00.861-.953l.051-2.184c-.1-.01-.211-.019-.327-.025a3.178 3.178 0 00-.344-.014z" fill="#fff"/><path data-name="Fill 40" d="M138.514 72.159h-1.363v-8.415l1.363-.221v8.638zm-.656-10.036a.994.994 0 01-.733-.3 1 1 0 01-.294-.722 1.046 1.046 0 01.294-.75.979.979 0 01.733-.307.988.988 0 01.732.3 1.018 1.018 0 01.294.742 1.017 1.017 0 01-.294.741.988.988 0 01-.732.296z" fill="#fff"/><path data-name="Fill 42" d="M151.586 72.159v-5.69c0-.225-.006-.411-.017-.557a2.915 2.915 0 00-.051-.372 1.008 1.008 0 00-.094-.261 1.258 1.258 0 00-.145-.211 1.17 1.17 0 00-.937-.355 2.039 2.039 0 00-.571.093 3.686 3.686 0 00-.63.253 4.8 4.8 0 00-.622.38 3.512 3.512 0 00-.528.456v6.264h-1.281v-6.518a5.042 5.042 0 00-.324-1.781l1.295-.357a1.051 1.051 0 01.085.188 3.647 3.647 0 01.145.485 2.779 2.779 0 01.077.656 3.821 3.821 0 012.675-1.312 2.386 2.386 0 011.261.34 2.009 2.009 0 01.817.9 2.381 2.381 0 01.2.985v6.414z" fill="#fff"/><path data-name="Fill 44" d="M164.389 72.38a3.427 3.427 0 01-2.775-1.201 5.05 5.05 0 01-1-3.314 5.975 5.975 0 01.239-1.815 4.122 4.122 0 01.788-1.388 3.237 3.237 0 012.552-1.176 3.082 3.082 0 012.311.92 3.584 3.584 0 01.463.6 2.7 2.7 0 01.3.715 5.775 5.775 0 01.162.955c.035.358.052.8.052 1.311v.188h-5.334v.2a5.653 5.653 0 00.086 1.057 2.187 2.187 0 00.307.8 2.141 2.141 0 00.915.792 2.965 2.965 0 001.206.247 2.984 2.984 0 002.085-.8l.511.852a3.937 3.937 0 01-1.306.784 4.519 4.519 0 01-1.562.273zm-.282-7.87c-1.233 0-1.892.888-1.96 2.641h3.885a6.566 6.566 0 00-.111-1.142 2.374 2.374 0 00-.282-.75 1.569 1.569 0 00-.63-.545 2 2 0 00-.902-.205z" fill="#fff"/><path data-name="Fill 46" d="M178.588 64.981a1 1 0 00-.375-.068 1.947 1.947 0 00-1.414.611 1.652 1.652 0 00-.392.552 2.3 2.3 0 00-.1.789v5.295h-1.365v-6.517a5.635 5.635 0 00-.29-1.799l1.356-.357a1.1 1.1 0 01.088.2 3.464 3.464 0 01.139.511 2.628 2.628 0 01.053.674 3.639 3.639 0 011.099-1.036 2.481 2.481 0 011.286-.383 1.771 1.771 0 01.46.085z" fill="#fff"/><path data-name="Fill 48" d="M190.925 69.672a2.733 2.733 0 01-.229 1.125 2.506 2.506 0 01-.652.877 3.1 3.1 0 01-1.009.571 3.921 3.921 0 01-1.3.2 6.185 6.185 0 01-1.636-.226 5.939 5.939 0 01-1.464-.608l.511-.985a5.11 5.11 0 002.694.8 1.883 1.883 0 001.253-.394 1.336 1.336 0 00.469-1.079 1.245 1.245 0 00-.332-.917 2.091 2.091 0 00-1.066-.488l-1.056-.222a2.851 2.851 0 01-1.6-.835 2.176 2.176 0 01-.546-1.5 2.475 2.475 0 01.221-1.056 2.382 2.382 0 01.62-.818 2.974 2.974 0 01.951-.532 3.611 3.611 0 011.216-.2 5.284 5.284 0 011.351.181 5.563 5.563 0 011.234.478l-.495.976a9.266 9.266 0 00-1.066-.442 3.289 3.289 0 00-1.066-.171 1.691 1.691 0 00-1.169.389 1.308 1.308 0 00-.435 1.026 1.155 1.155 0 00.272.8 1.723 1.723 0 00.951.44l1.12.239q2.258.484 2.258 2.371" fill="#fff"/><path data-name="Fill 50" d="M123.304 49.643H2.816a.719.719 0 110-1.437h120.488a.719.719 0 010 1.437" fill="#d34f2e"/><path data-name="Fill 52" d="M198.277 49.643H145.21a.719.719 0 010-1.437h53.067a.719.719 0 010 1.437" fill="#d34f2e"/></g></g></svg>