<svg xmlns="http://www.w3.org/2000/svg" width="78" height="106" viewBox="0 0 78 106"><g><g><path fill="#00de5b" d="M53.06 9.111v1.756h19.334a5.27 5.27 0 0 1 5.273 5.266V100.4a5.27 5.27 0 0 1-5.273 5.267H5.606A5.27 5.27 0 0 1 .333 100.4V16.133a5.27 5.27 0 0 1 5.273-5.266H24.94V9.11C24.945 4.265 28.876.34 33.727.333h10.546c4.851.006 8.782 3.932 8.787 8.778zm-24.605 1.756h21.09V9.11a5.27 5.27 0 0 0-5.272-5.267H33.727a5.27 5.27 0 0 0-5.272 5.267zm17.575 3.51H31.97v3.512h14.06zm-17.575 8.779V21.4H10.879v73.733H67.12V21.4H49.545v1.756a5.27 5.27 0 0 1-5.272 5.266H33.727a5.27 5.27 0 0 1-5.272-5.266zM46.03 21.4H31.97v1.756c0 .969.787 1.755 1.757 1.755h10.546c.97 0 1.757-.786 1.757-1.755zm26.364-7.022H49.545v3.51H68.88c.97 0 1.757.787 1.757 1.756V96.89c0 .97-.787 1.755-1.757 1.755H9.12c-.97 0-1.757-.786-1.757-1.755V19.644c0-.97.787-1.755 1.757-1.755h19.334v-3.511H5.606c-.97 0-1.758.786-1.758 1.755V100.4c0 .97.787 1.755 1.758 1.755h66.788c.97 0 1.757-.785 1.757-1.755V16.133c0-.97-.787-1.755-1.757-1.755zM39 38.956c8.736 0 15.818 7.073 15.818 15.8 0 8.726-7.082 15.8-15.818 15.8s-15.818-7.074-15.818-15.8c.01-8.723 7.086-15.791 15.818-15.8zm-12.303 15.8c0 6.787 5.508 12.288 12.303 12.288 6.795 0 12.303-5.501 12.303-12.289 0-6.787-5.508-12.288-12.303-12.288-6.792.007-12.295 5.505-12.303 12.288zm5.568.974a1.755 1.755 0 0 1 .486-2.435 1.76 1.76 0 0 1 2.439.486l2.324 3.485 7.274-7.263a1.76 1.76 0 0 1 2.463.022c.678.677.688 1.771.022 2.46l-8.788 8.778a1.759 1.759 0 0 1-2.705-.266zm24.31 23.603c0 .97-.786 1.756-1.757 1.756H23.182a1.757 1.757 0 1 1 0-3.511h31.636c.97 0 1.758.786 1.758 1.755zm-5.272 7.023c0 .97-.787 1.755-1.758 1.755h-21.09a1.756 1.756 0 1 1 0-3.511h21.09c.971 0 1.758.786 1.758 1.756zM53.06 24.91h3.516v3.511H53.06zm7.03 0h3.516v3.511h-3.515zm-45.696 0h3.515v3.511h-3.515zm7.03 0h3.515v3.511h-3.515z"/></g></g></svg>