<svg xmlns="http://www.w3.org/2000/svg" width="74" height="114" viewBox="0 0 74 114"><g><g><path fill="#e00699" d="M74 22.577V97.29c0 1.223-.974 2.213-2.176 2.213H58.836v11.948a2.22 2.22 0 0 1-1.122 1.938 2.15 2.15 0 0 1-2.21-.062l-8.286-5.29-8.287 5.29a2.144 2.144 0 0 1-2.21.06 2.22 2.22 0 0 1-1.122-1.936V99.502H2.842c-1.201 0-2.175-.99-2.175-2.213V2.547c0-1.223.974-2.214 2.175-2.214h49.295c.024 0 .049.003.074.004l.07.003c.094.007.187.018.278.036h.002a2.212 2.212 0 0 1 .339.1c.082.032.164.067.242.109l.017.009c.083.044.16.096.238.152l.059.044c.076.06.15.122.219.192l19.688 20.03c.07.07.13.145.19.223l.041.059c.056.079.107.159.151.244l.007.013a2.425 2.425 0 0 1 .206.594 2.273 2.273 0 0 1 .039.357l.003.075zm-19.688-2.213h12.26L54.312 7.89zM35.215 71.742c0 1.127-.366 2.144-.69 3.04-.152.423-.4 1.115-.407 1.397.17.214.76.594 1.12.826.776.498 1.655 1.063 2.292 1.947.643.893.906 1.924 1.136 2.834.101.398.264 1.04.404 1.283.077.016.237.04.538.04.244 0 .515-.014.801-.029.33-.016.67-.033 1.025-.033.784 0 1.416.09 1.99.284 1.002.339 1.803.996 2.511 1.574.385.317 1.027.842 1.283.889.255-.047.898-.572 1.283-.889.707-.578 1.51-1.235 2.511-1.574.574-.195 1.205-.284 1.99-.284.354 0 .695.017 1.024.033.287.015.558.029.801.029.302 0 .462-.024.54-.04.138-.243.302-.886.402-1.283.231-.91.494-1.941 1.137-2.834.637-.884 1.516-1.45 2.291-1.947.36-.233.95-.612 1.12-.826-.005-.283-.254-.974-.407-1.397-.323-.897-.69-1.914-.69-3.04 0-1.127.367-2.144.69-3.04.153-.424.402-1.114.408-1.397-.17-.215-.76-.593-1.12-.826-.776-.499-1.655-1.063-2.292-1.947-.643-.893-.906-1.925-1.137-2.834-.1-.398-.264-1.04-.403-1.283a2.619 2.619 0 0 0-.539-.04c-.243 0-.514.014-.801.028-.329.017-.67.034-1.024.034-.785 0-1.416-.09-1.99-.284-1.002-.34-1.804-.996-2.511-1.575-.391-.32-1.045-.856-1.294-.889-.228.033-.882.57-1.273.89-.707.578-1.508 1.235-2.51 1.574-.574.194-1.206.284-1.99.284-.355 0-.695-.017-1.025-.034a16.406 16.406 0 0 0-.8-.028c-.302 0-.463.023-.54.04-.139.243-.302.885-.403 1.283-.231.91-.493 1.94-1.136 2.834-.638.884-1.517 1.45-2.292 1.947-.36.232-.95.611-1.12.826.005.283.254.973.407 1.396.323.897.69 1.914.69 3.041zm19.27 35.707l-.001-.001zm-.001-.001V87.529c-.23-.006-.457-.016-.677-.027-.289-.015-.56-.028-.806-.028-.386 0-.55.036-.615.058-.259.087-.757.495-1.157.823-1.016.831-2.28 1.866-4.011 1.866-1.733 0-2.996-1.035-4.012-1.866-.4-.328-.898-.736-1.158-.824-.063-.022-.228-.058-.614-.058-.246 0-.518.014-.806.03-.22.01-.447.019-.678.026v19.92l6.11-3.9a2.15 2.15 0 0 1 2.314 0zm15.165-12.373V24.791H52.137c-1.202 0-2.176-.991-2.176-2.214V4.76H5.018v90.315h30.581v-9.33c-.646-.893-.917-1.952-1.146-2.851-.12-.473-.284-1.118-.432-1.325-.15-.207-.703-.563-1.107-.822-1.07-.689-2.403-1.545-2.933-3.165-.524-1.6.021-3.11.459-4.324.199-.55.424-1.176.424-1.517 0-.34-.225-.965-.424-1.515-.438-1.214-.983-2.725-.46-4.324.531-1.62 1.863-2.477 2.934-3.165.404-.26.957-.616 1.107-.822.148-.207.312-.853.432-1.325.313-1.232.703-2.766 2.036-3.76 1.06-.79 2.288-.882 3.12-.882.352 0 .691.017 1.02.034.287.015.56.03.805.03.386 0 .552-.037.615-.059.259-.087.757-.496 1.157-.824 1.016-.83 2.28-1.866 4.012-1.866 1.732 0 2.995 1.035 4.012 1.866.4.329.898.737 1.156.824.064.022.23.058.616.058.245 0 .517-.014.805-.029.328-.017.668-.034 1.02-.034.832 0 2.06.092 3.12.882 1.333.994 1.722 2.528 2.035 3.76.12.472.284 1.118.433 1.326.15.205.702.562 1.106.821 1.07.688 2.404 1.545 2.933 3.165.524 1.598-.021 3.11-.459 4.324-.199.55-.424 1.175-.424 1.515 0 .341.225.966.424 1.517.438 1.214.983 2.724.459 4.323-.53 1.62-1.862 2.477-2.933 3.166-.404.259-.957.614-1.106.822-.15.207-.313.852-.433 1.325-.229.899-.499 1.957-1.146 2.851v9.33zM11.298 22.577c0-1.223.974-2.213 2.175-2.213h28.032c1.2 0 2.175.99 2.175 2.213s-.974 2.214-2.175 2.214H13.473c-1.2 0-2.175-.991-2.175-2.214zM63.612 33.75c0 1.223-.974 2.214-2.176 2.214H13.473c-1.201 0-2.175-.991-2.175-2.214 0-1.223.974-2.213 2.175-2.213h47.963c1.202 0 2.176.99 2.176 2.213zm-8.703 11.173c0 1.222-.974 2.213-2.176 2.213h-39.26c-1.201 0-2.175-.99-2.175-2.213 0-1.222.974-2.214 2.175-2.214h39.26c1.202 0 2.176.992 2.176 2.214zm8.703 0c0 1.219-.977 2.213-2.176 2.213-1.198 0-2.176-.994-2.176-2.213 0-1.22.978-2.214 2.176-2.214 1.2 0 2.176.995 2.176 2.214z"/></g></g></svg>