<svg xmlns="http://www.w3.org/2000/svg" width="98" height="97" viewBox="0 0 98 97"><g><g><path fill="#00de5b" d="M92.871 27.532c3.183 6.517 4.795 13.516 4.795 20.801 0 26.467-21.83 48-48.666 48S.333 74.8.333 48.333c0-26.466 21.831-48 48.667-48 13.182 0 25.526 5.115 34.754 14.4l-2.242 2.168C72.878 8.215 61.332 3.43 49 3.43c-25.103 0-45.527 20.143-45.527 44.903 0 24.76 20.424 44.904 45.527 44.904 25.102 0 45.526-20.144 45.526-44.904 0-6.816-1.509-13.362-4.484-19.457zM49 9.624c-.506 0-1.01.009-1.51.03l-.12-3.096c.542-.02 1.083-.031 1.63-.031 10.995 0 21.418 4.134 29.345 11.64L76.171 20.4C68.831 13.45 59.179 9.624 49 9.624zm-4.71 47.359l45.987-45.357a1.583 1.583 0 0 1 2.22 0l4.709 4.645a1.532 1.532 0 0 1 0 2.19L48.08 66.913a5.364 5.364 0 0 1-3.79 1.548c-1.43 0-2.776-.55-3.79-1.548L22.772 49.428a1.532 1.532 0 0 1 0-2.19l4.71-4.645a1.584 1.584 0 0 1 2.22 0zm1.11 3.284a1.583 1.583 0 0 1-2.22 0l-14.589-14.39-2.49 2.456 16.62 16.391c.838.827 2.297.829 3.139 0l48.016-47.358-2.49-2.456zM70.79 80.534a40.587 40.587 0 0 0 2.498-1.79l1.94 2.432a43.088 43.088 0 0 1-2.694 1.93zm-5.377 2.972a38.85 38.85 0 0 0 2.748-1.38l1.537 2.7c-.961.53-1.96 1.032-2.97 1.492zm-11.826 3.275a39.855 39.855 0 0 0 3.043-.47l.61 3.038c-1.081.21-2.188.38-3.292.507zm6.044-1.176c.99-.273 1.975-.589 2.931-.937l1.088 2.905a42.62 42.62 0 0 1-3.17 1.014zm30.946-29.109l-3.079-.603c.2-.995.361-2.004.48-3.001l3.117.356c-.127 1.08-.3 2.172-.518 3.248zM77.813 74.617l2.303 2.103c-.75.8-1.54 1.58-2.355 2.323l-2.13-2.275a40.587 40.587 0 0 0 2.182-2.15zm8.17-5.845l-2.738-1.517c.498-.872.97-1.783 1.405-2.709l2.848 1.301c-.468 1-.978 1.984-1.515 2.925zm-1.741 2.796c-.61.903-1.27 1.797-1.96 2.658l-2.462-1.92a38.357 38.357 0 0 0 1.813-2.458zm4.535-8.757l-2.946-1.07a39.15 39.15 0 0 0 .951-2.891l3.023.84a41.214 41.214 0 0 1-1.028 3.12zm2.61-14.478c0 .539-.01 1.075-.032 1.608l-3.137-.118c.02-.494.029-.991.029-1.49 0-5.16-1.013-10.168-3.008-14.886l2.898-1.194a41.046 41.046 0 0 1 3.25 16.08zM24.71 17.925l-1.94-2.433a43.044 43.044 0 0 1 2.694-1.93l1.744 2.573a40.641 40.641 0 0 0-2.498 1.79zM7.421 40.17l3.079.604c-.2.994-.361 2.004-.479 3l-3.118-.355c.127-1.08.3-2.173.518-3.249zm30.946-29.108a38.34 38.34 0 0 0-2.931.937l-1.088-2.905a42.565 42.565 0 0 1 3.171-1.014zm-8.53 3.48l-1.536-2.7c.96-.53 1.959-1.032 2.968-1.492l1.316 2.812a38.14 38.14 0 0 0-2.747 1.38zm14.574-4.657a39.736 39.736 0 0 0-3.043.471l-.61-3.038c1.081-.21 2.188-.38 3.292-.508zM9.222 33.855l2.947 1.07a39.17 39.17 0 0 0-.952 2.892l-3.023-.84a41.284 41.284 0 0 1 1.028-3.121zm2.793-5.96l2.74 1.517c-.498.872-.97 1.782-1.406 2.708l-2.848-1.3c.468-1 .978-1.984 1.514-2.925zm8.171-5.846l-2.303-2.102c.75-.8 1.54-1.581 2.355-2.323l2.13 2.275a40.63 40.63 0 0 0-2.182 2.15zm-4.468.392l2.462 1.92a38.362 38.362 0 0 0-1.814 2.457l-2.609-1.72c.611-.903 1.27-1.796 1.961-2.657zM6.613 48.333c0-.538.01-1.074.031-1.607l3.137.118c-.019.494-.028.99-.028 1.49 0 21.344 17.606 38.709 39.247 38.709.505 0 1.009-.01 1.51-.03l.12 3.096c-.542.02-1.084.03-1.63.03-23.373 0-42.387-18.753-42.387-41.806z"/></g></g></svg>