<svg xmlns="http://www.w3.org/2000/svg" width="108" height="110" viewBox="0 0 108 110"><g><g><path fill="#e00699" d="M15.677 87.173c0 .967.78 1.756 1.742 1.756h3.484c2.881 0 5.226 2.363 5.226 5.268 0 2.904-2.345 5.267-5.226 5.267v3.512H17.42v-3.512c-2.88 0-5.225-2.363-5.225-5.267h3.483c0 .967.78 1.755 1.742 1.755h3.484a1.75 1.75 0 0 0 1.742-1.755 1.75 1.75 0 0 0-1.742-1.756H17.42c-2.88 0-5.225-2.364-5.225-5.268 0-2.905 2.344-5.268 5.225-5.268v-3.512h3.484v3.512c2.881 0 5.226 2.363 5.226 5.268h-3.484a1.75 1.75 0 0 0-1.742-1.756H17.42a1.75 1.75 0 0 0-1.742 1.756zM108 57.322V110H34.839v-8.244C31.369 106.732 25.64 110 19.16 110 8.596 110 0 101.334 0 90.685a19.37 19.37 0 0 1 9.356-16.568L4.43 67.91a4.393 4.393 0 0 1-.946-2.722c0-2.4 1.937-4.354 4.32-4.354H8.1c.667 0 1.336.158 1.934.46l1.816.915.133-.134a10.181 10.181 0 0 1 7.178-2.997c2.672 0 5.289 1.092 7.18 2.997l.133.134 1.817-.915a4.293 4.293 0 0 1 1.931-.46h.297c2.383 0 4.32 1.952 4.32 4.354 0 .987-.335 1.953-.946 2.722l-4.926 6.207c2.35 1.414 4.339 3.3 5.872 5.505v-22.3h5.225v-.934L29.86 47.815l-7.78-23.522-14.45 5.462-6.35-19.197L30.715.667 37.042 19.8l-4.973 1.672 9.345 18.843 4.402 2.958h.415a10.529 10.529 0 0 1-2.683-7.023v-8.78c0-3.874 3.125-7.024 6.968-7.024H62.71a1.75 1.75 0 0 0 1.742-1.756h3.483v7.024a5.258 5.258 0 0 1-3.483 4.945v5.59c0 2.701-1.021 5.158-2.683 7.024h.413l4.403-2.958 9.346-18.843-4.973-1.672L77.284.667l29.435 9.89-6.349 19.198-14.45-5.462-7.78 23.522-10.205 8.573v.934zm-3.484 3.512h-4.978a6.987 6.987 0 0 0 4.978 5.018zm0 22.987V69.455c-4.367-.744-7.816-4.219-8.553-8.621H46.875c-.738 4.402-4.186 7.879-8.553 8.621V83.82c4.367.745 7.817 4.22 8.553 8.622h49.088c.739-4.402 4.186-7.877 8.553-8.62zm-4.978 8.62h4.978v-5.019a6.986 6.986 0 0 0-4.978 5.019zm-61.52-5.116c.193 1.1.304 2.22.304 3.36 0 .593-.036 1.176-.088 1.756H43.3c-.66-2.562-2.698-4.568-5.283-5.116zM77.502 18.3l.239-.48a4.71 4.71 0 0 1 4.24-2.64h.376c2.613 0 4.74 2.143 4.74 4.777 0 .332-.047.66-.114.985l11.23 4.244 4.101-12.409L79.49 5.11l-4.125 12.472zM51.85 46.786l2.15 3.61 2.15-3.61zM50.516 23.96c-1.921 0-3.484 1.575-3.484 3.512H62.71a1.75 1.75 0 0 0 1.742-1.756v-2.056c-.544.193-1.13.3-1.742.3zm-3.484 12.292c0 3.873 3.125 7.023 6.968 7.023s6.968-3.15 6.968-7.023v-5.268H47.032zM9.79 25.186l11.228-4.244a4.835 4.835 0 0 1-.115-.985c0-2.634 2.127-4.778 4.74-4.778h.376a4.712 4.712 0 0 1 4.24 2.641l.237.48 2.14-.719L28.513 5.11 5.687 12.777zm33.758 29.558v2.578h20.904v-2.578l10.699-8.987 8.4-25.4c.04-.126.062-.265.062-.4 0-.699-.563-1.266-1.256-1.266h-.376c-.47 0-.911.274-1.12.699L69.287 42.721l-6.05 4.065h-3.025L54 57.224l-6.212-10.438h-3.026l-6.046-4.067L27.143 19.39a1.265 1.265 0 0 0-1.124-.699h-.376c-.693 0-1.256.567-1.256 1.266 0 .135.023.272.066.41l8.396 25.39zm-5.226 6.09v5.018a6.987 6.987 0 0 0 4.979-5.018zM6.968 65.188c0 .192.064.38.183.529l5.879 7.408h12.263l5.879-7.408a.853.853 0 0 0 .183-.529.84.84 0 0 0-.836-.842h-.297c-.13 0-.26.031-.374.09l-4.062 2.047-1.91-1.925a6.693 6.693 0 0 0-4.715-1.968 6.693 6.693 0 0 0-4.715 1.968l-1.91 1.925-4.062-2.048a.846.846 0 0 0-.374-.09h-.296a.84.84 0 0 0-.836.843zm27.87 25.497c0-5.948-3.365-11.361-8.6-14.048H12.085c-5.235 2.687-8.6 8.1-8.6 14.048 0 8.713 7.032 15.803 15.677 15.803 8.646 0 15.678-7.09 15.678-15.803zm69.678 15.803v-3.512H90.581v-3.512h13.935v-3.512H38.322v3.512h48.775v3.512H38.322v3.512zm-36.58-33.363c0 .968.78 1.756 1.741 1.756 2.881 0 5.226 2.364 5.226 5.268a5.257 5.257 0 0 1-3.484 4.945v3.835h-3.484v-3.835a5.258 5.258 0 0 1-3.483-4.945h3.483c0 .968.78 1.756 1.742 1.756a1.75 1.75 0 0 0 1.742-1.756 1.75 1.75 0 0 0-1.742-1.756c-2.88 0-5.225-2.363-5.225-5.268a5.258 5.258 0 0 1 3.483-4.945v-3.834h3.484v3.834a5.258 5.258 0 0 1 3.484 4.945H71.42a1.75 1.75 0 0 0-1.742-1.756 1.75 1.75 0 0 0-1.742 1.756z"/></g></g></svg>