<svg xmlns="http://www.w3.org/2000/svg" width="187.164" height="151.147"><defs><clipPath id="a"><path data-name="Path 126" d="M45.4-17.22c168.516-1.64 65.193 57.553 65.193 90.84S76.424 133.893 45.4 133.893s-58.5-25.733-58.5-59.021c0-3 13.027-9.011 11.4-12.744-2.853-6.568-14.028 43.3-20.793 35.885C-48.156 69.891-77.432-16.024 45.4-17.22z" transform="translate(45.221 17.253)" fill="#fff"/></clipPath><clipPath id="b"><path data-name="Path 301" d="M491.691 253.269s-.545-5.524.726-8.868c1.208-3.16 5.864-6.164 10.156-6.167a13.132 13.132 0 019.818 5.237c1.665 2.669 1.265 8.942 1.265 8.942l-.791 1.131c-.009.107.012.2 0 .311a19.054 19.054 0 01-4.38 10.055c.548 6.463 3.063 7.212 3.063 7.212s-.711 10.882-9.066 10.586c-8.782-.308-8.266-10.04-8.266-10.04s2.39-1.635 3.359-7.162a18.454 18.454 0 01-4.706-9.961z" transform="translate(-491.575 -238.235)" fill="none"/></clipPath></defs><g data-name="Group 137" transform="translate(-136.779 -3273.364)"><ellipse data-name="Ellipse 44" cx="56" cy="55" rx="56" ry="55" transform="translate(171.031 3314.511)" fill="#fff"/><g data-name="Group 17" transform="translate(136.779 3273.364)" clip-path="url(#a)"><g data-name="Group 172"><g data-name="Group 165"><g data-name="Group 163"><g data-name="Group 160"><path data-name="Path 283" d="M110.322 43.994s-3.693-1.931-6.356-.021c-5 3.59-7.434 32.2-6.439 34.849s5.322 4.612 6.51.889c3.211-10.074 11.622-31.227 6.285-35.717z" fill="#ffbd95"/><path data-name="Path 284" d="M102.687 77.897s-3.113-1.685-4.612.08c-2.808 3.332 2.577 29 3.9 31.372s4.138 1.866 4.153-1.511c.03-9.146.365-26.325-3.441-29.941z" fill="#ffbd95"/><g data-name="Group 159" fill="#ffbd95"><path data-name="Path 285" d="M106.677 109.763c-.992-1.869-3.125-2.633-4.143-.853s-1.363 3.732-.281 6.717 4.318 8.776 5.278 8.186-1.09-3.762-1.321-6.483c-.341-3.959 1.591-5.446.467-7.567z"/><path data-name="Path 286" d="M106.209 113.844c.441 2.053 1.182 3.616 1.662 3.5s.5-1.869.059-3.916-1.188-3.613-1.659-3.5-.509 1.873-.062 3.916z"/></g><path data-name="Path 287" d="M122.114 190.852l-7.789-.731a65.635 65.635 0 00-6.617 5.017 5.192 5.192 0 00-1.768 4.579s6.608 1.629 9.4 0a65.982 65.982 0 016.774-3.255z"/><path data-name="Path 288" d="M128.117 190.852l7.784-.731a65.431 65.431 0 016.623 5.017 5.2 5.2 0 011.768 4.579s-6.611 1.629-9.407 0a65.85 65.85 0 00-6.768-3.255z"/><path data-name="Path 289" d="M140.516 89.905l-15.588.165.049 22.023.943.032 1.76 79.46h10.61l3.335-86.385z" fill="#13589b"/><path data-name="Path 290" d="M109.468 89.905l15.6.165-.06 22.023-.939.032-1.763 79.46h-10.611l-3.336-86.385z" fill="#276eae"/><path data-name="Path 291" d="M116.715 39.85l-11.75 3.525s2.985 26.991 3.922 33.131-.527 21.989-.527 21.989h16.752l-.184-48.867s-7.639 1.187-8.213-9.778z" fill="#53d1ce"/><path data-name="Path 292" d="M132.054 38.875l12.493 4.194s-2.275 27.3-3.2 33.436.276 22.1.276 22.1l-16.512-.116-.184-48.867s8.347.004 7.127-10.747z" fill="#25b2c4"/><path data-name="Path 293" d="M116.329 39.962s3.607-2.461 3.756-11.569c.041-2.458 10.473-2.183 10.417.275-.225 9.759 3.16 10.748 3.16 10.748s-.711 10.882-9.066 10.586c-8.783-.308-8.267-10.04-8.267-10.04z" fill="#ffa47c"/><path data-name="Path 294" d="M134.98 22.149c-.835 7.464-6.374 13.589-10.058 13.589-3.785 0-9.291-6-10.064-13.589-.74-7.179 4.5-13.082 10.064-13.082s10.864 5.908 10.058 13.082z" fill="#ffcaaa"/><path data-name="Path 295" d="M106.147 42.874c-6.753-.379-9.659 25.288-9.659 25.288l11.042 2.876.305-2.681s2.805-25.226-1.688-25.483z" fill="#53d1ce"/><path data-name="Path 296" d="M124.691 6.529c-4.292 0-8.948 3.006-10.156 6.167-1.271 3.344-.726 8.868-.726 8.868l1.425 1.555s.915-6.294 2.387-7.156c.459-.261 3.282-1.679 3.282-1.679s10.319 2 11.344 3.03c1.4 1.4 2.011 5.568 2.011 5.568l1.516-2.174s.4-6.273-1.265-8.942a13.132 13.132 0 00-9.818-5.237z" fill="#8d3b26"/></g><g data-name="Group 173"><path data-name="Rectangle 84" fill="#53d1ce" d="M125.065 81.029l9.59-4.32 4.32 9.588-9.59 4.32z"/><path data-name="Path 297" d="M128.307 77.549a.365.365 0 00-.462-.218.361.361 0 00-.222.462l1.212 3.533a.346.346 0 00.458.214.352.352 0 00.229-.451z" fill="#276eae"/><path data-name="Path 298" d="M130.38 76.551a.359.359 0 00-.458-.214.363.363 0 00-.225.462l1.212 3.536a.358.358 0 00.458.218.357.357 0 00.225-.466z" fill="#276eae"/><path data-name="Path 299" d="M135.328 85.992a.36.36 0 00-.462-.218.35.35 0 00-.214.462l1.208 3.533a.359.359 0 00.458.225.361.361 0 00.229-.458z" fill="#276eae"/><path data-name="Path 300" d="M128.832 85.629a.361.361 0 00.262-.443.358.358 0 00-.44-.262l-3.629.894a.347.347 0 00-.259.432.342.342 0 00.436.251z" fill="#276eae"/></g><g data-name="Group 174"><path data-name="Rectangle 84" fill="#25b2c4" d="M107.283 57.912l9.59-4.32 4.32 9.588-9.59 4.32z"/><path data-name="Path 297" d="M110.525 54.432a.365.365 0 00-.462-.218.361.361 0 00-.222.462l1.212 3.533a.346.346 0 00.458.214.352.352 0 00.229-.451z" fill="#276eae"/><path data-name="Path 298" d="M112.598 53.434a.359.359 0 00-.458-.214.363.363 0 00-.225.462l1.212 3.536a.358.358 0 00.458.218.357.357 0 00.225-.466z" fill="#276eae"/><path data-name="Path 299" d="M117.546 62.875a.36.36 0 00-.462-.218.35.35 0 00-.214.462l1.208 3.533a.359.359 0 00.458.225.361.361 0 00.229-.458z" fill="#276eae"/><path data-name="Path 300" d="M111.05 62.512a.361.361 0 00.262-.443.358.358 0 00-.44-.262l-3.629.894a.347.347 0 00-.259.432.342.342 0 00.436.251z" fill="#276eae"/></g><g data-name="Group 162"><g data-name="Group 161" clip-path="url(#b)" transform="translate(113.693 6.529)"><path data-name="Rectangle 85" fill="#ff4500" opacity=".1" style="mix-blend-mode:color-burn;isolation:isolate" d="M11.418-8.999h32.055v54.912H11.418z"/></g></g></g><path data-name="Path 302" d="M138.62 53.933s1.759 4.019 5.2 4.215c6.463.355 27.335-21.476 28.265-24.311s-1.318-7.289-4.748-5.026c-9.284 6.149-30.127 17.932-28.717 25.122z" fill="#ffa47c"/><path data-name="Path 303" d="M136.976 55.547c1.54 2.411 3.536 6.581 6.116 5.082 7.5-4.357 21.31-14.166 21.31-14.166l-7.286-11.545s-24.351 14.051-20.14 20.629z" fill="#25b2c4"/><path data-name="Path 304" d="M170.276 34.418s2.879-2.358 1.756-4.526c-2.115-4.061-29.239-9.09-32.077-8.737s-3.471 3.267-.2 4.632c8.894 3.683 25.477 10.883 30.521 8.631z" fill="#ffa47c"/><g data-name="Group 164" fill="#ffa47c"><path data-name="Path 305" d="M135.895 23.518c1.389 1.753 3.738 2.133 4.455.095s.7-4.114-.986-7-6.143-8.26-7.017-7.467 1.836 3.687 2.595 6.454c1.11 4.041-.617 5.949.953 7.918z"/><path data-name="Path 306" d="M135.606 19.209c-.847-2.032-1.913-3.513-2.384-3.308s-.169 2.035.678 4.064 1.922 3.516 2.387 3.308.167-2.032-.681-4.064z"/></g></g><g data-name="Group 171"><g data-name="Group 167" fill="#ffa47c"><path data-name="Path 307" d="M77.262 56.682c2.287-3.495 4.037-4.931 8.539-9.522s11.406-11.416 11.406-11.416l2.286 2.159s-4.306 7.541-7.4 12.235c-3.338 5.074-6.374 8.906-9.359 10.3-4.954 2.319-5.472-3.756-5.472-3.756z"/><path data-name="Path 308" d="M54.009 41.864c-3.85 4.733-.77 6.694 8.714 11.658 9.5 4.955 19.267 10.476 21.725 5.7S75.106 51.347 69.888 48s-12.763-9.96-15.879-6.136z"/><g data-name="Group 166"><path data-name="Path 309" d="M99.829 39.399c-2.233.148-4.09-1.339-3.048-3.237 1.025-1.9 2.583-3.279 5.85-3.963s10.245-.977 10.242.2-4.469.72-7.037 2.014c-3.735 1.886-3.489 4.827-6.007 4.986z"/><path data-name="Path 310" d="M105.45 34.897c.93 2.58-.355 4.3-2.787 4.594-2.337.281-4.5.157-5.154-1.531s.6-3.75 2.787-4.594 4.535-.172 5.154 1.531z"/></g></g><path data-name="Path 311" d="M69.437 139.006c.077 3.086-6.243 3.356-7.375 1.653-2.307-3.477-15.2-35.569-16.918-37.141s-3.338-9.842.643-11.856 12.718-6.276 14.649.231 9.001 47.113 9.001 47.113z" fill="#ffa47c"/><path data-name="Path 312" d="M53.097 40.265l5.215 1.857 4.058 8.044z"/><g data-name="Group 168"><path data-name="Path 313" d="M69.471 139.065c-.462-1.718-5.93-2.763-7.784 1.742s-1.564 11.116.841 17.868c2.521 7.082 6.872 18.858 7.354 22.445.853 6.341-1.271 6.084-.012 9.451.583 1.585 4.123 1.656 8.293 2.621 5.026 1.17 7.858 2.752 8.2 1.084.4-1.872-4.644-1.46-10.437-11.1-1.718-2.864-2.343-15.6-3.359-23.526-1.018-7.994-1.696-15.442-3.096-20.585z" fill="#ffa47c"/><path data-name="Path 314" d="M69.822 185.51s-1.588 1.579-.278 4.612a54.747 54.747 0 013.237 8.616l.142.628.989-.222s-1.265-5.408-.548-6.072c.512-.483 1.839 0 3.69 1.152s3.948 3.178 4.629 3.184c1.354.006 8.53-1.327 8.847-2.914.148-.764-5.536-1.881-5.536-1.881s-2.426 1.445-4.185.868-5.277-4.381-7.277-5.747a37.3 37.3 0 00-3.71-2.224z"/></g><path data-name="Path 315" d="M62.903 50.711s-5.98-5.915-8.586-12.093-.814-9.733-.814-9.733l-7.955-.364s1.543 2.177 1.1 7.049-2.266 5.213-2.266 5.213 4.943 5.678 7.671 7.449c6.597 4.286 10.85 2.479 10.85 2.479z" fill="#ffa47c"/><path data-name="Path 316" d="M44.318 140.413c-1.342 2.737-7.079.154-7.313-1.836-.462-4.061 2.722-37.843 1.913-39.985s1.519-10.079 5.983-10.067 14.181.178 12.928 6.72-13.511 45.168-13.511 45.168z" fill="#ffbd95"/><path data-name="Path 317" d="M40.166 12.495c4.066-6.682 13.453-5.971 16.157-2.4 3.388 4.455 2.035 5.755 2.367 6.845 1.217 4.043 2.227 6.664 2.227 6.664l-1.65.56s.278 3.015.533 5.405c.136 1.285-3.22 1.768-6.232 2.574-2.82.755-7.079-.29-8.13-1.078a16.073 16.073 0 01-5.1-7.384c-2.13-6.151-.939-9.925-.172-11.186z" fill="#ffbd95"/><g data-name="Group 169"><path data-name="Path 318" d="M44.516 139.459c.655-1.626-3.1-5.66-7.286-3.214s-7.911 7.8-10.035 14.516c-2.23 7.04-5.805 18.837-7.567 21.932-3.116 5.479-4.668 4.031-5.678 7.407-.477 1.588 2.307 3.729 5.065 6.937 3.323 3.868 4.647 6.78 5.926 5.675 1.434-1.235-2.852-3.883-1.712-14.845.341-3.261 7.482-13.622 11.421-20.443 3.976-6.873 7.9-13.119 9.866-17.965z" fill="#ffbd95"/><path data-name="Path 319" d="M16.945 176.106s-2.21.305-2.985 3.453a52.622 52.622 0 01-2.571 8.663l-.27.578.93.409s2.233-4.985 3.2-5.088c.7-.074 1.478 1.084 2.263 3.071s1.262 4.819 1.807 5.222c1.075.806 7.621 3.975 8.823 2.912.581-.512-3.3-4.724-3.3-4.724s-2.814-.3-3.871-1.783-1.6-6.54-2.384-8.785a35.143 35.143 0 00-1.642-3.928z"/></g><path data-name="Path 320" d="M45.115 40.265c-2.5 1.348-4.318 6.238-3.836 10.067s6.688 14.466 7.171 23.084-5.213 12.262-8.219 17.433c-4.967 8.583-2.165 15.985-2.221 20.742-.047 4.443-.732 10.781-.732 10.781l28.86-1.86s-1.428-15.769-1.907-23.437-1.919-15.8-1.919-24.426 4.324-7.39 5.909-11.717c1.807-4.943-3.933-10.224-5.85-10.766a5.028 5.028 0 01-2.05.583c-2.79-.512-5.225-2.319-7.378-3.809a52.839 52.839 0 01-7.828-6.675z"/><path data-name="Path 321" d="M48.782 45.803c-4.312-4.206-6.717-1.274-13.014 7.855s-13.207 18.494-8.66 21.31 9.247-8.758 13.34-13.743 11.823-12.03 8.334-15.422z" fill="#ffbd95"/><path data-name="Path 322" d="M32.978 69.75c.11 4.286-.509 6.557-1.588 13.127s-2.855 16.48-2.855 16.48l-3.113-.317s-.77-8.841-.906-14.608c-.151-6.237.154-11.27 1.81-14.279 2.751-5.012 6.652-.403 6.652-.403z" fill="#ffbd95"/><path data-name="Path 323" d="M59.678 13.682l-9.659 2.195s-1.964 1.342-.364 7.194 6.122 11.462 6.122 11.462-12.437 1.342-14.628 0-4.271-9.024-4.271-9.024-2.923-13.165 4.754-16.337 12.564-2.438 14.756 0a25.158 25.158 0 013.29 4.51z" fill="#3b0500"/><g data-name="Group 170" fill="#ffbd95"><path data-name="Path 324" d="M24.559 98.91c.815-1.807 2.678-2.672 3.646-1.1s1.359 3.344.509 6.19-3.492 8.447-4.369 7.973.818-3.557.924-6.1c.152-3.694-1.625-4.917-.71-6.963z"/><path data-name="Path 325" d="M25.138 102.65c-.317 1.928-.915 3.433-1.342 3.362s-.515-1.688-.2-3.613.912-3.439 1.345-3.368.514 1.691.197 3.619z"/></g></g></g></g></g></svg>