<svg xmlns="http://www.w3.org/2000/svg" width="117.873" height="141.04"><defs><clipPath id="a"><path data-name="Path 126" d="M28.841-12.276c47.416.933 56.3 35.743 58.963 76.621s-24.2 64.4-54.945 64.4-56.719-24.852-58.713-58.75c0-.1-3.99-15.659-3.988-16.284.063-32.459 11.409-66.917 58.683-65.987z" transform="translate(29.842 12.294)" fill="#fff"/></clipPath></defs><g data-name="Group 111" transform="translate(-152.158 -3278.323)"><ellipse data-name="Ellipse 44" cx="55.5" cy="54.5" rx="55.5" ry="54.5" transform="translate(159.031 3310.362)" fill="#fff"/><g data-name="Mask Group 17" transform="translate(152.158 3278.323)" clip-path="url(#a)"><g data-name="Group 146"><g data-name="Group 141"><path data-name="Path 201" d="M27.441 48.375s-4.411-1.077-6.719 1.616c-4.337 5.066.587 35.792 2.334 38.325s6.824 3.473 7.1-.738c.75-11.432 4.095-35.866-2.715-39.203z" fill="#ffa47c"/><path data-name="Path 202" d="M-1.917 198.446s-1.946 4.277-1.775 6.192a16.432 16.432 0 001.194 4.214l7.417.578.37-.869s7.041 1.086 9.557 1.231c3.149.174 11.745.644 12.879-.789.325-.422-.165-1.718-.581-2.046-2.077-1.644-9.352-2.909-11.609-3.5s-5.713-4.65-5.713-4.65z"/><path data-name="Path 203" d="M17.685 99.14s-19.974-7.258-21.866-4.22-4 7.3-2.647 14.706c.8 4.382 5.551 27.132 4.764 35.509s-.453 54.68-.453 54.68l14.774.06 2.986-55.173z" fill="#1d5383"/><path data-name="Path 204" d="M-3.695 199.828s-1.943 4.277-1.775 6.192a16.394 16.394 0 001.194 4.211l7.42.584.368-.872s7.041 1.089 9.557 1.231c3.149.174 11.745.644 12.879-.786.328-.422-.165-1.715-.578-2.049-2.08-1.644-9.352-2.909-11.611-3.5s-5.713-4.65-5.713-4.65z" fill="#3b0500"/><path data-name="Path 205" d="M15.905 100.522s-19.977-7.257-21.869-4.214-4 7.3-2.644 14.7c.8 4.385 5.551 27.135 4.764 35.512S-4.3 201.2-4.3 201.2l14.777.057 2.98-55.17z" fill="#276eae"/><path data-name="Path 206" d="M30.578 48.868s-4.032-.282-5.961-1.214-5.311-3.627-5.115-3.875a26.606 26.606 0 004.87-11.275c.368-2.251 10.48 3.79 10.252 4.8s-4.22 8.247-4.046 11.564z" fill="#ffa47c"/><path data-name="Path 207" d="M30.632 48.361c-2.82-.046-10.19-3.378-10.69-4.656s-6.847 2.8-9.631 8.443-4.6 30.207-7.263 33.526-9.1 10.859-9.1 10.859l23.305 10.662s4.149-14.418 7.411-22.288 8.2-12.66 9.283-19.447-3.315-17.099-3.315-17.099z" fill="#25b2c4"/><path data-name="Path 208" d="M26.19 18.616c5.853-4.81 14.216-1.157 15.552 2.972 1.67 5.16.02 5.921-.028 7.021-.182 4.089-.094 6.813-.094 6.813l-1.69-.017s-.715 2.847-1.251 5.118c-.282 1.217-3.508.584-6.522.356a12.421 12.421 0 01-7.092-3.585 15.624 15.624 0 01-2.3-8.391c.017-6.309 2.317-9.378 3.425-10.287z" fill="#ffbd95"/><path data-name="Path 209" d="M18.858 49.475s-4.459.858-5.431 4.268c-1.835 6.411 15.438 32.3 18.082 33.871s7.656.313 6.149-3.633c-4.082-10.71-11.217-34.309-18.8-34.506z" fill="#ffbd95"/><path data-name="Path 210" d="M31.259 81.799s-2.5 3.143-.843 5.163c3.117 3.8 32.72 2.952 35.629 1.943s2.918-4.237-.826-4.93c-10.15-1.872-29.159-5.687-33.96-2.176z" fill="#ffbd95"/><path data-name="Path 211" d="M15.784 49.478c-4.157 2.2-5.71 7.474-.35 14.506 2.271 2.983 13.495-4.622 12.777-6.42s-6.657-11.146-12.427-8.086z" fill="#54c9ef"/><path data-name="Path 212" d="M41.988 22.593a6.815 6.815 0 00.3-2.636c-.707-2.693-5.383-5.539-10.372-6.522-6.329-1.239-10.614 6.938-11.358 10.637-.863 4.249 2.043 8.719 2.046 12.4 0 2.043 3.379-1.071 3.379-1.071l2.146-4.77s.105-5.964 3.18-4.351c2.208 1.163.672 4.645.672 4.645l1.168.1s1.261-4.318 2.405-5.418 6.434-3.014 6.434-3.014z" fill="#3b0500"/><path data-name="Path 213" d="M10.296 104.46l1.864.906a10.413 10.413 0 01-4.747 5.9c-3.718 2.037-7.369-.658-7.369-.658l.65-1.861s3.04 2.154 5.673.732a8.259 8.259 0 003.929-5.019z" fill="#276eae"/><g data-name="Group 139" fill="#ffa47c"><path data-name="Path 214" d="M29.276 87.048s-3.342-2.237-5.217-.41c-3.522 3.416-.225 32.845 1.017 35.663s4.465 2.559 4.847-1.234c1.023-10.269 3.251-29.531-.647-34.019z"/><g data-name="Group 138"><path data-name="Path 215" d="M25.156 122.364c-.963-2.177-.157-4.582 2.12-4.243s4.22 1.379 6.1 4.4 4.736 9.87 3.559 10.306-2.562-3.556-4.8-5.642c-3.252-3.046-5.897-2.37-6.979-4.821z"/><path data-name="Path 216" d="M29.068 124.764c1.5 1.809 2.365 3.545 1.929 3.889s-1.983-.855-3.479-2.656-2.365-3.547-1.935-3.881 1.995.85 3.485 2.648z"/></g></g><g data-name="Group 140" fill="#ffbd95"><path data-name="Path 217" d="M66.811 89.817c-2.559-.188-4.439-2.174-2.963-4.169s3.459-3.32 7.292-3.587 11.805.5 11.62 1.846-5.2.114-8.329 1.188c-4.546 1.554-4.731 4.939-7.62 4.722z"/><path data-name="Path 218" d="M73.918 85.584c.655 3.08-1.074 4.827-3.9 4.784-2.7-.048-5.14-.527-5.616-2.553s1.268-4.169 3.892-4.784 5.187.516 5.624 2.553z"/></g></g><g data-name="Group 145"><path data-name="Path 219" d="M70.821 70.66c-1.633-3.465-3.04-5-6.539-9.742s-8.916-11.825-8.916-11.825l-2.351 1.675s2.952 7.391 5.166 12.056c2.382 5.035 4.659 8.907 7.189 10.549 4.209 2.735 5.451-2.713 5.451-2.713z" fill="#ffa47c"/><path data-name="Path 220" d="M93.833 60.155c2.9 4.793-.151 6.18-9.4 9.48s-18.829 7.069-20.462 2.419 9.489-5.964 14.66-8.34 12.862-7.426 15.202-3.559z" fill="#ffa47c"/><g data-name="Group 142"><path data-name="Path 221" d="M101.8 151.404c-.009-1.73 4.83-4.117 7.736-.388s4.331 9.973 3.835 16.906c-.527 7.272-1.539 19.4-1.063 22.869.846 6.146 2.755 5.36 2.456 8.827-.137 1.633-3.425 2.616-7.067 4.6-4.394 2.388-6.633 4.6-7.386 3.132-.855-1.644 3.961-2.567 6.879-13.067.866-3.12-1.849-15.179-2.955-22.847-1.107-7.742-2.409-14.871-2.435-20.032z" fill="#ffa47c"/><path data-name="Path 222" d="M113.5 194.876s1.892 1.063 1.453 4.237a52.978 52.978 0 00-.792 8.887l.031.621-.986.051s-.219-5.383-1.054-5.816c-.607-.316-1.727.482-3.151 2.029s-2.875 3.995-3.5 4.174c-1.262.356-8.315.972-9.024-.433-.339-.675 4.687-3.188 4.687-3.188s2.641.727 4.134-.274 3.8-5.457 5.317-7.246a35.192 35.192 0 012.885-3.042z"/></g><path data-name="Path 223" d="M92.053 56.256l-4.344 3.264-1.5 9.405z" fill="#8b003d"/><g data-name="Group 143"><path data-name="Path 224" d="M106.407 153.213c-.011-1.73 4.833-4.117 7.736-.39s4.334 9.979 3.83 16.908c-.521 7.272-1.536 19.4-1.057 22.869.846 6.146 2.755 5.357 2.459 8.828-.143 1.633-3.425 2.616-7.069 4.6-4.394 2.388-6.633 4.6-7.389 3.132-.852-1.647 3.966-2.567 6.879-13.07.872-3.12-1.846-15.176-2.952-22.844-1.109-7.737-2.412-14.867-2.437-20.033z" fill="#ffbd95"/><path data-name="Path 225" d="M118.104 196.687s1.892 1.066 1.459 4.237a52.728 52.728 0 00-.8 8.887l.029.624-.983.046s-.217-5.377-1.057-5.813c-.6-.316-1.724.479-3.149 2.029s-2.878 3.995-3.5 4.174c-1.262.356-8.315.969-9.024-.43-.339-.678 4.687-3.189 4.687-3.189s2.641.721 4.137-.276 3.79-5.46 5.314-7.246a36.02 36.02 0 012.887-3.043z"/></g><path data-name="Path 226" d="M85.926 68.854s4.058-7.075 4.89-13.515-1.761-9.306-1.761-9.306l7.343-2.4s-.88 2.436.8 6.87 3.465 4.285 3.465 4.285-3.146 6.579-5.232 8.942c-5.063 5.711-9.505 5.124-9.505 5.124z" fill="#ffa47c"/><path data-name="Path 227" d="M97.269 27.275c-5.528-5.186-14.1-2.1-15.717 1.932-2.006 5.038-.41 5.9-.436 7.007-.085 4.089-.35 6.8-.35 6.8l1.684.1s.527 2.889.9 5.186c.205 1.237 3.462.818 6.482.792a12.41 12.41 0 007.317-3.109 15.594 15.594 0 002.852-8.218c.411-6.298-1.683-9.512-2.732-10.49z" fill="#ffbd95"/><path data-name="Path 228" d="M99.839 54.496c2.678.607 5.645 4.707 6.189 8.411s-2.51 15.244-.729 23.419 8.044 10.1 12.187 14.162c6.864 6.73 4.513 13.925 3.567 27.295a265.162 265.162 0 000 28.85H97.309s.912-36.826-.621-44.115-2.3-15.262-4.533-23.32-5.95-5.784-8.554-9.417c-2.966-4.149 1.029-10.568 2.678-11.569a4.878 4.878 0 002.066.011c2.473-1.2 4.286-3.519 5.9-5.465a51.375 51.375 0 005.594-8.262z" fill="#b90051"/><path data-name="Path 229" d="M98.391 59.044c4.183-4.08 6.511-1.234 12.617 7.617s12.8 17.923 8.394 20.658-8.967-8.5-12.931-13.321-11.459-11.663-8.08-14.954z" fill="#ffbd95"/><path data-name="Path 230" d="M115.434 86.563c1.681 3.8 3.16 5.536 6.824 10.842s9.334 13.262 9.334 13.262l2.6-1.567s-2.989-8.07-5.26-13.179c-2.45-5.525-4.807-9.811-7.505-11.76-4.494-3.251-5.993 2.402-5.993 2.402z" fill="#ffbd95"/><path data-name="Path 231" d="M79.349 33.439l9.588-.453s2.191.744 2.2 6.628-2.75 12.29-2.75 12.29 11.965-1.963 13.666-3.784 1.65-9.537 1.65-9.537-.675-13.056-8.668-14.028-12.367.972-13.785 3.818a24.265 24.265 0 00-1.901 5.066z" fill="#3b0500"/><g data-name="Group 144" fill="#ffa47c"><path data-name="Path 232" d="M52.521 52.082c2.006.419 3.884-.7 3.183-2.55s-1.929-3.308-4.816-4.345-9.181-2.194-9.329-1.123 3.969 1.222 6.138 2.733c3.155 2.179 2.556 4.823 4.824 5.285z"/><path data-name="Path 233" d="M47.985 47.279c-1.174 2.225-.225 3.946 1.952 4.525 2.083.553 4.063.718 4.873-.732s-.063-3.476-1.943-4.528-4.104-.733-4.882.735z"/></g><path data-name="Path 234" d="M130.029 113.1a2.673 2.673 0 003.813 2.884 4.054 4.054 0 002.237-5.269c-.841-2.069-3.083-3.975-4.927-2.71-1.174.806-.59 2.501-1.123 5.095z" fill="#ffbd95"/><path data-name="Path 235" d="M106.578 156.632c.4-11.549.8-41.958.37-45.967-.539-4.964-9.127-18.889-10.634-22.4s0-11.056-4.79-7.662a7.422 7.422 0 01-4.987 1.467c2.023.989 4.143 1.809 5.616 7.124 2.231 8.058 2.995 16.037 4.533 23.32s.621 44.115.621 44.115z" fill="#8b003d"/></g></g></g></g></svg>