<svg xmlns="http://www.w3.org/2000/svg" width="117.828" height="141.039"><defs><clipPath id="a"><path data-name="Path 126" d="M28.841-12.276c47.416.933 56.3 35.743 58.963 76.62s-24.2 64.4-54.945 64.4-56.719-24.851-58.713-58.75c0-.1-3.99-15.659-3.988-16.284.063-32.458 11.409-66.916 58.683-65.986z" transform="translate(29.842 12.294)" fill="#fff"/></clipPath></defs><g data-name="Group 153" transform="translate(-152.158 -3278.323)"><ellipse data-name="Ellipse 44" cx="55.5" cy="55" rx="55.5" ry="55" transform="translate(158.702 3309.362)" fill="#fff"/><g data-name="Mask Group 17" transform="translate(152.158 3278.323)" clip-path="url(#a)"><g data-name="Group 158"><path data-name="Path 262" d="M51.542 15.601c.922-2.808 2.31-4.8 5.216-5.286 4.427-.74 7.267 6.024 6.293 13.092-.539 3.888-1.374 6.949-.509 7.5s-3.485 3.594-5.782-.4-.5-8.067-1.309-10.826-3.909-4.08-3.909-4.08z" fill="#8d3b26"/><path data-name="Path 263" d="M37.086 60.957c1.777-3.162 2.188-5.088 3.929-10.393 1.739-5.322 4.242-13.381 4.242-13.381l-2.585-.9s-4.087 6.345-6.473 10.608c-2.582 4.606-4.326 8.494-4.2 11.348.187 4.753 5.087 2.718 5.087 2.718z" fill="#ffa47c"/><path data-name="Path 264" d="M59.321 45.448c3.219 4.22.487 5.833-7.893 9.893S34.407 63.919 32.396 59.7s8.337-6.59 12.967-9.354 11.36-8.307 13.958-4.898z" fill="#ffa47c"/><g data-name="Group 154"><path data-name="Path 265" d="M62.765 129.134c-.014-1.641 4.574-3.9 7.33-.373s4.1 9.457 3.632 16.025c-.5 6.889-1.458 18.382-1.007 21.671.8 5.825 2.612 5.08 2.329 8.364-.128 1.548-3.246 2.479-6.7 4.359-4.163 2.266-6.288 4.361-7 2.968-.805-1.554 3.758-2.43 6.516-12.382.827-2.958-1.749-14.385-2.794-21.652-1.051-7.323-2.284-14.085-2.306-18.98z" fill="#ffa47c"/><path data-name="Path 266" d="M73.851 170.332s1.793 1 1.379 4.013a50.7 50.7 0 00-.756 8.421l.03.593-.931.046s-.2-5.1-1-5.51c-.574-.3-1.638.454-2.985 1.921-1.366 1.472-2.732 3.787-3.322 3.956-1.194.34-7.882.92-8.551-.408-.324-.642 4.438-3.023 4.438-3.023s2.506.688 3.921-.261 3.6-5.172 5.044-6.867a33.3 33.3 0 012.733-2.881z"/></g><g data-name="Group 155"><path data-name="Path 267" d="M75.826 130.717c-.12-1.635 4.3-4.2 7.292-.865 2.974 3.341 4.732 9.158 4.7 15.742-.027 6.905-.2 18.436.468 21.69 1.2 5.757 2.955 4.892 2.895 8.187-.027 1.554-3.069 2.694-6.391 4.8-4 2.544-5.978 4.778-6.78 3.436-.914-1.5 3.583-2.68 5.662-12.8.623-3-2.721-14.232-4.261-21.413-1.545-7.235-3.226-13.893-3.585-18.777z" fill="#ffbd95"/><path data-name="Path 268" d="M89.679 171.072s1.853.882 1.641 3.91a50.063 50.063 0 00-.177 8.451l.068.59-.93.112s-.547-5.072-1.363-5.428c-.6-.264-1.6.563-2.849 2.119s-2.465 3.964-3.045 4.171c-1.17.419-7.8 1.45-8.562.169-.359-.615 4.231-3.314 4.231-3.314s2.541.514 3.891-.525 3.235-5.4 4.56-7.191a34.038 34.038 0 012.535-3.064z"/></g><path data-name="Path 269" d="M49.277 48.693s5.548-6.72 4.628-12.807c-.435-2.9-7.515-6.2-7.515-6.2l7.474-2.854a29.155 29.155 0 015.1 5c2.851 3.472 4.269 3.534 4.269 3.534s-2.985 6.239-4.955 8.473c-4.793 5.412-9.001 4.854-9.001 4.854z" fill="#ffa47c"/><path data-name="Path 270" d="M46.866 11.542c-6.971-1.711-12.616 4.829-12.075 8.911.691 5.093 2.411 5.063 2.9 5.983 1.834 3.42 2.87 5.782 2.87 5.782l1.445-.7s1.771 2.139 3.153 3.861c.748.92 3.238-.939 5.722-2.367a11.745 11.745 0 004.593-5.972 14.747 14.747 0 00-1.475-8.111c-2.59-5.385-5.808-7.07-7.133-7.387z" fill="#ffa47c"/><path data-name="Path 271" d="M62.461 35.087c2.538.577 5.354 4.462 5.866 7.969s2.985 13.185 4.674 20.934 5.531 12.341 9.458 16.183c6.508 6.378 5.643 17.372 7.063 30.573 1.339 12.355 3.572 39.079 3.572 39.079H60.26c3.763-34.793 3.831-54.5 4.108-58.173.541-7.327-2.772-18.412-6.584-25.347s-6.04-6.029-8.508-9.471c-2.816-3.934-1.23-7.8.335-8.75a4.6 4.6 0 001.953.014c2.343-1.137 4.062-3.336 5.594-5.18a48.547 48.547 0 005.303-7.831z" fill="#b90051"/><path data-name="Path 272" d="M34.753 18.673s8.821 3.706 11.055 2.144c3.151-2.209 9.387 7.093 9.387 7.093a13.885 13.885 0 00-1.981-12.537c-4.819-6.606-10.508-5.518-13.65-3.834-6.156 3.297-4.811 7.134-4.811 7.134z" fill="#8d3b26"/><path data-name="Path 273" d="M53.634 16.965a6.368 6.368 0 012.2 5.349 30.62 30.62 0 01-.642 5.6l-4.636-5.471s2.539-1.286 3.078-5.478z" fill="#3b0500"/><g data-name="Group 156" fill="#ffa47c"><path data-name="Path 274" d="M45.488 35.223c.59 1.722-.112 3.474-1.752 3.031s-3-1.393-4.231-3.831-2.957-7.858-2.073-8.089 1.684 2.9 3.208 4.663c2.219 2.572 4.179 2.276 4.848 4.226z"/><path data-name="Path 275" d="M42.749 33.079c-1-1.491-1.545-2.873-1.213-3.1s1.4.808 2.405 2.294 1.545 2.881 1.216 3.1-1.408-.805-2.408-2.294z"/></g><path data-name="Path 276" d="M41.249 60.262c1.371-3.355 1.543-5.325 2.609-10.807 1.05-5.491 2.53-13.8 2.53-13.8l-2.677-.569s-3.268 6.8-5.107 11.335c-1.973 4.895-3.219 8.968-2.74 11.784.792 4.688 5.385 2.057 5.385 2.057z" fill="#ffbd95"/><path data-name="Path 277" d="M60.26 149.825h11.18l-.019-.286s1.9-51.24 0-61.275-12.771-26.476-15.9-28.843 8.225-7.169 8.377-10.478-9.283 2.2-9.558-1.744c-.019-.229-.06-.582-.125-1.023a10.677 10.677 0 01-2.647 1.921 4.6 4.6 0 01-1.953-.014c-1.565.952-3.151 4.816-.335 8.75 2.468 3.442 4.7 2.544 8.508 9.471s7.126 18.02 6.584 25.347c-.282 3.672-.349 23.381-4.112 58.174z" fill="#8b003d"/><path data-name="Path 278" d="M63.718 43.663c3.4 4.078.732 5.806-7.46 10.219-8.209 4.4-16.651 9.286-18.833 5.159s8.045-6.935 12.554-9.9 11.007-8.773 13.739-5.478z" fill="#ffbd95"/><g data-name="Group 157" fill="#ffbd95"><path data-name="Path 279" d="M45.959 33.974c.59 1.722-.109 3.472-1.752 3.028s-3-1.39-4.228-3.831-2.957-7.855-2.076-8.089 1.69 2.9 3.213 4.663c2.222 2.575 4.173 2.281 4.843 4.229z"/><path data-name="Path 280" d="M43.233 31.825c-1-1.486-1.545-2.873-1.216-3.1s1.4.811 2.405 2.3 1.543 2.881 1.213 3.1-1.406-.806-2.402-2.3z"/></g><path data-name="Path 281" d="M62.523 31.426c-2.081.721-3.088-.275-3.888-1.48s.713-10.127-.626-12.181c-1.107-1.7-3.646-1.14-4.5-.9a5.941 5.941 0 011.943 2.811c.811 2.759-.988 6.829 1.309 10.826a3.528 3.528 0 005.768.911z" fill="#3b0500"/><path data-name="Path 282" d="M54.416 17.456a.851.851 0 01-.4 1.137.86.86 0 01-1.091-.517l-1.7-4.084a.854.854 0 01.4-1.137.85.85 0 011.086.514z" fill="#ff8626"/></g></g></g></svg>