<svg xmlns="http://www.w3.org/2000/svg" width="187.451" height="156.489"><defs><clipPath id="a"><path data-name="Path 126" d="M45.556-21.087c166.885-1.624 59.37 60.558 59.37 93.523S77.7 135.371 46.975 135.371-15.15 108.648-15.15 75.682s-106.179-95.145 60.706-96.769z" transform="translate(48.442 21.118)" fill="#fff"/></clipPath></defs><g data-name="Group 124" transform="translate(-133.558 -3269.499)"><ellipse data-name="Ellipse 44" cx="55.472" cy="54.591" rx="55.472" ry="54.591" transform="translate(173.133 3316.806)" fill="#fff"/><g data-name="Mask Group 17" transform="translate(133.558 3269.499)" clip-path="url(#a)"><g data-name="Group 110"><g data-name="Group 103"><path data-name="Path 77" d="M159.385 140.638c.068 2.741-5.54 2.978-6.544 1.469-2.047-3.085-13.487-31.564-15.009-32.959s-2.964-8.731.568-10.518 11.285-5.569 13 .2 7.985 41.808 7.985 41.808z" fill="#ffa47c"/><path data-name="Path 78" d="M144.886 53.023l4.627 1.648 3.6 7.137z"/><g data-name="Group 100"><path data-name="Path 79" d="M159.413 140.69c-.41-1.524-5.259-2.449-6.9 1.548s-1.39 9.863.744 15.855c2.237 6.284 6.1 16.733 6.526 19.916.757 5.627-1.128 5.4-.011 8.386.518 1.4 3.658 1.467 7.359 2.326 4.46 1.035 6.973 2.439 7.28.959.352-1.658-4.123-1.3-9.264-9.848-1.524-2.541-2.079-13.84-2.98-20.875-.909-7.094-1.513-13.702-2.754-18.267z" fill="#ffa47c"/><path data-name="Path 80" d="M159.726 181.902s-1.409 1.4-.247 4.095a48.682 48.682 0 012.873 7.643l.126.56.878-.2s-1.122-4.8-.486-5.39c.455-.426 1.632.005 3.275 1.025s3.5 2.82 4.108 2.823c1.2.008 7.569-1.177 7.85-2.586.134-.675-4.912-1.669-4.912-1.669s-2.152 1.285-3.711.77-4.683-3.887-6.465-5.1a33.152 33.152 0 00-3.289-1.971z"/></g><path data-name="Path 81" d="M153.585 62.29s-5.306-5.248-7.619-10.728-.723-8.639-.723-8.639l-7.059-.321s1.369 1.929.972 6.255-2.01 4.623-2.01 4.623 4.387 5.038 6.807 6.612c5.861 3.804 9.632 2.198 9.632 2.198z" fill="#ffa47c"/><path data-name="Path 82" d="M137.096 141.888c-1.191 2.426-6.281.137-6.486-1.629-.413-3.606 2.413-33.58 1.7-35.48s1.348-8.944 5.311-8.933 12.581.158 11.469 5.963-11.994 40.079-11.994 40.079z" fill="#ffbd95"/><path data-name="Path 83" d="M133.411 28.382c3.608-5.929 11.937-5.3 14.336-2.137 3.009 3.953 1.808 5.106 2.1 6.076 1.08 3.587 1.976 5.913 1.976 5.913l-1.464.5s.247 2.675.473 4.8c.121 1.138-2.857 1.566-5.53 2.284a11.384 11.384 0 01-7.214-.959 14.243 14.243 0 01-4.52-6.552c-1.894-5.457-.837-8.805-.157-9.925z" fill="#ffbd95"/><g data-name="Group 101"><path data-name="Path 84" d="M137.272 141.042c.581-1.445-2.749-5.025-6.465-2.854s-7.02 6.925-8.9 12.88c-1.979 6.247-5.151 16.718-6.715 19.464-2.765 4.859-4.142 3.577-5.038 6.573-.423 1.409 2.047 3.306 4.494 6.155 2.949 3.432 4.124 6.016 5.259 5.035 1.272-1.1-2.531-3.445-1.519-13.175.3-2.894 6.641-12.087 10.134-18.137 3.522-6.101 7.005-11.639 8.75-15.941z" fill="#ffbd95"/><path data-name="Path 85" d="M112.81 173.557s-1.961.273-2.649 3.067a46.77 46.77 0 01-2.281 7.687l-.239.51.825.363s1.982-4.423 2.836-4.515c.623-.063 1.311.965 2.01 2.728s1.117 4.276 1.6 4.633c.954.712 6.762 3.524 7.829 2.583.515-.455-2.928-4.194-2.928-4.194s-2.5-.26-3.435-1.58-1.419-5.8-2.116-7.8a30.5 30.5 0 00-1.452-3.482z"/></g><path data-name="Path 86" d="M137.803 53.024c-2.218 1.193-3.832 5.532-3.4 8.933s5.934 12.833 6.363 20.481-4.626 10.88-7.293 15.472c-4.407 7.614-1.921 14.181-1.971 18.4-.042 3.94-.649 9.564-.649 9.564l25.608-1.65s-1.267-13.99-1.692-20.794-1.7-14.026-1.7-21.674 3.837-6.56 5.243-10.4c1.6-4.386-3.49-9.072-5.191-9.551a4.467 4.467 0 01-1.816.515c-2.478-.452-4.639-2.055-6.549-3.38a46.788 46.788 0 01-6.953-5.916z"/><path data-name="Path 87" d="M141.056 57.938c-3.827-3.735-5.958-1.13-11.545 6.97s-11.718 16.407-7.688 18.907 8.205-7.771 11.837-12.192 10.492-10.676 7.396-13.685z" fill="#ffbd95"/><path data-name="Path 88" d="M125.461 83.128c-1.538 3.477-2.9 5.067-6.255 9.926s-8.541 12.134-8.541 12.134l-2.378-1.435s2.736-7.385 4.815-12.063c2.247-5.059 4.4-8.978 6.873-10.765 4.106-2.974 5.486 2.203 5.486 2.203z" fill="#ffbd95"/><path data-name="Path 89" d="M150.728 29.433l-8.57 1.95s-1.742 1.188-.323 6.381 5.432 10.174 5.432 10.174-11.036 1.188-12.98 0-3.787-8.008-3.787-8.008-2.6-11.682 4.216-14.5 11.149-2.163 13.093 0a22.373 22.373 0 012.919 4.003z" fill="#3b0500"/></g><g data-name="Group 104"><path data-name="Path 92" d="M80.83 184.709s-2.78 3.277-3.1 5.009a14.517 14.517 0 000 4.005l6.394 2.357.536-.67s5.858 3.02 8.118 3.461c2.66.518 11.251 0 11.251 0s.289-1.553 0-1.947c-1.427-1.966-7.233-2.378-9.067-3.461s-3.879-5.522-3.879-5.522z" fill="#3b0500"/><path data-name="Path 93" d="M128.749 187.08s-.389 4.284.336 5.884a15.121 15.121 0 002.3 3.28l6.594-1.745.055-.859s6.41-1.193 8.631-1.827c2.773-.8 10.339-3 10.883-4.573.16-.463-.657-1.438-1.114-1.6-2.294-.791-8.965.31-11.091.486s-6.344-2.289-6.344-2.289z" fill="#3b0500"/><path data-name="Path 94" d="M115.657 95.352s-19.451-.234-20.171 2.965-1.24 7.519 2.16 13.506c2.018 3.543 13 21.764 14.851 29.241s16.142 47.38 16.142 47.38l12.783-4.415-14.1-48.57z" fill="#1d5383"/><path data-name="Path 95" d="M112.697 46.033a20.322 20.322 0 01-5.519.757c-1.945-.215-5.687-1.532-5.587-1.806a24.3 24.3 0 00.791-11.214c-.357-2.058 10.2.108 10.315 1.046s-1.157 8.402 0 11.217z" fill="#ffa47c"/><path data-name="Path 96" d="M117.698 101.111s-17.724-8.192-19.932-5.748c-2.286 2.531-4.439 6.229-3.958 13.112.284 4.076 3.727 25.737.715 32.833-3.813 8.975-15.088 44.2-15.088 44.2l12.539 3.288 18.544-46.066z" fill="#276eae"/><path data-name="Path 97" d="M112.613 45.832c-2.452.812-9.824.158-10.647-.794s-5.067 4.494-5.763 10.208 5.156 27.49 3.855 31.167-4.579 12.133-4.579 12.133l22.218 2.565s.365-14.11.807-21.9 3.256-13.417 2.142-19.608-8.033-13.771-8.033-13.771z" fill="#25b2c4"/><path data-name="Path 98" d="M100.72 20.404c4.573-5.551 13.014-3.685 15.015-.087 2.5 4.494 1.1 5.5 1.256 6.531.583 3.837 1.156 6.355 1.156 6.355l-1.566.294s-.147 2.778-.221 4.983c-.045 1.188-3.157 1.188-6 1.532a11.719 11.719 0 01-7.251-2.037 14.757 14.757 0 01-3.679-7.38c-1.148-5.868.428-9.143 1.29-10.191z" fill="#ffbd95"/><path data-name="Path 99" d="M107.309 50.974s-2.76-3.1-5.9-2.273C95.501 50.262 83.23 75.963 83.23 78.777s3.333 6.173 5.74 3.138c6.51-8.221 21.735-24.883 18.339-30.941z" fill="#ffbd95"/><path data-name="Path 100" d="M87.048 75.953s-3.64.52-3.811 2.9c-.313 4.486 19.913 22.536 22.483 23.7s4.6-.986 2.549-3.8c-5.577-7.621-15.823-22.11-21.221-22.8z" fill="#ffbd95"/><path data-name="Path 101" d="M105.865 48.56c-3.679-2.237-8.549-.993-11.577 6.515-1.277 3.183 9.955 8.449 11.041 7.043s5.649-10.45.536-13.558z" fill="#54c9ef"/><path data-name="Path 102" d="M116.736 22.288a5.814 5.814 0 00-.355-2.36c-1.306-2.189-6.279-3.635-11.078-3.382-6.1.315-8.053 8.373-7.842 11.758.237 3.884 3.971 7.133 4.87 10.339.491 1.774 2.833-1.679 2.833-1.679l.809-4.626s-1.338-5.212 1.866-4.484c2.3.52 1.74 3.892 1.74 3.892l1.1-.176s.115-4.034.888-5.246 5.169-4.036 5.169-4.036z" fill="#3b0500"/><path data-name="Path 103" d="M108.836 99.897l3.246 1.871s.163 2.883-.991 4.252-3.958 1.29-3.958 1.29-.478-4.234-.917-4.557 2.62-2.856 2.62-2.856z" fill="#ffbd95"/><path data-name="Path 104" d="M112.105 100.498l1.884.221a9.553 9.553 0 01-2.318 6.526c-2.6 2.883-6.57 1.658-6.57 1.658v-1.8s3.277.943 5.127-1.08a7.589 7.589 0 001.877-5.525z" fill="#13589b"/></g><g data-name="Group 152"><g data-name="Group 147"><path data-name="Path 236" d="M65.759 139.842c.644-5.059 5.151-4.856 7.881-1.817s6.454 8.192 7.914 13.121 1.652 13.913 4.191 20.058 5.69 9.8 6.359 11.215a3.385 3.385 0 01-1.407 4.09c-1.781 1.077-3.446-.321-4.319-2.2-1.377-2.98-2.2-6.9-4.886-11.678s-4.728-7.642-10.375-18.979c-5.053-10.149-5.358-13.81-5.358-13.81z" fill="#ffbd95"/><path data-name="Path 237" d="M86.025 183.609s2.435 6.609 5.436 5.833 2.005-5.438-.389-8.843c0 0 1.641 4.27-.728 5.219-2.297.918-4.319-2.209-4.319-2.209z"/></g><path data-name="Path 238" d="M38.175 33.67c-.153-2.848.394-5.133 2.85-6.578 3.718-2.211 8.637 2.883 10.225 9.584.875 3.687 1.2 6.734 2.168 6.927s-1.886 4.453-5.342 1.657-3.273-7.085-4.962-9.281-4.939-2.309-4.939-2.309z" fill="#8d3b26"/><path data-name="Path 239" d="M28.625 66.455c-.079-3.5-.687-5.3-1.858-10.569s-3.072-13.192-3.072-13.192l-2.586.529s-.272 7.278-.15 11.994c.127 5.095.6 9.177 2.1 11.485 2.504 3.853 5.566-.247 5.566-.247z" fill="#ffa47c"/><path data-name="Path 240" d="M50.383 53.291c3.112 4.072.473 5.634-7.614 9.551s-16.427 8.278-18.366 4.207 8.042-6.36 12.51-9.029 10.97-8.022 13.47-4.729z" fill="#ffa47c"/><g data-name="Group 148"><path data-name="Path 241" d="M48.362 137.135c-.051-1.578 4.313-3.883 7.064-.552s4.212 9.016 3.929 15.361c-.3 6.657-.924 17.771-.4 20.936.929 5.6 2.657 4.83 2.469 8.006-.087 1.5-3.061 2.479-6.347 4.385-3.96 2.293-5.95 4.375-6.675 3.049-.822-1.481 3.56-2.446 5.96-12.121.72-2.873-2.069-13.829-3.27-20.812-1.208-7.044-2.574-13.531-2.73-18.252z" fill="#ffa47c"/><path data-name="Path 242" d="M60.15 176.588s1.756.921 1.44 3.835a48.756 48.756 0 00-.509 8.143l.043.57-.9.066s-.336-4.909-1.11-5.288c-.562-.275-1.568.489-2.827 1.939s-2.532 3.723-3.1 3.9c-1.145.361-7.576 1.1-8.26-.165-.328-.613 4.2-3.028 4.2-3.028s2.433.59 3.774-.361 3.334-5.082 4.68-6.757a33.366 33.366 0 012.569-2.854z"/></g><path data-name="Path 243" d="M42.832 59.775s2.044-5.884.433-10.525c-.916-2.642-8.093-2.583-8.093-2.583l5.662-4.362s4.54.293 7.51 2.812c3.308 2.8 4.634 3.036 4.634 3.036s-2.881 6.021-4.787 8.179c-4.626 5.225-5.359 3.443-5.359 3.443z" fill="#ffbd95"/><path data-name="Path 244" d="M32.551 31.65c-6.874.9-9.67 8.749-7.757 12.23 2.4 4.344 3.937 3.718 4.7 4.372 2.843 2.438 4.6 4.2 4.6 4.2l1.043-1.132s2.349 1.3 4.191 2.372c.99.573 2.588-1.972 4.321-4.123a11.375 11.375 0 002.049-6.98 14.255 14.255 0 00-4.153-6.782c-4.207-3.944-7.694-4.328-8.994-4.157z" fill="#ffbd95"/><g data-name="Group 149" fill="#ffa47c"><path data-name="Path 245" d="M24.265 43.162c-1.214 1.27-3.026 1.451-3.374-.153s-.148-3.189 1.4-5.326 5.408-6.034 5.993-5.382-1.725 2.738-2.56 4.83c-1.217 3.044-.09 4.586-1.459 6.031z"/><path data-name="Path 246" d="M24.883 39.865c.832-1.517 1.774-2.6 2.112-2.42s-.066 1.563-.893 3.082-1.779 2.611-2.115 2.423.066-1.568.896-3.085z"/></g><path data-name="Path 247" d="M24.143 42.294s9.225.26 10.691-1.932c2.064-3.087 10.92 3.107 10.92 3.107a13.385 13.385 0 00-6.156-10.586c-6.639-4.26-11.375-1.3-13.62 1.316-4.39 5.113-1.835 8.095-1.835 8.095z" fill="#8d3b26"/><g data-name="Group 150"><path data-name="Path 248" d="M51.042 70.894c5.756-2.756 10.22 19.017 10.4 20.272s-.178 10.21 0 15.546-.5 22.906 11.811 51.149l-25.138.758c-.86-9.8-1.02-15.02-.478-22.132 1.384-18.216 6.242-31.462 6.431-34.007.527-7.077 1.27-17.231-2.415-23.926s-6.008-4.822-8.385-8.148a9.425 9.425 0 01-1.451-3.275l.005.028c.063.118 3.522 6.465 9.22 3.735z" fill="#8b003d"/><path data-name="Path 249" d="M41.488 63.761c-.01.2-.008.4-.005.611-.002-.211-.005-.41.005-.611z" fill="#b90051"/><path data-name="Path 250" d="M41.516 65.165c.015.216.028.433.059.651-.031-.218-.044-.432-.059-.651z" fill="#b90051"/><path data-name="Path 251" d="M42.362 60.282a3.975 3.975 0 00-.125.219c.041-.074.081-.15.125-.219z" fill="#b90051"/><path data-name="Path 252" d="M41.961 61.117a3.113 3.113 0 00-.109.308c.033-.115.071-.204.109-.308z" fill="#b90051"/><path data-name="Path 253" d="M41.608 62.476c-.02.117-.025.249-.043.372.018-.125.023-.255.043-.372z" fill="#b90051"/><path data-name="Path 254" d="M41.516 65.165a13.52 13.52 0 01-.033-.794c0-.209-.005-.412.005-.611.013-.318.038-.616.076-.914.018-.122.023-.255.043-.372a7.182 7.182 0 01.244-1.051 3.1 3.1 0 01.109-.308 4.06 4.06 0 01.275-.616c.038-.071.081-.15.125-.219a1.756 1.756 0 01.471-.506 36.554 36.554 0 004.639-3.135c2.911-2.535 4.751-8.759 4.751-8.759 2.456.562 5.782 4.466 7.057 7.645 1.288 3.2 5.947 11.777 7.576 19.259s2.952 13.505 5.629 16.595c8.283 9.563 2.634 14.913 2.527 30.826-.089 12.673 10.528 35.282 10.528 35.282l-12.289.374c-12.312-28.243-11.63-45.807-11.811-51.149s.181-14.292 0-15.546-4.642-23.028-10.4-20.272c-5.7 2.731-9.156-3.614-9.222-3.736l-.005-.028a11.314 11.314 0 01-.239-1.313c-.028-.219-.04-.435-.056-.652z" fill="#b90051"/></g><path data-name="Path 255" d="M72.024 67.201c.692 3.425 1.613 5.092 3.692 10.067s5.354 12.439 5.354 12.439l2.448-.97s-1.02-7.212-1.965-11.841c-1.028-4.983-2.211-8.927-4.1-10.925-3.144-3.348-5.429 1.23-5.429 1.23z" fill="#ffa47c"/><path data-name="Path 256" d="M51.17 55.385c1.527-4.891 4.324-3.639 12.195.692 7.869 4.347 16.246 8.624 14.052 12.561s-9.838-2.888-14.6-5-12.883-4.303-11.647-8.253z" fill="#ffbd95"/><g data-name="Group 151" fill="#ffa47c"><path data-name="Path 257" d="M84.659 88.211c-.886-1.517-2.611-2.1-3.321-.623s-.87 3.072.15 5.51 3.891 7.1 4.614 6.6-1.061-3.054-1.4-5.281c-.483-3.242.965-4.491-.043-6.206z"/><path data-name="Path 258" d="M84.511 91.557c.461 1.674 1.135 2.937 1.509 2.84s.29-1.54-.17-3.2-1.143-2.947-1.5-2.843c-.381.103-.299 1.539.161 3.203z"/></g><path data-name="Path 259" d="M40.784 34.098a6.141 6.141 0 013.789 4.1c1.094 3.349 1.6 5.543 1.6 5.543l-6.718-3.654s2.258-2.014 1.329-5.989z" fill="#3b0500"/><path data-name="Path 260" d="M53.607 44.114c-1.641 1.359-2.886.794-4.016-.023s-2.774-9.4-4.672-10.8c-1.573-1.16-3.682.2-4.375.7a5.707 5.707 0 012.7 1.886c1.662 2.224 1.415 6.51 4.838 9.35a3.409 3.409 0 005.527-1.122z" fill="#3b0500"/><path data-name="Path 261" d="M42.652 33.583a.827.827 0 01.26 1.135.833.833 0 01-1.161.137l-3.5-2.461a.827.827 0 01-.252-1.132.82.82 0 011.15-.143z" fill="#ff8626"/></g></g></g></g></svg>