<svg xmlns="http://www.w3.org/2000/svg" width="188.226" height="148.528"><defs><clipPath id="a"><path data-name="Path 126" d="M45.638-17.22c165.161-1.607 63.9 56.407 63.9 89.032s-33.49 59.072-63.9 59.072-61.483-26.448-61.483-59.072-103.678-87.425 61.483-89.032z" transform="translate(47.969 17.253)" fill="#fff"/></clipPath></defs><g data-name="Group 113" transform="translate(-134.031 -3273.364)"><ellipse data-name="Ellipse 44" cx="55" cy="54.5" rx="55" ry="54.5" transform="translate(172.418 3312.892)" fill="#fff"/><g data-name="Group 17" transform="translate(134.031 3273.364)" clip-path="url(#a)"><g data-name="Group 123"><g data-name="Group 121"><path data-name="Path 127" d="M66.047 159.35c.717 2.917 6.694 1.529 7.309-.357 1.259-3.848 5-37.188 6.2-39.1s.574-10.061-3.678-10.913-13.5-2.574-13.631 4.011 3.8 46.359 3.8 46.359z" fill="#ffa47c"/><g data-name="Group 118"><path data-name="Path 128" d="M66.011 159.423c-.006-1.734 4.84-4.12 7.745-.386s4.334 9.976 3.833 16.916c-.521 7.271-1.537 19.408-1.057 22.878.846 6.152 2.758 5.364 2.457 8.834-.138 1.634-3.429 2.621-7.069 4.6-4.4 2.4-6.641 4.609-7.4 3.136-.852-1.646 3.962-2.571 6.884-13.08.875-3.124-1.848-15.186-2.96-22.857-1.106-7.74-2.403-14.879-2.433-20.041z" fill="#ffa47c"/><path data-name="Path 129" d="M77.721 202.921s1.892 1.069 1.449 4.24a53.955 53.955 0 00-.788 8.9l.029.618-.978.053s-.225-5.382-1.069-5.818c-.6-.316-1.719.483-3.142 2.029s-2.881 4-3.508 4.178c-1.268.357-8.325.966-9.028-.433-.334-.673 4.688-3.186 4.688-3.186s2.641.72 4.14-.278 3.792-5.458 5.321-7.256a35.483 35.483 0 012.886-3.047z"/></g><path data-name="Path 130" d="M70.651 161.169c.723 2.908 6.7 1.526 7.323-.366 1.25-3.845 4.987-37.185 6.19-39.1s.577-10.061-3.669-10.913-13.514-2.571-13.639 4.014 3.795 46.365 3.795 46.365z" fill="#ffbd95"/><g data-name="Group 119"><path data-name="Path 131" d="M70.624 161.239c-.009-1.733 4.832-4.123 7.742-.4 2.893 3.733 4.334 9.988 3.839 16.922-.524 7.274-1.54 19.408-1.06 22.881.84 6.149 2.755 5.364 2.454 8.837-.141 1.631-3.429 2.612-7.066 4.6-4.4 2.392-6.644 4.606-7.394 3.133-.855-1.643 3.965-2.565 6.881-13.077.867-3.115-1.856-15.185-2.958-22.857-1.106-7.741-2.412-14.871-2.438-20.039z" fill="#ffbd95"/><path data-name="Path 132" d="M82.333 204.737s1.9 1.06 1.455 4.24a53.49 53.49 0 00-.8 8.887l.035.63-.987.047s-.217-5.382-1.051-5.815c-.606-.322-1.728.477-3.157 2.026s-2.873 4-3.505 4.178c-1.262.36-8.319.969-9.027-.43-.337-.682 4.694-3.195 4.694-3.195s2.641.729 4.134-.278c1.494-.99 3.8-5.455 5.315-7.241a35.927 35.927 0 012.894-3.049z"/></g><path data-name="Path 133" d="M70.407 61.836c5.031 2.987 2.89 5.976-4.073 14.172S52.34 93.033 48.547 89.496s5.871-10.872 9.508-15.959 8.292-14.105 12.352-11.701z" fill="#ffa47c"/><path data-name="Path 134" d="M71.812 60.328l-5.059 1.8-3.932 7.8z" fill="#8b003d"/><path data-name="Path 135" d="M62.307 70.46s5.795-5.739 8.322-11.733.791-9.437.791-9.437l7.721-.351s-1.5 2.111-1.063 6.84 2.2 5.051 2.2 5.051-4.791 5.508-7.435 7.227C66.43 72.22 62.307 70.46 62.307 70.46z" fill="#ffa47c"/><path data-name="Path 136" d="M84.357 33.396c-3.941-6.48-13.042-5.792-15.677-2.334-3.28 4.322-1.968 5.587-2.293 6.638-1.168 3.927-2.149 6.468-2.149 6.468l1.6.542s-.264 2.928-.512 5.241c-.132 1.25 3.116 1.71 6.038 2.5a12.454 12.454 0 007.883-1.055 15.638 15.638 0 004.949-7.162c2.066-5.955.91-9.616.161-10.838z" fill="#ffbd95"/><path data-name="Path 137" d="M79.557 60.328c2.427 1.306 4.187 6.05 3.725 9.766s-6.489 14.029-6.957 22.389 5.054 11.894 7.962 16.91c4.826 8.325 1.1 13.44-.463 26.761-1.426 12.2-1.488 21.859-1.488 21.859h-20.09s-1.7-35.144-1.233-42.581 1.862-15.329 1.862-23.689-4.195-7.17-5.73-11.37c-1.754-4.8 3.815-9.921 5.675-10.445a4.813 4.813 0 001.988.565c2.706-.495 5.069-2.249 7.151-3.693a50.679 50.679 0 007.598-6.472z" fill="#b90051"/><path data-name="Path 138" d="M76.749 152.15c.328-5.865 6.079-28.321 6.275-34.918s-9.616-13-11.212-17.9 3.107-18.084 6.392-23.46a66.119 66.119 0 004.682-10.345 12.022 12.022 0 01.4 4.568c-.463 3.719-6.489 14.029-6.957 22.389s5.054 11.894 7.962 16.91c4.826 8.325 1.1 13.44-.463 26.761-1.426 12.2-1.488 21.859-1.488 21.859h-5a23.645 23.645 0 01-.591-5.864z" fill="#8b003d"/><path data-name="Path 139" d="M80.381 64.436c4.937 3.136 2.706 6.058-4.506 14.043s-14.5 16.591-18.184 12.937 6.208-10.691 10-15.666 8.698-13.841 12.69-11.314z" fill="#ffbd95"/><path data-name="Path 140" d="M61.42 89.361c-.155-2.424-1.294-4.2-3.06-6.978a34.83 34.83 0 01-2.916-5.716s-1.5.111-1.786.463c-1.306 1.575-.316 4.758.389 8.155.726 3.529 2.881 5.974 4.448 6.738 2.63 1.291 2.993-1.676 2.925-2.662z" fill="#ffbd95"/><path data-name="Path 141" d="M49.066 85.994c1.889-1.531 3.968-1.909 7.195-2.5a35.627 35.627 0 006.178-1.751s.931 1.165.867 1.622c-.266 2.026-3.265 3.464-6.234 5.265-3.075 1.865-6.331 1.95-7.973 1.324-2.724-1.053-.8-3.334-.033-3.96z" fill="#ffbd95"/><path data-name="Path 142" d="M65.429 34.543l9.367 2.132s1.915 1.3.351 6.978-5.941 11.121-5.941 11.121 12.064 1.3 14.193 0 4.141-8.761 4.141-8.761 2.839-12.767-4.612-15.849-12.181-2.363-14.3 0a24.55 24.55 0 00-3.199 4.379z" fill="#3b0500"/><g data-name="Group 120"><path data-name="Path 143" d="M62.946 85.247c-1.531 1.171-3.514 1.063-3.634-.723s.381-3.481 2.407-5.534 6.864-5.616 7.385-4.811-2.328 2.673-3.575 4.791c-1.825 3.085-.864 4.942-2.583 6.277z" fill="#ffbd95"/></g></g><g data-name="Group 122"><path data-name="Path 144" d="M110.781 53.432c-6.451 3.675-4.091 7.2 3.716 16.811s15.639 20 20.614 15.68-6.228-12.831-10.231-18.819-8.896-16.647-14.099-13.672z" fill="#ffa47c"/><path data-name="Path 145" d="M102.189 206.979s-1.944 4.275-1.771 6.19a16.2 16.2 0 001.195 4.214l7.423.586.366-.873s7.045 1.089 9.569 1.233c3.148.179 11.748.638 12.884-.791.322-.416-.167-1.713-.583-2.05-2.082-1.643-9.358-2.911-11.616-3.505s-5.716-4.65-5.716-4.65z"/><path data-name="Path 146" d="M121.811 107.612s-19.992-7.265-21.892-4.226-4 7.312-2.647 14.717c.8 4.386 5.558 27.15 4.77 35.527s-.457 54.719-.457 54.719l14.784.059 2.99-55.2z" fill="#13589b"/><path data-name="Path 147" d="M100.417 208.362s-1.95 4.281-1.777 6.193a16.208 16.208 0 001.189 4.214l7.426.586.369-.87s7.048 1.086 9.566 1.23c3.145.17 11.757.638 12.887-.791.325-.416-.167-1.716-.58-2.047-2.088-1.646-9.359-2.913-11.619-3.508s-5.719-4.653-5.719-4.653z" fill="#3b0500"/><path data-name="Path 148" d="M120.027 108.996s-19.985-7.268-21.882-4.228-4 7.312-2.641 14.72c.8 4.387 5.546 27.15 4.764 35.528s-.454 54.716-.454 54.716l14.781.059 2.99-55.2z" fill="#276eae"/><path data-name="Path 149" d="M115.328 51.121a22.324 22.324 0 01-6.029.832c-2.135-.237-6.214-1.678-6.111-1.974a26.569 26.569 0 00.867-12.263c-.4-2.246 11.156.12 11.274 1.142s-1.257 9.189-.001 12.263z" fill="#ffa47c"/><path data-name="Path 150" d="M115.211 50.629c-2.685.884-10.741.173-11.637-.87s-5.54 4.911-6.3 11.153 5.646 30.058 4.217 34.081-5.681 13.1-5.681 13.1l26.632 2.949s-.123-14.884-.785-23.932c-.624-8.512 3.561-14.664 2.342-21.431s-8.788-15.05-8.788-15.05z" fill="#25b2c4"/><path data-name="Path 151" d="M101.182 24.001c3.944-6.48 13.045-5.795 15.669-2.334 3.288 4.322 1.977 5.584 2.287 6.644 1.186 3.921 2.167 6.462 2.167 6.462l-1.6.548s.26 2.922.512 5.236c.126 1.25-3.121 1.713-6.044 2.5a12.409 12.409 0 01-7.889-1.045 15.666 15.666 0 01-4.946-7.159c-2.062-5.968-.9-9.631-.156-10.852z" fill="#ffbd95"/><path data-name="Path 152" d="M117.421 22.544a6.848 6.848 0 00-.586-2.592c-1.567-2.307-6.925-3.458-11.953-2.732-6.389.919-7.73 10.052-7.218 13.795.594 4.3 4.811 7.561 6.038 11.039.673 1.927 2.834-2.126 2.834-2.126l.445-5.215s-1.868-5.666 1.567-5.157c2.465.36 2.17 4.158 2.17 4.158l1.139-.293s-.234-4.495.474-5.915 5.09-4.962 5.09-4.962z" fill="#3b0500"/><path data-name="Path 153" d="M114.546 110.329l2.056.237a10.461 10.461 0 01-2.536 7.142c-2.84 3.154-7.171 1.813-7.171 1.813v-1.974s3.578 1.031 5.6-1.183a8.281 8.281 0 002.051-6.035z" fill="#13589b"/><path data-name="Path 154" d="M103.908 55.323c-6.626 3.364-4.149 7.338 4 18.325s16.339 22.769 21.431 18.585-6.541-14.284-10.735-21.042-9.341-18.591-14.696-15.868z" fill="#ffbd95"/><path data-name="Path 155" d="M124.75 89.597c.372-2.667 1.924-4.462 4.34-7.256a34.31 34.31 0 004.07-5.88s1.859.349 2.2.791c1.531 1.947.059 5.318-1.06 8.975a10.294 10.294 0 01-6.082 6.77c-3.377 1.031-3.623-2.316-3.468-3.4z" fill="#ffbd95"/><path data-name="Path 156" d="M134.419 80.661c-2.77-1.6-5.569-1.643-9.918-1.725a46.457 46.457 0 01-8.43-.96s-.987 1.722-.808 2.307c.753 2.58 4.978 3.812 9.218 5.526 4.4 1.777 8.679 1.183 10.7.023 3.355-1.962.374-4.518-.762-5.171z" fill="#ffbd95"/><path data-name="Path 157" d="M104.137 54.67c-4.413 1.666-6.618 6.7-2.2 14.357 1.874 3.247 13.985-2.878 13.5-4.75s-5.186-11.905-11.3-9.607z" fill="#54c9ef"/></g></g></g></g></svg>