<svg xmlns="http://www.w3.org/2000/svg" width="186.268" height="151.147"><defs><clipPath id="a"><path data-name="Path 126" d="M46.906-17.22c167.4-1.629 57.069 52.3 57.069 85.363s-21.331 65.34-56.391 65.218-59.7-27.492-59.7-60.559-108.377-88.393 59.022-90.022z" transform="translate(47.969 17.253)" fill="#fff"/></clipPath><clipPath id="b"><path data-name="Path 177" d="M165.054 246.224a12.292 12.292 0 00-9.192-4.907c-4.021.005-8.382 2.819-9.511 5.78-1.194 3.125-.683 8.3-.683 8.3l1.1 1.2a17.311 17.311 0 004.232 9.131c-.725 5.508-3.164 6.84-3.164 6.84s.472 9.669 8.728 9.716c7.857.037 8.14-10.534 8.14-10.534s-2.629-.361-3.459-6.217a17.829 17.829 0 004.256-9.587c.011-.1-.005-.192 0-.29l.738-1.06s.376-5.878-1.185-8.372z" transform="translate(-145.56 -241.317)" fill="none"/></clipPath><clipPath id="c"><path data-name="Path 200" d="M195.95 267.79s2.805-16.8-1.231-21.215c-4.366-4.77-8.817-1.664-8.817-1.664s-3.573-2.117-6.616 1.98c-6 8.063-.728 20.369-.728 20.369l3.457.53s-.124-.4-.306-1.039l1.366.008c-.546 4.641-2.5 5.819-2.5 5.819s0 6.958 6.2 7.18c5.893.211 6.186-7.164 6.186-7.164s-2.02-.728-2.341-5.78l2.4.013c-.116.6-.192.962-.192.962z" transform="translate(-176.418 -243.917)" fill="none"/></clipPath></defs><g data-name="Group 125" transform="translate(-135.38 -3272.361)"><ellipse data-name="Ellipse 44" cx="55.5" cy="55" rx="55.5" ry="55" transform="translate(172.76 3313.508)" fill="#fff"/><g data-name="Group 17" transform="translate(134.031 3272.364)" clip-path="url(#a)"><g data-name="Group 136"><g data-name="Group 130"><path data-name="Path 158" d="M45.875 61.916s-1.566 3.576-4.627 3.752c-5.753.316-24.334-19.119-25.162-21.642s1.173-6.489 4.227-4.475c8.263 5.474 26.817 15.963 25.562 22.365z" fill="#ffa47c"/><path data-name="Path 159" d="M52.172 192.858l-7.293-.688a60.787 60.787 0 00-6.2 4.7 4.857 4.857 0 00-1.659 4.287s6.188 1.527 8.8 0a61.664 61.664 0 016.344-3.056z"/><path data-name="Path 160" d="M70.289 192.858l7.291-.688a60.934 60.934 0 016.2 4.7 4.862 4.862 0 011.653 4.287s-6.186 1.527-8.8 0a61.463 61.463 0 00-6.341-3.056z"/><path data-name="Path 161" d="M73.422 98.318l-14.6.149.052 20.628.879.026 9.679 74.421 10.613-.054-5.585-80.84z" fill="#276eae"/><path data-name="Path 162" d="M44.423 98.318l14.606.149-.053 20.628-.884.026-5.271 74.421H41.898l1.486-80.894z" fill="#1d5383"/><path data-name="Path 163" d="M51.21 51.435l-11.006 1.028s2.8 27.556 3.673 33.3-.49 20.6-.49 20.6h15.686L58.899 60.6s-7.149 1.105-7.689-9.165z" fill="#3f97b3"/><path data-name="Path 164" d="M65.577 50.533l12.456.9s-2.887 28.585-3.757 34.33.261 20.706.261 20.706l-15.464-.111-.174-45.763s7.82.002 6.678-10.062z" fill="#53d1ce"/><path data-name="Path 165" d="M50.653 51.488s3.5-1.88 3.367-10.558c-.034-2.344 9.774-2.381 9.79-.04.079 9.305 3.71 9.78 3.71 9.78s-.282 10.571-8.14 10.534c-8.255-.048-8.727-9.716-8.727-9.716z" fill="#ffb696"/><path data-name="Path 166" d="M68.317 34.866c-.78 7-5.97 12.73-9.421 12.73-3.541 0-8.7-5.621-9.426-12.73-.693-6.726 4.219-12.248 9.426-12.248s10.173 5.524 9.421 12.248z" fill="#ffcaaa"/><path data-name="Path 167" d="M47.339 63.353c-1.371 2.144-3.148 5.859-5.445 4.525-6.674-3.879-18.971-12.612-18.971-12.612l6.486-10.278s21.68 12.509 17.93 18.365z" fill="#3f97b3"/><path data-name="Path 168" d="M58.682 20.237c-4.021.005-8.382 2.819-9.511 5.78-1.194 3.125-.683 8.3-.683 8.3l1.332 1.453s.857-5.893 2.236-6.7c.432-.253 3.069-1.577 3.069-1.577s9.672 1.877 10.631 2.84c1.305 1.31 1.877 5.218 1.877 5.218l1.421-2.038s.377-5.877-1.184-8.372a12.292 12.292 0 00-9.188-4.904z" fill="#8d3b26"/><path data-name="Path 169" d="M17.694 44.542s-2.563-2.1-1.564-4.029c1.883-3.615 26.03-8.092 28.556-7.778s3.09 2.908.174 4.124c-7.912 3.282-22.675 9.69-27.166 7.683z" fill="#ffa47c"/><g data-name="Group 126" fill="#ffa47c"><path data-name="Path 170" d="M48.301 34.837c-1.237 1.561-3.328 1.9-3.966.087s-.62-3.662.878-6.233 5.469-7.354 6.246-6.645-1.635 3.283-2.31 5.745c-.985 3.597.55 5.295-.848 7.046z"/><path data-name="Path 171" d="M48.557 31c.754-1.806 1.7-3.125 2.123-2.943s.15 1.811-.6 3.615c-.759 1.819-1.711 3.132-2.125 2.948s-.152-1.809.602-3.62z"/></g><path data-name="Path 172" d="M70.993 61.998s1.529 3.5 4.525 3.684c5.619.311 23.765-18.75 24.569-21.218s-1.152-6.37-4.129-4.39c-8.071 5.362-26.199 15.643-24.965 21.924z" fill="#ffbd95"/><path data-name="Path 173" d="M69.513 63.353c1.371 2.144 3.148 5.859 5.448 4.525 6.671-3.879 18.969-12.612 18.969-12.612l-6.487-10.282s-21.675 12.513-17.93 18.369z" fill="#53d1ce"/><path data-name="Path 174" d="M98.847 45.283s2.624-2.033 1.677-3.987c-1.777-3.668-25.787-8.82-28.324-8.583s-3.169 2.824-.29 4.119c7.816 3.505 22.394 10.328 26.937 8.451z" fill="#ffbd95"/><g data-name="Group 127" fill="#ffbd95"><path data-name="Path 175" d="M69.255 34.973c1.2 1.6 3.277 1.988 3.96.19s.723-3.639-.707-6.254-5.26-7.491-6.059-6.813 1.545 3.327 2.152 5.814c.886 3.624-.69 5.268.654 7.063z"/><path data-name="Path 176" d="M69.105 31.13c-.7-1.827-1.616-3.175-2.043-3s-.2 1.8.509 3.631 1.624 3.175 2.044 3 .194-1.796-.51-3.631z"/></g><g data-name="Group 129"><g data-name="Group 128" clip-path="url(#b)" transform="translate(48.38 20.237)"><path data-name="Rectangle 82" fill="#ff4500" opacity=".1" d="M-32.482-13.569H10.36v59.597h-42.842z"/></g></g></g><g data-name="Group 135"><path data-name="Path 178" d="M125.187 64.099c-2.294 4.917-5.057 3.214-12.7-2.452S96.651 50.293 99.514 46.475s9.917 4.422 14.613 7.306 12.921 6.355 11.06 10.318z" fill="#ffa47c"/><path data-name="Path 179" d="M145.937 64.099c2.3 4.917 5.057 3.214 12.7-2.452s15.839-11.354 12.973-15.172-9.917 4.422-14.613 7.306-12.913 6.355-11.06 10.318z" fill="#ffbd95"/><path data-name="Path 180" d="M128.869 31.641h15.146v18.377l-15.464-.108z" fill="#3b0500"/><path data-name="Path 181" d="M131.825 147.752c-2.621-4.332-6.634-2.323-7.892 1.532s-1.187 9.78-.525 14.842 2.734 13.566 2.906 20.174-3.019 11.436-3.531 12.691c-.377.907-1.8 2.671-.266 2.869 2.054.256 4.533-2.737 6.064-4.124 4.063-3.691.989-3.032 2.167-11.857.72-5.384 2.178-8.8 2.732-21.376.499-11.268-1.655-14.751-1.655-14.751z" fill="#ffa47c"/><path data-name="Path 182" d="M124.723 149.036c.216 2.318 1.643 4.124 3.185 4.324s3.612.343 4.446-1.732c2.191-5.442 3.868-32.843 3.868-32.843s.562-13.634-3.626-14.555-9.782-.071-10.188 9.276 1.522 26.9 2.315 35.53z" fill="#ffa47c"/><path data-name="Path 183" d="M140.56 149.273c1.875-4.7 6.162-3.385 8.037.206s4.179 9.49 4.361 14.592-1.859 13.8-.936 20.342 3.043 10.845 3.336 12.372a3.364 3.364 0 01-2.368 3.586c-1.98.588-3.238-1.165-3.61-3.2-.585-3.2-.409-7.182-1.806-12.448-1.392-5.25-2.658-8.525-5.276-20.835-2.347-11.021-1.738-14.615-1.738-14.615z" fill="#ffbd95"/><path data-name="Path 184" d="M148.597 149.48c-.074 2.328-1.39 4.221-2.914 4.511s-3.586.57-4.543-1.45c-2.521-5.308-5.885-32.545-5.885-32.545s-1.4-13.571 2.724-14.753 9.753-.67 10.737 8.633.142 26.942-.119 35.604z" fill="#ffbd95"/><path data-name="Path 185" d="M149.212 196.418s.7 6.958 3.786 6.958 3.275-4.73 1.817-8.606c0 0 .519 4.522-1.993 4.846-2.439.311-3.61-3.198-3.61-3.198z"/><path data-name="Path 186" d="M130.617 190.214s1.458.812 1.237 3.259a41.1 41.1 0 00-.3 6.837l.045.483-.738.042s-.343-4.142-.986-4.472c-.467-.24-1.279.377-2.3 1.577s-2.02 3.082-2.492 3.225c-.933.277-6.209.78-6.784-.3-.277-.517 3.412-2.473 3.412-2.473s2.007.546 3.093-.229 2.666-4.216 3.747-5.6a26.638 26.638 0 012.066-2.349z"/><path data-name="Path 187" d="M129.897 55.754s-10.905-.116-9.727 2.595c3.2 7.367 6.768 28.606 6.768 34.459s-5.139 8.3-6.489 16.87c-1.305 8.279 2.336 37.215 2.336 37.215h13.313V61.184s-4.081-.494-6.201-5.43z" fill="#8b003d"/><path data-name="Path 188" d="M142.285 55.77s10.428.261 9.648 2.421c-3.214 8.873-6.8 28.764-6.8 34.618s5.339 5.537 6.618 16.87c.939 8.329-2.073 37.215-2.073 37.215h-13.579V61.183s5.266-.493 6.186-5.413z" fill="#b90051"/><path data-name="Path 189" d="M129.898 55.754s2.542-1.516 2.645-7.942c.032-1.732 7.391-1.537 7.351.2-.158 6.885 2.392 7.757 2.392 7.757s-.293 7.375-6.186 7.164c-6.195-.221-6.202-7.179-6.202-7.179z" fill="#ffa47c"/><path data-name="Path 190" d="M144.732 39.306c-.717 6.4-5.469 11.66-8.633 11.66-3.241 0-7.966-5.15-8.63-11.66-.633-6.159 3.863-11.219 8.63-11.219s9.321 5.065 8.633 11.219z" fill="#ffcaaa"/><path data-name="Path 191" d="M133.864 32.793a12.922 12.922 0 004.092 3.359c2.729 1.471 3.259.211 4.807 2.523s-.606 12.29-.606 12.29h3.122s2.805-16.8-1.231-21.215c-4.366-4.77-8.817-1.664-8.817-1.664s-3.573-2.117-6.616 1.98c-6 8.063-.728 20.369-.728 20.369l3.457.53s-2.879-9.189-2-12.6a8.876 8.876 0 014.52-5.572z" fill="#8d3b26"/><path data-name="Path 192" d="M124.26 69.009c-3.649-1.822-9.326-5.092-9.326-5.092l5.142-7.354a70.53 70.53 0 017.333 3.884c2.626 1.612-1.954 9.156-3.149 8.562z" fill="#8b003d"/><path data-name="Path 193" d="M147.276 68.808c3.649-1.819 9.329-5.092 9.329-5.092l-5.144-7.349a71.441 71.441 0 00-7.333 3.884c-2.627 1.609 1.953 9.156 3.148 8.557z" fill="#b90051"/><path data-name="Path 194" d="M101.332 51.106c3.626-.81 5.368-1.809 10.6-4.108s13.075-5.9 13.075-5.9l-1.082-2.58s-7.62 1.21-12.493 2.307c-5.266 1.181-9.408 2.508-11.5 4.551-3.484 3.392 1.4 5.73 1.4 5.73z" fill="#ffa47c"/><g data-name="Group 131" fill="#ffa47c"><path data-name="Path 195" d="M126.127 40.302c-1.063 1.313-2.845 1.582-3.367.034a5.8 5.8 0 01.8-5.279c1.3-2.175 4.707-6.194 5.36-5.59s-1.416 2.774-2.012 4.857c-.865 3.049.419 4.499-.781 5.978z"/><path data-name="Path 196" d="M126.379 37.049c.657-1.532 1.477-2.645 1.83-2.473.353.156.108 1.529-.551 3.056s-1.479 2.642-1.83 2.481-.107-1.535.551-3.064z"/></g><path data-name="Path 197" d="M169.797 51.106c-3.623-.81-5.368-1.809-10.6-4.108s-13.073-5.9-13.073-5.9l1.078-2.576s7.62 1.21 12.49 2.307c5.268 1.181 9.41 2.508 11.5 4.551 3.487 3.388-1.395 5.726-1.395 5.726z" fill="#ffbd95"/><g data-name="Group 132" fill="#ffbd95"><path data-name="Path 198" d="M145.004 40.302c1.063 1.313 2.845 1.582 3.367.034a5.808 5.808 0 00-.807-5.279c-1.295-2.175-4.706-6.194-5.36-5.59s1.416 2.774 2.012 4.857c.87 3.049-.412 4.499.788 5.978z"/><path data-name="Path 199" d="M144.748 37.049c-.654-1.532-1.477-2.645-1.827-2.473-.353.156-.108 1.529.549 3.056s1.479 2.642 1.83 2.481.107-1.535-.552-3.064z"/></g><g data-name="Group 134"><g data-name="Group 133" clip-path="url(#c)" transform="translate(125.746 27.093)"><path data-name="Rectangle 83" fill="#ff4500" opacity=".1" d="M-23.808-17.852h34.346v62.254h-34.346z"/></g></g></g></g></g></g></svg>