<svg xmlns="http://www.w3.org/2000/svg" width="62" height="62"><g transform="translate(-1 -1)"><path data-name="Path 415" d="M40 15.5V24a3 3 0 01-6 0V14z" fill="#aab2bd"/><path data-name="Path 416" d="M50 4v14l-10-2.5-6-1.5-4-1V9z" fill="#e6e9ed"/><path data-name="Path 417" d="M54 4v14a2 2 0 01-4 0V4a2.006 2.006 0 012-2 2.015 2.015 0 012 2z" fill="#ff826e"/><g data-name="Group 207" fill="#b4dd7f"><path data-name="Path 418" d="M34 56v6H20v-6h14z"/><path data-name="Path 419" d="M48 50v12H34V50z"/><path data-name="Path 420" d="M62 44v18H48V44z"/></g><path data-name="Path 421" d="M22 37h-3v-2H7v24a3 3 0 006 0V43h9a2.006 2.006 0 012 2v8a3 3 0 006 0v-8a8 8 0 00-8-8z" fill="#3a92ea"/><path data-name="Path 422" d="M7 35v5H6a4 4 0 01-4-4V26a7.994 7.994 0 016.06-7.76L13 24l5.14-6H34v5H21a2.006 2.006 0 00-2 2v10H7z" fill="#fcd770"/><path data-name="Path 423" d="M18.14 18L13 24l-4.94-5.76A7.753 7.753 0 0110 18h8.14z" fill="#f0d0b4"/><circle data-name="Ellipse 61" cx="6" cy="6" r="6" transform="translate(7 6)" fill="#ffb480"/><path data-name="Path 424" d="M57 10h6v2h-6z" fill="#da922a"/><path data-name="Path 425" d="M55.553 4.105l6-3 .895 1.79-6 3z" fill="#da922a"/><path data-name="Path 426" d="M55.552 17.895l.895-1.79 6 3-.895 1.79z" fill="#da922a"/><path data-name="Path 427" d="M47 49H33v6h-2.556A3.959 3.959 0 0031 53v-8a9.01 9.01 0 00-9-9h-2V25a1 1 0 011-1h12a4 4 0 008 0v-7.219l8.126 2.031A2.992 2.992 0 0055 18V4a2.992 2.992 0 00-5.874-.812L29 8.219v5.562l4 1V17H17.889a7 7 0 10-9.6.167A9.012 9.012 0 001 26v10a5.006 5.006 0 005 5v18a4 4 0 008 0V44h8a1 1 0 011 1v8a3.959 3.959 0 00.556 2H19v8h44V43H47zm4-45a1 1 0 012 0v14a1 1 0 01-2 0zM31 9.781l18-4.5V16.72l-18-4.5zm8 6.5V24a2 2 0 01-4 0v-8.719zM15.969 19L13 22.463 10.031 19zM8 12a5 5 0 115 5 5.006 5.006 0 01-5-5zM3 36V26a7.006 7.006 0 014.729-6.614L13 25.537 18.6 19H33v3H21a3 3 0 00-3 3v9H8V24H6v15a3 3 0 01-3-3zm22 17v-8a3 3 0 00-3-3h-8v-5h-2v22a2 2 0 01-4 0V36h10v2h4a7.009 7.009 0 017 7v8a2 2 0 01-4 0zm8 8H21v-4h12zm14 0H35V51h12zm2-16h12v16H49V45z" fill="none"/></g></svg>