<svg xmlns="http://www.w3.org/2000/svg" viewBox="0 0 80 80"><circle cx="40" cy="40" r="26" fill="#fff"/><path d="M40.14 32.92c-3.75 0-6.93 3.18-6.93 6.93 0 3.75 3.18 6.93 6.93 6.93 3.75 0 6.93-3.18 6.93-6.93.01-3.75-2.88-6.93-6.93-6.93zM39.86 0C17.91 0 0 17.91 0 39.86S17.91 80 39.86 80 80 61.81 80 39.86 61.81 0 39.86 0zm15.65 50.7c-2.92 0-5.57-1.59-7.16-3.71-1.86 2.12-4.77 3.71-7.95 3.71-5.83 0-10.87-4.77-10.87-10.87s5.04-10.87 10.87-10.87c2.39 0 4.77.8 6.36 2.12 0-1.06 1.06-2.12 2.12-2.12S51 30.02 51 31.08v10.87c0 2.39 1.86 4.24 4.24 4.24 2.39 0 4.24-1.86 4.24-4.24 0-14.31-9.54-21.47-19.35-21.47-10.6 0-19.35 8.75-19.35 19.35s8.75 19.35 19.35 19.35c4.24 0 8.48-1.33 11.93-3.98 2.39-1.86 4.77 1.59 2.65 3.45a23.826 23.826 0 01-14.31 4.77c-12.99 0-23.86-10.6-23.86-23.86S27.14 15.7 40.4 15.7c11.93 0 23.86 8.75 23.86 25.98-.01 5.04-3.98 9.02-8.75 9.02z" fill="#ffdb4d"/></svg>