<svg xmlns="http://www.w3.org/2000/svg" width="49.832" height="49.852"><g data-name="022---Yoga"><g transform="translate(.811 .831)"><path d="M27.416 12.611a4.154 4.154 0 01-4.154 4.154 4.437 4.437 0 01-1.246-.183 4.154 4.154 0 010-7.943 4.437 4.437 0 011.249-.182 4.154 4.154 0 014.151 4.154z" fill="#dfc49c"/><ellipse cx="2.908" cy="3.972" rx="2.908" ry="3.972" transform="translate(19.11 8.64)" fill="#ffe0b2"/><path data-name="Shape" d="M45.695 6.647a4.154 4.154 0 01-4.154 4.154 4.437 4.437 0 01-1.246-.183 4.154 4.154 0 010-7.943 4.437 4.437 0 011.249-.182 4.154 4.154 0 014.151 4.154z" fill="#fec108"/><ellipse data-name="Oval" cx="2.908" cy="3.972" rx="2.908" ry="3.972" transform="translate(37.389 2.675)" fill="#ffdc00"/><path data-name="Shape" d="M41.543 22.168a2.177 2.177 0 01-2.227 1.928h-2.758v-4.155h2.908a2.094 2.094 0 012.077 2.227z" fill="#dfc49c"/><path data-name="Shape" d="M39.051 22.168a2.177 2.177 0 01-2.227 1.928h-.266v-4.155h.415a2.094 2.094 0 012.077 2.227zm-28.25-2.227v4.154H8.043a2.177 2.177 0 01-2.226-1.927 2.094 2.094 0 012.076-2.227z" fill="#ffe0b2"/><path data-name="Shape" d="M36.558 37.389v5.816h-4.154v-3.323a1.662 1.662 0 00-1.664-1.662h-7.276a1.662 1.662 0 00-1.487.922l-.881 2.584a3.373 3.373 0 01-.889 1.105l-3.116 2.493-3.041-3.041 1.163-1.064a3.323 3.323 0 00.831-1.246l2.584-6.572a6.722 6.722 0 00.482-2.41v-.249h8.309a2.493 2.493 0 002.493 2.493h2.493a4.154 4.154 0 014.154 4.154z" fill="#dd1c4b"/><path data-name="Shape" d="M36.558 37.389v5.816h-2.493v-5.816a4.154 4.154 0 00-4.154-4.154h2.493a4.154 4.154 0 014.154 4.154z" fill="#ab072f"/><path data-name="Shape" d="M36.558 19.94v4.154h-9.14v6.647H19.11v-6.646h-8.309V19.94c2.916 0 2.127.125 6.647-1.288 2.21-.49 3.407-.374 8.583-.374 2.351 0 3.049.316 7.22 1.437a11.724 11.724 0 003.307.225z" fill="#f1a06c"/><g data-name="Group 86"><path data-name="Shape" d="M17.09 45.34l-3.041 2.443a2.028 2.028 0 11-2.576-3.132l2.576-2.351zm19.467-2.135v2.775a2.177 2.177 0 01-2.2 2.21 2.077 2.077 0 01-1.954-2.077v-2.908z" fill="#ffe0b2"/></g></g><path data-name="Shape" d="M29.06 11.632a4.985 4.985 0 10-4.985 4.985 4.985 4.985 0 004.985-4.985zm-8.309 0a3.323 3.323 0 113.323 3.323 3.323 3.323 0 01-3.322-3.323zm28.25 36.558H37.859c.457-.906.341-.457.341-9.97a4.985 4.985 0 00-4.985-4.985h-2.493a1.662 1.662 0 01-1.657-1.662v-5.816h11.062a2.909 2.909 0 10.15-5.816c-6.456 0-4.237.282-10.494-1.388-1.894-.357-2.792-.272-8.126-.272-2.833 0-4.154.557-6.83 1.4-1.13.349-1.554.266-6.123.266a2.916 2.916 0 00-2.908 3.116 3 3 0 003.058 2.7H19.09c0 6.389.133 6.821-.4 8.184-2.75 7-2.634 6.971-3.224 7.478l-3.739 3.448a2.808 2.808 0 00-.665 3.323H5.796a.831.831 0 000 1.662h43.2a.831.831 0 000-1.662zm-14.956-3.323h2.493v1.944a1.346 1.346 0 01-1.321 1.379 1.238 1.238 0 01-1.172-1.246zm7.1-22.89a1.255 1.255 0 01-1.022 2.119H38.2v-2.493h2.077a1.2 1.2 0 01.872.374zm-33.692.964a1.255 1.255 0 011.246-1.338h2.077v2.493H8.853a1.346 1.346 0 01-1.4-1.155zm12.77 11.632c.706-1.8.515-2.542.515-10.452a.831.831 0 10-1.662 0h-6.633v-2.518c2.119 0 1.886 0 5.966-1.3a14.69 14.69 0 013.249-.357c5.06 0 6.1-.075 7.76.233 5.583 1.487 4.952 1.429 7.121 1.429v2.493h-7.474a.831.831 0 10-1.662 0v7.478a3.323 3.323 0 003.323 3.323h2.493a3.323 3.323 0 013.323 3.323v4.985h-2.497v-2.497a2.493 2.493 0 00-2.493-2.493h-7.278a2.493 2.493 0 00-2.277 1.479l-.832 2.493c-.324.607-.474.648-3.182 2.825l-1.894-1.9c1.5-1.363.972-.482 4.146-8.566zm-7.39 11.549l1.994-1.82 1.82 1.828-2.293 1.845a1.188 1.188 0 01-1.6-.15 1.2 1.2 0 01.091-1.728zm8.749-1.811a4.154 4.154 0 001.155-1.487l.831-2.493a.831.831 0 01.723-.415h7.262a.831.831 0 01.831.831c0 6.813-.091 6.647.291 7.478H16.713zm-9.139-33.51H7.458a.831.831 0 000 1.662h4.985a4.154 4.154 0 00.764-8.234 4.985 4.985 0 00-9.837 0 4.154 4.154 0 00.764 8.234.831.831 0 100-1.662 2.493 2.493 0 111.87-4.154.833.833 0 101.246-1.105 4.154 4.154 0 00-2.2-1.28 3.323 3.323 0 115.9 2.717.832.832 0 101.329 1 4.927 4.927 0 00.9-2.036 2.493 2.493 0 01-.731 4.861z" fill="none"/><path data-name="Shape" d="M49.001 6.647h-1.737a4.985 4.985 0 00-.831-2.052l1.221-1.23a.831.831 0 00-1.147-1.172l-1.27 1.222a4.985 4.985 0 00-2.052-.831V.831a.831.831 0 10-1.662 0v1.736a4.985 4.985 0 00-2.052.831l-1.23-1.2a.831.831 0 00-1.172 1.172L38.29 4.6a4.985 4.985 0 00-.831 2.052h-1.752a.831.831 0 000 1.662h1.737a4.985 4.985 0 00.831 2.052l-1.2 1.271a.831.831 0 001.166 1.163l1.23-1.221a4.985 4.985 0 002.052.831v1.712a.831.831 0 001.662 0v-1.734a4.985 4.985 0 002.052-.831l1.271 1.2a.831.831 0 001.13-1.13L46.417 10.4a4.985 4.985 0 00.831-2.052h1.753a.831.831 0 000-1.662zM42.354 10.8a3.323 3.323 0 112.35-.973 3.323 3.323 0 01-2.35.973z" fill="#fec108"/></g></svg>