<svg xmlns="http://www.w3.org/2000/svg" width="45.516" height="44"><path data-name="Path 63" d="M.745 18.917a9.1 9.1 0 017.811 4.439 21.532 21.532 0 0111.166-2.921 20.8 20.8 0 0112.373 3.743l.759-2.657a13.7 13.7 0 00-.455-8.847l-.531-1.347h-8.35l-3.036-7.591L28.832.7l8.35 7.591 7.179 23.1a7.537 7.537 0 01.412 2.454v5.572a29.6 29.6 0 01-9.355 1.518h-5.673a22.138 22.138 0 01-10.02 2.277c-6.854 0-12.742-2.817-15.314-6.845a9.07 9.07 0 01-3.666.768z" fill="#f8c09c"/><path data-name="Path 64" d="M19.727 39.53l6.442-6.476a4.144 4.144 0 00.62-5.046v-.005a4.1 4.1 0 00-6.422-.79l-.637.641-.64-.643a4.095 4.095 0 00-6.421.8v.006a4.14 4.14 0 00.62 5.04z" fill="#dd1c4b"/><path data-name="Path 65" d="M13.684 25.954a4.826 4.826 0 015.926.731l.112.112.109-.109a4.862 4.862 0 016.861 6.89l-6.441 6.48a.745.745 0 01-1.053 0l-6.448-6.48a4.884 4.884 0 01.935-7.622zm.123 6.575l5.914 5.949 5.911-5.948a3.4 3.4 0 00.506-4.145 3.352 3.352 0 00-5.255-.647l-.636.641a.745.745 0 01-1.053 0l-.64-.643a3.339 3.339 0 00-4.1-.506 3.395 3.395 0 00-.646 5.3z" fill="none"/><path data-name="Path 66" d="M.759 18.208A9.769 9.769 0 018.8 22.379a22.692 22.692 0 0110.924-2.655 22.246 22.246 0 0111.932 3.269l.467-1.635a12.926 12.926 0 00-.428-8.35l-.35-.869h-7.829a.758.758 0 01-.7-.476l-3.034-7.586a.759.759 0 01.422-.986l.023-.009L28.572.048a.759.759 0 01.77.152l8.345 7.586a.759.759 0 01.214.336l7.159 23.06a8.288 8.288 0 01.455 2.7v5.568a.759.759 0 01-.519.72 30.268 30.268 0 01-9.592 1.556h-5.488a22.884 22.884 0 01-10.192 2.276c-6.616 0-12.646-2.6-15.588-6.667a9.764 9.764 0 01-3.376.6.759.759 0 01-.76-.763V18.965a.759.759 0 01.759-.757zm.759 18.172a8.289 8.289 0 002.6-.674.759.759 0 01.945.286c2.516 3.943 8.272 6.491 14.665 6.491a21.292 21.292 0 009.668-2.192.759.759 0 01.346-.083h5.668A28.748 28.748 0 0044 38.895v-5.016a6.8 6.8 0 00-.379-2.225L36.5 8.768l-7.847-7.14L24.4 3.175l1.89 4.411h1.778v1.522h-2.276a.759.759 0 01-.7-.46l-2.124-4.949-1.5.544 2.553 6.382h7.833a.758.758 0 01.7.476l.539 1.347a14.45 14.45 0 01.477 9.331l-.759 2.644q.228.279.429.58a7.592 7.592 0 011.138 2.737l.489 2.457a.759.759 0 01-.6.892.718.718 0 01-.146.018.759.759 0 01-.743-.607l-.478-2.463a6.118 6.118 0 00-2.6-3.89l-1.132-.755a.767.767 0 01-.124-.124 21.665 21.665 0 00-9.318-2.027 20.816 20.816 0 00-10.767 2.807.759.759 0 01-1.043-.249v-.007a8.279 8.279 0 00-6.394-4.034z" fill="none"/></svg>