<svg xmlns="http://www.w3.org/2000/svg" xmlns:xlink="http://www.w3.org/1999/xlink" width="30.649" height="30.649"><defs><linearGradient id="a" x1=".5" y1=".008" x2=".5" y2=".998" gradientUnits="objectBoundingBox"><stop offset="0" stop-color="#e09b3d"/><stop offset=".3" stop-color="#c74c4d"/><stop offset=".6" stop-color="#c21975"/><stop offset="1" stop-color="#7024c4"/></linearGradient><linearGradient id="b" y1="-.451" y2="1.462" xlink:href="#a"/><linearGradient id="c" y1="-1.396" y2="6.586" xlink:href="#a"/></defs><path data-name="Path 53" d="M21.519 0H9.131A9.141 9.141 0 000 9.131v12.388a9.141 9.141 0 009.131 9.131h12.388a9.141 9.141 0 009.131-9.131V9.131A9.141 9.141 0 0021.519 0zm6.047 21.519a6.047 6.047 0 01-6.047 6.047H9.131a6.047 6.047 0 01-6.047-6.047V9.131a6.047 6.047 0 016.047-6.048h12.388a6.047 6.047 0 016.047 6.047v12.389z" fill="url(#a)"/><path data-name="Path 54" d="M140.927 133a7.927 7.927 0 107.927 7.927 7.936 7.936 0 00-7.927-7.927zm0 12.771a4.844 4.844 0 114.844-4.844 4.844 4.844 0 01-4.844 4.844z" transform="translate(-125.602 -125.602)" fill="url(#b)"/><circle data-name="Ellipse 31" cx="1.899" cy="1.899" r="1.899" transform="translate(21.368 5.558)" fill="url(#c)"/></svg>