<svg xmlns="http://www.w3.org/2000/svg" width="153.245" height="55.155"><defs><linearGradient id="a" y1=".5" x2="1" y2=".5" gradientUnits="objectBoundingBox"><stop offset="0" stop-color="#170094"/><stop offset=".1" stop-color="#2305a0"/><stop offset=".29" stop-color="#4311c0"/><stop offset=".54" stop-color="#7625f3"/><stop offset=".57" stop-color="#7b27f8"/><stop offset=".76" stop-color="#8c2cf8"/><stop offset="1" stop-color="#a735f9"/></linearGradient><linearGradient id="b" x1="-.054" y1=".574" x2="1.033" y2=".351" gradientUnits="objectBoundingBox"><stop offset="0" stop-color="#7525f8"/><stop offset=".12" stop-color="#7d22e4"/><stop offset=".36" stop-color="#9319af"/><stop offset=".71" stop-color="#b50c5c"/><stop offset="1" stop-color="#d40011"/></linearGradient></defs><g data-name="ЛучшийТы Logo"><path data-name="Path 49" d="M66.523 275.641v16.715h-5.531V280.01h-3.821l-.037 1.935a34.306 34.306 0 01-.572 5.874 7.293 7.293 0 01-1.673 3.57 4.471 4.471 0 01-3.433 1.277 10.008 10.008 0 01-2.387-.31l.286-4.513a2.742 2.742 0 00.62.072 1.513 1.513 0 001.349-.716 4.7 4.7 0 00.633-1.911q.168-1.2.238-3.129l.218-6.518zm17.512 3.653l-5.372 13.32a7.568 7.568 0 01-2.557 3.583 6.551 6.551 0 01-3.749 1.026 7.841 7.841 0 01-2.208-.323 4.948 4.948 0 01-1.747-.847l1.791-3.7a3.493 3.493 0 00.919.5 2.808 2.808 0 00.991.192 1.67 1.67 0 001.339-.526l-5.5-13.224h5.54l2.7 6.987 2.747-6.987zm14.471 0v13.062h-5.371v-4.417a5.937 5.937 0 01-3.009.668 6.07 6.07 0 01-4.227-1.277 5.247 5.247 0 01-1.384-4.048v-3.987h5.374v3.629a1.951 1.951 0 00.369 1.36 1.55 1.55 0 001.159.382 3.987 3.987 0 001.718-.358v-5.022zm24 0v13.062h-21.467v-13.062h5.372v8.835h2.689v-8.835h5.374v8.835h2.673v-8.835zm2.531 0h5.374v5.9l4.513-5.9h4.968v13.062h-5.374v-5.922l-4.489 5.922h-4.985zm17.386 0h5.372v5.9l4.513-5.9h4.968v13.062H151.9v-5.922l-4.489 5.922h-4.989zm3.439-2.09a4.016 4.016 0 01-1.146-3.164h3.461a2.07 2.07 0 00.275 1.181 1.148 1.148 0 001.015.4q1.336 0 1.336-1.577h3.511a3.991 3.991 0 01-1.159 3.164 5.463 5.463 0 01-3.655 1.015 5.4 5.4 0 01-3.639-1.023zM97.3 312.6h-6.078v15.324h-6.876V312.6h-6.077v-5.424H97.3zm19.473 2.681a6.254 6.254 0 012.1 5.114 6.765 6.765 0 01-2.4 5.586 10.189 10.189 0 01-6.579 1.943H99.611V307.18h6.872v6.374h4.3a9.208 9.208 0 015.989 1.727zm-5.6 7.084a2.461 2.461 0 00.683-1.852q0-2.074-2.433-2.074h-2.937v4.586h2.933a2.4 2.4 0 001.753-.659zm9.608-15.189h6.876v20.744h-6.88z" transform="translate(-49.07 -273.968)" fill="url(#a)"/><path data-name="Path 50" d="M517.187 276.3l-24.019-2.568c-3.592-.376-5.33 3.747-2.887 6.839l3.8 4.8-35.339 36.531a4.107 4.107 0 005.053 6.383l43.672-25.985 3.8 4.8c2.446 3.088 6.865 2.345 7.319-1.236l3.022-23.965a5.19 5.19 0 00-4.435-5.6z" transform="translate(-368.391 -273.71)" fill="url(#b)"/></g></svg>