<svg xmlns="http://www.w3.org/2000/svg" width="21" height="21"><path data-name="Path 51" d="M0 0h21v21H0z" fill="none"/><path data-name="Path 52" d="M17.5 13.563a9.94 9.94 0 01-3.124-.5.893.893 0 00-.893.21l-1.925 1.925a13.165 13.165 0 01-5.765-5.765l1.924-1.934a.84.84 0 00.219-.874 9.94 9.94 0 01-.5-3.124.878.878 0 00-.873-.876H3.5a.878.878 0 00-.875.875A14.874 14.874 0 0017.5 18.375a.878.878 0 00.875-.875v-3.062a.878.878 0 00-.875-.875zm-.875-3.063h1.75A7.876 7.876 0 0010.5 2.625v1.75a6.121 6.121 0 016.125 6.125zm-3.5 0h1.75A4.377 4.377 0 0010.5 6.125v1.75a2.621 2.621 0 012.625 2.625z" fill="#222"/></svg>