<svg xmlns="http://www.w3.org/2000/svg" width="53.561" height="48.476"><path data-name="Path 343" d="M46.486 37.36l-8.085-16.169-1.034-2.584.075.006-.363-.727-.834-1.669-.606-1.22a7.074 7.074 0 00-12.654 6.327l1.269 2.546v13.49zm-13.73-19.108l-3.072 1.792 1.883-1.885zm0 0" fill="#da922a"/><path data-name="Path 344" d="M28.857 26.294l-1.808.9a2.021 2.021 0 11-1.807-3.615l1.807-.9zm0 0" fill="#ecccb6"/><path data-name="Path 345" d="M36.088 22.681l1.808-.9a2.022 2.022 0 00-1.808-3.617l-1.808.9zm0 0" fill="#ecccb6"/><path data-name="Path 346" d="M39.093 30.951l1.33 2.367-6.754.344-3.032-6.063 5.424-2.711zm0 0" fill="#f9d7c0"/><path data-name="Path 347" d="M37.04 26.85l-.979-1.959-5.424 2.711 1.011 2.015a3.993 3.993 0 005.392-2.768zm0 0" fill="#ecccb6"/><path data-name="Path 348" d="M35.92 31.296h4.965a12.677 12.677 0 0112.676 12.677v4.5H23.243v-4.5A12.677 12.677 0 0135.92 31.296zm0 0" fill="#ef5350"/><path data-name="Path 349" d="M34.28 28.103a4.042 4.042 0 01-5.423-1.808l-1.824-3.607 4.3-4.529h2.5l2.26 4.521a4.042 4.042 0 01-1.813 5.423zm0 0" fill="#f9d7c0"/><path data-name="Path 350" d="M28.296 42.413h2.021v6.063h-2.021zm0 0" fill="#b94137"/><path data-name="Path 351" d="M46.487 42.413h2.021v6.063h-2.021zm0 0" fill="#b94137"/><path data-name="Path 352" d="M12.676 31.296h4.965a12.677 12.677 0 0112.676 12.677v4.5H-.001v-4.5a12.677 12.677 0 0112.677-12.677zm0 0" fill="#409fff"/><path data-name="Path 353" d="M18.19 23.211h3.032a2.021 2.021 0 000-4.042H18.19zm0 0" fill="#ecccb6"/><path data-name="Path 354" d="M12.127 25.233h6.063v6.063h-6.063zm0 0" fill="#f5d3bd"/><path data-name="Path 355" d="M12.127 27.881a3.993 3.993 0 006.063 0v-2.648h-6.063zm0 0" fill="#ecccb6"/><path data-name="Path 356" d="M8.085 20.179h3.032l2.021-3.032 9.1 3.032v-4.042a7.074 7.074 0 00-14.148 0zm0 0" fill="#8f563b"/><path data-name="Path 357" d="M5.053 42.413h2.021v6.063H5.053zm0 0" fill="#2c82db"/><path data-name="Path 358" d="M22.233 42.413h2.021v6.063h-2.021zm0 0" fill="#2c82db"/><g data-name="Group 178" fill="#f7ba61"><path data-name="Path 365" d="M22.031 6.043h2.021v2.021h-2.021zm0 0"/><path data-name="Path 366" d="M17.989 0h2.021v2.021h-2.021zm0 0"/><path data-name="Path 367" d="M26.074 0h2.021v2.021h-2.021zm0 0"/></g><path data-name="Path 368" d="M12.127 23.211H9.095a2.021 2.021 0 110-4.042h3.032zm0 0" fill="#ecccb6"/><path data-name="Path 369" d="M15.158 27.254a4.043 4.043 0 01-4.042-4.043v-5.053l2.021-1.01 6.063 2.021v4.042a4.043 4.043 0 01-4.042 4.043zm0 0" fill="#f9d7c0"/></svg>