<svg xmlns="http://www.w3.org/2000/svg" width="38" height="38"><g data-name="Group 187"><path data-name="Path 394" d="M38 19A19 19 0 1119 0a19 19 0 0119 19zm0 0" fill="#abafb2"/><path data-name="Path 377" d="M28.146 30.87h-7.68V10.901h8.4v16.687l-.72 1.1zm0 0" fill="#eb8d00"/><path data-name="Path 378" d="M21.794 7.842h-1.328l-1.1 8.771 1.1 14 1.328-.186zm0 0" fill="#fdae02"/><path data-name="Path 379" d="M9.976 5.646v2.2H8.724v22.578l7.079.84 4.663-.654V5.646zm0 0" fill="#fdcb02"/><g data-name="Group 186" fill="#f3fffb"><path data-name="Path 380" d="M12.564 10.917h1.543v2.194h-1.543zm0 0"/><path data-name="Path 381" d="M16.404 10.917h1.543v2.194h-1.543zm0 0"/><path data-name="Path 382" d="M12.564 15.31h1.543v2.194h-1.543zm0 0"/><path data-name="Path 383" d="M16.404 15.31h1.543v2.194h-1.543zm0 0"/><path data-name="Path 384" d="M12.564 19.694h1.543v2.194h-1.543zm0 0"/><path data-name="Path 385" d="M16.404 19.694h1.543v2.194h-1.543zm0 0"/><path data-name="Path 386" d="M12.564 24.082h1.543v2.194h-1.543zm0 0"/><path data-name="Path 387" d="M16.404 24.082h1.543v2.194h-1.543zm0 0"/></g><path data-name="Path 388" d="M23.774 15.31h1.538v2.194h-1.543zm0 0" fill="#ffd27b"/><path data-name="Path 389" d="M23.774 19.694h1.538v2.194h-1.543zm0 0" fill="#ffd27b"/><path data-name="Path 390" d="M27.327 27.322h1.543v3.84h-1.543zm0 0" fill="#8f4d24"/><path data-name="Path 391" d="M28.099 29.156a3.368 3.368 0 113.368-3.368 3.372 3.372 0 01-3.368 3.368zm0 0" fill="#a8d32a"/><path data-name="Path 392" d="M31.437 30.424H20.466l-.548 1 .548.54h10.971zm0 0" fill="#8d9ca8"/><path data-name="Path 393" d="M8.724 30.424h11.742v1.543H8.724zm0 0" fill="#aab8c7"/></g></svg>