<svg xmlns="http://www.w3.org/2000/svg" width="38" height="38"><path data-name="Path 394" d="M38 19A19 19 0 1119 0a19 19 0 0119 19zm0 0" fill="#87c7ff"/><path data-name="Path 395" d="M17.983 37.972q.5.027 1.017.027zM38.002 19" fill="#4a98f7"/><path data-name="Path 396" d="M20.113 29.545v-4.761h-2.227v4.761a2.737 2.737 0 102.227 0zM19 32.556a.511.511 0 11.511-.511.511.511 0 01-.511.509zm0 0" fill="#2864f0"/><path data-name="Path 397" d="M20.145 29.545v-4.761H19v6.752h.032a.511.511 0 010 1.022H19v2.227h.032a2.737 2.737 0 001.113-5.238zm0 0" fill="#27488f"/><path data-name="Path 398" d="M7.298 8.374h23.4v18.918h-23.4zm0 0" fill="#fff"/><path data-name="Path 399" d="M30.7 8.374L19 8.393v18.9h11.7zm0 0" fill="#e9edf5"/><path data-name="Path 400" d="M6.365 7.596h25.27v3.286H6.365zm0 0" fill="#2864f0"/><path data-name="Path 401" d="M19 7.596h12.666v3.286H19zm0 0" fill="#27488f"/><path data-name="Path 402" d="M10.137 12.576h17.726v8.92H10.137zm0 0" fill="#ff6464"/><path data-name="Path 403" d="M27.863 12.576L19 12.595v8.92l8.863-.019zm0 0" fill="#f24545"/><path data-name="Path 404" d="M17.491 14.069l4.773 2.967-4.773 2.967zm0 0" fill="#fff"/><path data-name="Path 405" d="M19 19.064l3.264-2.029L19 15.004zm0 0" fill="#e9edf5"/><path data-name="Path 406" d="M10.137 23.527h17.726v1.781H10.137zm0 0" fill="#555a66"/><path data-name="Path 407" d="M19 23.527h8.894v1.781H19zm0 0" fill="#333940"/></svg>