<svg xmlns="http://www.w3.org/2000/svg" width="61.034" height="55.094"><defs><filter id="a" x="12.477" y="25.607" width="30.258" height="29.487" filterUnits="userSpaceOnUse"><feOffset dy="1"/><feGaussianBlur stdDeviation="1" result="blur"/><feFlood flood-opacity=".388"/><feComposite operator="in" in2="blur"/><feComposite in="SourceGraphic"/></filter></defs><g data-name="Group 177" fill="#f5f5f5"><path data-name="Path 326" d="M20.288 24.271l-6.356 6.716-2.05 8.133 3.594 2.034 5.725-5.471 2.682-9.378z"/><path data-name="Path 327" d="M48.353 38.35l-.577-9.023-5.082-7.074-3.9 1.37v7.644l4.749 5.863.91 2.588z"/></g><path data-name="Path 328" d="M38.799 23.623l-6.009-.667-2.842 2.439v4.344l5.307 15.258s8.076-3.473 8.423-7.705z" fill="#ffb480"/><g transform="translate(0 .002)" filter="url(#a)"><path data-name="Path 342" d="M29.95 31.037l8.7 4.927a2.133 2.133 0 01.805 2.907 2.133 2.133 0 01-2.907.806 2.133 2.133 0 01.805 2.907 2.133 2.133 0 01-2.907.805 2.133 2.133 0 01.805 2.907 2.133 2.133 0 01-2.907.805 2.133 2.133 0 01.806 2.907 2.133 2.133 0 01-2.907.806l-14.77-8.361 8.405-14.849 2.353 1.332z" fill="#242424"/></g><path data-name="Path 329" d="M29.947 29.739l8.7 4.927a2.133 2.133 0 01.805 2.907 2.133 2.133 0 01-2.907.806 2.133 2.133 0 01.805 2.907 2.133 2.133 0 01-2.907.805 2.133 2.133 0 01.805 2.907 2.133 2.133 0 01-2.907.805 2.133 2.133 0 01.806 2.907 2.133 2.133 0 01-2.907.806l-14.77-8.361 8.405-14.849 2.353 1.332z" fill="#db9d72"/><path data-name="Path 330" d="M17.228 39.481l-4.757-2.693-.588 2.332 2.8 1.587.79.447z" fill="#dbdbdb"/><path data-name="Rectangle 86" fill="#409fff" d="M.893 32.902l8.413-14.846 10.985 6.225-8.413 14.846z"/><path data-name="Path 331" d="M47.446 36.234l-3.75 1.318.762 2.168 3.9-1.37-.153-2.385z" fill="#dbdbdb"/><path data-name="Path 332" d="M60.14 34.162l-5.534-16.1-11.912 4.188 5.659 16.1z" fill="#ef5350"/><path data-name="Path 333" d="M60.14 34.163l-.747-2.174-11.8 4.193.762 2.168z" fill="#d44a47"/><path data-name="Rectangle 87" fill="#3a8fe6" d="M2.036 30.881l10.985 6.225-1.143 2.018L.893 32.899z"/><path data-name="Path 334" d="M32.79 22.955a5.643 5.643 0 00-5.565 2.886l-3.269 5.934a2.133 2.133 0 00.839 2.9 2.133 2.133 0 002.9-.839l2.256-4.1z" fill="#ffb480"/><path data-name="Path 335" d="M33.154 48.709c.026-.047.049-.094.071-.142l.012-.025-16.618-9.406-1.142 2.018 4.24 2.4 10.53 5.961a2.124 2.124 0 001.217.27q.1-.008.2-.026a2.129 2.129 0 001.49-1.05z" fill="#d69060"/><path data-name="Path 336" d="M55 17.261a.893.893 0 00-.686-.039l-15.615 5.49-5.806-.645a6.518 6.518 0 00-6.447 3.343l-.553 1L9.74 17.273a.9.9 0 00-1.218.338L.117 32.46a.894.894 0 00.338 1.219l29.352 16.614a3.026 3.026 0 004.409-3.432 3 3 0 001.646-1.156 28.89 28.89 0 003.976-2.233 13.658 13.658 0 003.756-3.514l.021.059a.9.9 0 001.14.547l15.685-5.562a.894.894 0 00.546-1.133l-5.534-16.1a.894.894 0 00-.452-.508zM15.139 39.936L13.1 38.783l7.524-13.293 2.038 1.153zm-5.5-20.666l9.432 5.339-7.526 13.293-9.432-5.339zM33.73 45.136a1.235 1.235 0 01-.94-.111l-6.167-3.491a.894.894 0 00-.881 1.556l6.167 3.491a1.239 1.239 0 01-1.221 2.156L16.7 40.817l7.524-13.293.806.456-1.854 3.365a3.064 3.064 0 001.191 4.112 3.027 3.027 0 004.112-1.191l1.82-3.3 7.917 4.482a1.254 1.254 0 01.468 1.688 1.24 1.24 0 01-1.688.468l-6.167-3.491a.894.894 0 00-.881 1.556l6.167 3.491a1.239 1.239 0 11-1.221 2.156l-6.167-3.491a.894.894 0 00-.881 1.556l6.167 3.491a1.251 1.251 0 01.468 1.688 1.238 1.238 0 01-.753.576zm2.658-1.677a3.092 3.092 0 00-.068-.311 3.022 3.022 0 002.1-3.711 3.007 3.007 0 001.817-1.423 3.058 3.058 0 00-1.143-4.125l-8.7-4.927a.914.914 0 00-1.21.343v.006l-2.256 4.1a1.24 1.24 0 11-2.17-1.2l3.269-5.935a4.735 4.735 0 014.683-2.428l5.451.605 4.6 13.085c-.49 2.35-3.975 4.656-6.375 5.92zm12.513-6.25l-3.082-8.766a.894.894 0 00-1.687.593l3.082 8.766L45 38.58l-5.062-14.411 2.2-.775.816 2.321a.894.894 0 001.14.547.91.91 0 00.547-1.14l-.807-2.32 10.219-3.593 4.954 14.409z" fill="none"/><path data-name="Path 337" d="M31.411 5.38V.892a.894.894 0 10-1.788 0v4.486a.894.894 0 101.788 0z" fill="#ffcc24"/><path data-name="Path 338" d="M20.307 9.119a.894.894 0 00.764-1.357l-2.32-3.839a.894.894 0 10-1.53.925l2.32 3.839a.893.893 0 00.766.432z" fill="#ffcc24"/><path data-name="Path 339" d="M12.623 16.734a.894.894 0 10.831-1.583l-3.971-2.086a.894.894 0 00-.831 1.583z" fill="#ffcc24"/><path data-name="Path 340" d="M43.511 3.622a.894.894 0 00-1.228.3l-2.32 3.839a.894.894 0 101.53.925l2.32-3.839a.894.894 0 00-.302-1.225z" fill="#ffcc24"/><path data-name="Path 341" d="M51.551 13.066l-3.971 2.086a.894.894 0 00-.376 1.207.9.9 0 001.207.376l3.971-2.086a.894.894 0 00-.832-1.583z" fill="#ffcc24"/></svg>