<svg xmlns="http://www.w3.org/2000/svg" width="72.724" height="75"><path data-name="Path 67" d="M66.723 59.582a30.56 30.56 0 01-5.879-7.261 1.914 1.914 0 01.547-2.5 27.548 27.548 0 10-40.34-35.57L50.88 55.672A39.26 39.26 0 0065.769 61.5a1.115 1.115 0 00.95-1.919z" fill="#dfebfa"/><path data-name="Path 68" d="M22.225 15.876L50.88 55.668a32.8 32.8 0 004.242 2.439 27.568 27.568 0 00-32.9-42.23z" fill="#b1dbfc"/><path data-name="Path 69" d="M27.546 13.48A27.547 27.547 0 0011.33 63.296a1.914 1.914 0 01.547 2.5A30.563 30.563 0 016 73.057a1.115 1.115 0 00.95 1.919 38.93 38.93 0 0015.347-6.148 2.716 2.716 0 011.9-.464 27.546 27.546 0 103.346-54.889z" fill="#fee55a"/><path data-name="Path 70" d="M11.965 73.057a30.56 30.56 0 005.879-7.261 1.914 1.914 0 00-.547-2.5 27.549 27.549 0 0113.225-49.655 27.849 27.849 0 00-2.976-.161A27.547 27.547 0 0011.33 63.296a1.914 1.914 0 01.547 2.5A30.56 30.56 0 016 73.057a1.115 1.115 0 00.949 1.919 44.3 44.3 0 004.649-1.1 1.079 1.079 0 01.367-.819z" fill="#ffd301"/><path data-name="Path 71" d="M42.694 45.756H12.398a1.635 1.635 0 00-1.512 2.261 18.068 18.068 0 0033.32 0 1.635 1.635 0 00-1.512-2.261z" fill="#dfebfa"/><path data-name="Path 72" d="M17.365 48.017a1.635 1.635 0 011.512-2.261h-6.479a1.635 1.635 0 00-1.512 2.261 18.071 18.071 0 0019.9 10.783 18.09 18.09 0 01-13.421-10.783z" fill="#b1dbfc"/><g data-name="Group 91" fill="#ffc20c"><path data-name="Path 73" d="M22.833 35.66a1.132 1.132 0 01-1.132-1.132 4.07 4.07 0 10-8.139 0 1.132 1.132 0 11-2.263 0 6.333 6.333 0 1112.666 0 1.132 1.132 0 01-1.132 1.132z"/><path data-name="Path 74" d="M42.664 35.66a1.132 1.132 0 01-1.132-1.132 4.07 4.07 0 10-8.139 0 1.132 1.132 0 11-2.263 0 6.333 6.333 0 0112.666 0 1.132 1.132 0 01-1.132 1.132z"/></g></svg>