<svg xmlns="http://www.w3.org/2000/svg" width="52.128" height="52.237"><g transform="translate(-.522)"><path data-name="Path 408" d="M52.65 26.119v1.415a27.114 27.114 0 01-2.5 9.9 26.25 26.25 0 112.5-11.318z" fill="#ff7058"/><circle data-name="Ellipse 47" cx="20.677" cy="20.677" r="20.677" transform="translate(5.855 5.441)" fill="#fff"/><circle data-name="Ellipse 48" cx="15.345" cy="15.345" r="15.345" transform="translate(11.187 10.774)" fill="#ff7058"/><circle data-name="Ellipse 49" cx="9.903" cy="9.903" r="9.903" transform="translate(16.628 16.215)" fill="#fff"/><circle data-name="Ellipse 50" cx="4.462" cy="4.462" r="4.462" transform="translate(22.07 21.657)" fill="#ff7058"/><path data-name="Path 409" d="M52.651 27.533a27.113 27.113 0 01-2.5 9.9l-3.809-.979-1.088-3.7-19.045-5.115a1.757 1.757 0 11.979-3.374l18.936 5.115 2.829-2.721z" fill="#334a5e" opacity=".2"/><path data-name="Path 410" d="M42.203 10.339a1.844 1.844 0 00-2.5 0L25.447 24.595a1.844 1.844 0 000 2.5 1.844 1.844 0 002.5 0l14.256-14.256a1.844 1.844 0 000-2.5z" fill="#40596b"/><path data-name="Path 411" d="M46.23 6.312l-6.421 6.312-1.415-5.769L44.815.434z" fill="#84dbff"/><path data-name="Path 412" d="M45.686 14.039l6.312-6.312-5.768-1.419-6.421 6.312z" fill="#54c0eb"/></g></svg>