<svg xmlns="http://www.w3.org/2000/svg" width="61.128" height="66.089"><defs><filter id="a" x="0" y="4.297" width="61.128" height="61.792" filterUnits="userSpaceOnUse"><feOffset dy="3"/><feGaussianBlur stdDeviation="1.5" result="blur"/><feFlood flood-opacity=".161"/><feComposite operator="in" in2="blur"/><feComposite in="SourceGraphic"/></filter></defs><g transform="translate(0 -.003)" filter="url(#a)"><path data-name="Path 370" d="M54.831 58.59H6.3a1.974 1.974 0 01-1.8-2.112V7.91a1.974 1.974 0 011.8-2.112h48.531a1.974 1.974 0 011.8 2.112v48.568a1.974 1.974 0 01-1.8 2.112z" fill="#eff2fa"/></g><path data-name="Path 371" d="M56.628 16.785H4.5V5.043c0-1.621.8-2.936 1.8-2.936h48.531c.993 0 1.8 1.314 1.8 2.936z" fill="#27488f"/><path data-name="Rectangle 88" fill="#e4eaf6" d="M4.5 16.785h52.128v1.798H4.5z"/><g data-name="Group 199" transform="translate(4.5 -26.483)"><circle data-name="Ellipse 45" cx="2.696" cy="2.696" r="2.696" transform="translate(4.943 29.629)" fill="#003a7d"/><path data-name="Path 372" d="M7.639 33.673a1.348 1.348 0 01-1.348-1.348v-4.494a1.348 1.348 0 011.348-1.348 1.348 1.348 0 011.348 1.348v4.494a1.348 1.348 0 01-1.348 1.348z" fill="#c7cfe2"/><path data-name="Path 373" d="M7.639 30.977a1.348 1.348 0 01-1.348-1.348v2.7a1.35 1.35 0 002.7 0v-2.7a1.348 1.348 0 01-1.352 1.348z" fill="#afb9d2"/><circle data-name="Ellipse 46" cx="2.696" cy="2.696" r="2.696" transform="translate(41.793 29.629)" fill="#003a7d"/><path data-name="Path 374" d="M44.489 33.673a1.348 1.348 0 01-1.348-1.348v-4.494a1.348 1.348 0 011.348-1.348 1.348 1.348 0 011.348 1.348v4.494a1.348 1.348 0 01-1.348 1.348z" fill="#c7cfe2"/><path data-name="Path 375" d="M44.489 30.977a1.348 1.348 0 01-1.348-1.348v2.7a1.35 1.35 0 102.7 0v-2.7a1.348 1.348 0 01-1.352 1.348z" fill="#afb9d2"/></g></svg>