<svg xmlns="http://www.w3.org/2000/svg" width="126" height="83" viewBox="0 0 126 83"><g><g><path fill="#00de5b" d="M.71 73.032v-62.85C.716 5.08 5.362.94 11.096.926L33.943.895c3.282.004 6.364 1.392 8.308 3.743C44.195 2.282 47.277.885 50.56.872L75.484.84c3.282.004 6.365 1.392 8.308 3.743C85.736 2.226 88.819.829 92.1.816l22.848-.03c5.733-.003 10.379 4.126 10.385 9.228v62.85c-.006 5.101-4.652 9.242-10.385 9.255L92.1 82.15c-3.281-.003-6.364-1.392-8.308-3.742-1.943 2.356-5.026 3.753-8.308 3.765l-24.925.033c-3.282-.003-6.364-1.392-8.308-3.742-1.944 2.356-5.026 3.753-8.308 3.765l-22.847.03C5.362 82.261.716 78.133.71 73.032zm85.16-62.965v62.85c0 3.062 2.789 5.54 6.23 5.536l22.848-.03c3.442-.005 6.231-2.492 6.231-5.554v-62.85c0-3.062-2.79-5.541-6.231-5.537L92.1 4.513c-3.441.005-6.23 2.491-6.23 5.554zm-41.542.057v62.849c0 3.062 2.79 5.54 6.231 5.536l24.925-.033c3.442-.005 6.231-2.492 6.231-5.554v-62.85c0-3.062-2.79-5.541-6.231-5.536l-24.925.033c-3.441.005-6.231 2.491-6.231 5.555zM4.864 73.026c0 3.062 2.79 5.541 6.232 5.536l22.847-.03c3.441-.005 6.23-2.491 6.23-5.554V10.13c0-3.063-2.789-5.542-6.23-5.537l-22.847.03c-3.442.005-6.232 2.492-6.232 5.555zm85.16-38.933v-7.395c0-1.02.93-1.85 2.076-1.851l22.848-.031c1.147-.002 2.077.825 2.077 1.845v7.395c0 .364-.122.72-.349 1.024-.079.108-7.959 10.785-7.959 21.169 0 1.02-.93 1.85-2.078 1.852l-12.462.016c-.63.001-1.226-.252-1.62-.689a1.697 1.697 0 0 1-.409-1.558c.152-.6 3.227-12.757 8.228-19.943l-8.276.01c-1.147.002-2.077-.824-2.077-1.844zm4.153-1.855l10.386-.014c.84-.001 1.596.449 1.918 1.139.322.69.144 1.485-.45 2.014-4.106 3.66-7.61 13.525-9.213 19.039l7.813-.01c.71-9.654 6.699-18.703 8.24-20.886v-5.004l-18.694.025zM50.56 34.146V26.75c0-1.02.93-1.85 2.077-1.85l22.848-.032c1.147-.001 2.077.825 2.077 1.846v7.394c0 .364-.121.72-.349 1.025-.079.107-7.959 10.785-7.959 21.168 0 1.02-.93 1.85-2.077 1.852l-12.462.017c-.63 0-1.227-.252-1.622-.69a1.696 1.696 0 0 1-.407-1.557c.15-.6 3.227-12.758 8.227-19.944l-8.276.01c-1.147.003-2.077-.824-2.077-1.844zm4.155-1.855l10.385-.014c.84 0 1.596.45 1.918 1.14.321.69.144 1.484-.45 2.014-4.106 3.66-7.61 13.524-9.214 19.038l7.815-.01c.71-9.654 6.698-18.703 8.24-20.886V28.57l-18.694.025zm-45.696 1.91v-7.394c0-1.02.93-1.85 2.078-1.85l22.847-.032c1.147-.001 2.077.825 2.077 1.846v7.394c0 .364-.122.72-.35 1.025-.078.107-7.958 10.785-7.958 21.168 0 1.02-.93 1.85-2.078 1.852l-12.462.017c-.63 0-1.226-.252-1.621-.69a1.696 1.696 0 0 1-.408-1.557c.16-.6 3.228-12.758 8.227-19.944l-8.274.011c-1.148.002-2.078-.825-2.078-1.845zm4.154-1.854l10.386-.014c.84 0 1.597.45 1.918 1.14.322.69.144 1.484-.45 2.014-4.106 3.66-7.61 13.524-9.214 19.038l7.814-.01c.71-9.653 6.698-18.703 8.24-20.886v-5.004l-18.694.025zM9.018 10.171c0-1.021.93-1.85 2.078-1.851l2.076-.003c1.148-.002 2.078.824 2.078 1.846 0 1.02-.93 1.849-2.078 1.85l-2.076.003c-1.148.002-2.078-.824-2.078-1.845zm10.386-.014c0-1.021.93-1.85 2.076-1.852l10.386-.014c1.146-.001 2.077.825 2.077 1.847 0 1.02-.93 1.849-2.077 1.85l-10.386.015c-1.147.001-2.076-.825-2.076-1.846zm31.155-.042c0-1.021.93-1.85 2.077-1.851l2.078-.003c1.146-.002 2.076.824 2.076 1.846 0 1.02-.93 1.85-2.076 1.85l-2.078.003c-1.147.002-2.077-.824-2.077-1.845zm10.385-.014c0-1.021.93-1.85 2.078-1.852l10.385-.014c1.147-.001 2.077.825 2.077 1.846 0 1.021-.93 1.85-2.077 1.851l-10.385.014c-1.147.002-2.078-.824-2.078-1.845zm29.08-.04c0-1.02.93-1.85 2.076-1.85l2.077-.004c1.147-.001 2.078.825 2.078 1.846 0 1.021-.93 1.85-2.078 1.851l-2.077.003c-1.147.002-2.077-.825-2.077-1.845zm10.385-.013c0-1.022.93-1.85 2.076-1.852l10.386-.014c1.147-.001 2.077.825 2.077 1.846 0 1.02-.93 1.85-2.077 1.851l-10.386.014c-1.146.002-2.076-.825-2.076-1.845zm14.539 62.83c0 1.02-.93 1.849-2.077 1.85l-2.077.003c-1.147.001-2.077-.825-2.077-1.845 0-1.022.93-1.85 2.077-1.852l2.077-.003c1.147-.001 2.077.825 2.077 1.846zm-24.925.033c0-1.022.93-1.85 2.077-1.852l10.385-.014c1.148-.001 2.078.825 2.078 1.846 0 1.02-.93 1.85-2.078 1.851l-10.385.014c-1.147.002-2.077-.825-2.077-1.845zm-16.616.022c0 1.02-.93 1.85-2.077 1.851l-2.077.003c-1.147.002-2.077-.825-2.077-1.845 0-1.021.93-1.85 2.077-1.852l2.077-.003c1.147-.001 2.077.825 2.077 1.846zm-24.925.034c0-1.021.93-1.85 2.077-1.852l10.385-.014c1.148-.001 2.078.825 2.078 1.846 0 1.02-.93 1.85-2.078 1.851l-10.385.014c-1.147.002-2.077-.824-2.077-1.845zm-14.539.02c0 1.02-.93 1.849-2.077 1.85l-2.078.003c-1.146.002-2.076-.824-2.076-1.845s.93-1.85 2.076-1.852l2.078-.002c1.146-.002 2.077.824 2.077 1.846zm-24.925.033c0-1.021.93-1.85 2.078-1.851l10.384-.014c1.148-.002 2.078.824 2.078 1.846 0 1.02-.93 1.85-2.078 1.85l-10.384.015c-1.148.001-2.078-.825-2.078-1.846z"/></g></g></svg>