<svg xmlns="http://www.w3.org/2000/svg" width="117" height="113" viewBox="0 0 117 113"><g><g><path fill="#e00699" d="M109.32 91.673a2.258 2.258 0 0 1-3.134.67 2.287 2.287 0 0 1-.667-3.152c10.523-16.299 8.228-38.12-5.457-51.884-16.078-16.171-42.238-16.171-58.316 0-16.078 16.172-16.078 42.484 0 58.656 13.703 13.782 35.416 16.078 51.628 5.46a2.258 2.258 0 0 1 3.135.666 2.287 2.287 0 0 1-.662 3.153c-7.406 4.851-16.135 7.425-24.977 7.425a45.44 45.44 0 0 1-4.49-.222c-10.487-1.043-20.374-5.751-27.839-13.26a45.798 45.798 0 0 1-10.422-16.21H11.995a2.272 2.272 0 0 1-2.265-2.278 2.272 2.272 0 0 1 2.265-2.28h14.678a46.487 46.487 0 0 1-1.414-8.759H15.167a2.272 2.272 0 0 1-2.265-2.278 2.272 2.272 0 0 1 2.265-2.28h10.02a46.595 46.595 0 0 1 1.124-8.759H2.932a2.272 2.272 0 0 1-2.265-2.279 2.272 2.272 0 0 1 2.265-2.279h24.66a45.818 45.818 0 0 1 4.02-8.759H18.377a2.273 2.273 0 0 1-2.266-2.278 2.273 2.273 0 0 1 2.266-2.28h16.146c.058 0 .115.005.172.01a46.204 46.204 0 0 1 3.846-4.392A45.42 45.42 0 0 1 60.854 21.74v-5.807a7.753 7.753 0 0 1-5.844-7.519c0-4.272 3.455-7.748 7.703-7.748h16.313c4.248 0 7.704 3.476 7.704 7.748a7.752 7.752 0 0 1-5.844 7.52v5.79a45.42 45.42 0 0 1 22.38 12.36 46.233 46.233 0 0 1 13.18 27.972c1.027 10.39-1.504 20.909-7.126 29.617zM62.713 11.605h16.313c1.75 0 3.172-1.431 3.172-3.19 0-1.76-1.423-3.19-3.172-3.19H62.713c-1.749 0-3.172 1.43-3.172 3.19 0 1.759 1.423 3.19 3.172 3.19zm13.641 9.343v-4.785H65.385v4.793a45.895 45.895 0 0 1 10.969-.008zm26.913 75.014c.422.424.664 1.012.664 1.611a2.27 2.27 0 0 1-2.266 2.279c-.597 0-1.18-.242-1.601-.668a2.294 2.294 0 0 1-.664-1.61 2.271 2.271 0 0 1 2.266-2.279 2.28 2.28 0 0 1 1.601.667zm2.785-29.327c0 19.493-15.767 35.352-35.148 35.352-19.38 0-35.148-15.859-35.148-35.352 0-19.494 15.768-35.353 35.148-35.353 19.38 0 35.148 15.86 35.148 35.353zm-4.532 0c0-16.98-13.734-30.795-30.616-30.795-16.882 0-30.616 13.815-30.616 30.795 0 16.98 13.734 30.794 30.616 30.794 16.882 0 30.616-13.814 30.616-30.794zM88.44 48.996c.885.89.885 2.333 0 3.223l-.329.331-10.892 10.956c.463.944.726 2.006.726 3.128 0 3.905-3.159 7.082-7.04 7.082-3.883 0-7.041-3.177-7.041-7.082a7.07 7.07 0 0 1 .726-3.128l-5.023-5.051a2.288 2.288 0 0 1 0-3.223c.886-.89 2.32-.89 3.205 0l5.022 5.052a6.963 6.963 0 0 1 3.11-.73c1.116 0 2.172.263 3.11.73l11.222-11.288c.885-.89 2.32-.89 3.204 0zM73.413 66.635a2.52 2.52 0 0 0-2.509-2.524 2.52 2.52 0 0 0-2.509 2.524 2.52 2.52 0 0 0 2.51 2.523 2.52 2.52 0 0 0 2.508-2.523zm23.982.027a2.272 2.272 0 0 1-2.266 2.28h-2.1a2.272 2.272 0 0 1-2.265-2.28 2.272 2.272 0 0 1 2.266-2.279h2.099a2.272 2.272 0 0 1 2.266 2.28zm-46.351-.055a2.272 2.272 0 0 1-2.266 2.279H46.68a2.272 2.272 0 0 1-2.265-2.28 2.272 2.272 0 0 1 2.265-2.278h2.1a2.272 2.272 0 0 1 2.265 2.279zM68.666 44.38V42.27a2.273 2.273 0 0 1 2.266-2.279 2.272 2.272 0 0 1 2.265 2.279v2.111a2.272 2.272 0 0 1-2.265 2.279 2.272 2.272 0 0 1-2.266-2.279zm4.476 44.51V91a2.272 2.272 0 0 1-2.266 2.28A2.272 2.272 0 0 1 68.611 91v-2.11a2.272 2.272 0 0 1 2.265-2.28 2.272 2.272 0 0 1 2.266 2.28zM4.534 79.084c.422.423.664 1.011.664 1.61 0 .6-.242 1.188-.664 1.612a2.275 2.275 0 0 1-1.602.668c-.595 0-1.18-.244-1.602-.668a2.299 2.299 0 0 1-.663-1.611c0-.6.242-1.188.663-1.611a2.277 2.277 0 0 1 1.602-.668c.596 0 1.18.244 1.602.668z"/></g></g></svg>