<svg width="29" height="29" fill="none" xmlns="http://www.w3.org/2000/svg"><g clip-path="url(#clip0)"><path d="M14.5 29C22.508 29 29 22.508 29 14.5S22.508 0 14.5 0 0 6.492 0 14.5 6.492 29 14.5 29z" fill="#ECE5DD"/><path d="M14.5 29C22.508 29 29 22.508 29 14.5S22.508 0 14.5 0 0 6.492 0 14.5 6.492 29 14.5 29z" fill="#ECE5DD"/><path d="M29 14.501c0-4.041-1.653-7.696-4.32-10.325l-8.288 6.543-2.522.63-8.196-5.674-2.104-.701c-.28.32-.545.654-.797 1L20.91 27.51C25.703 25.144 29 20.208 29 14.501z" fill="#D9CBBD"/><path d="M29 14.502c0-3.21-1.045-6.177-2.812-8.58l-1.002.787v17.594a14.447 14.447 0 003.814-9.8z" fill="#AC2201"/><path d="M23.569 3.188l-8.711 6.589a.594.594 0 01-.717 0L5.43 3.187a14.584 14.584 0 00-2.657 2.784l11.36 8.912a.594.594 0 00.733 0l11.36-8.912a14.582 14.582 0 00-2.657-2.784z" fill="#CD2900"/><path d="M3.814 24.303V6.709l-1.003-.787A14.434 14.434 0 000 14.502c0 3.78 1.446 7.22 3.814 9.8z" fill="#AC2201"/></g><defs><clipPath id="clip0"><path fill="#fff" d="M0 0h29v29H0z"/></clipPath></defs></svg>