<svg width="58" height="58" fill="none" xmlns="http://www.w3.org/2000/svg"><g clip-path="url(#clip0)" fill="#E41C6B"><path d="M53.331 9.86H4.866a4.529 4.529 0 00-4.524 4.523v29.433a4.529 4.529 0 004.523 4.524h48.467a4.529 4.529 0 004.523-4.524V14.383a4.529 4.529 0 00-4.523-4.524zM4.866 12.105H53.33a2.28 2.28 0 012.278 2.277v26.243H22.513a1.123 1.123 0 000 2.247H55.61v.943a2.28 2.28 0 01-2.278 2.277H4.866a2.28 2.28 0 01-2.278-2.277v-.943h10.045a1.123 1.123 0 000-2.247H2.588V14.383a2.28 2.28 0 012.278-2.277z"/><path d="M31.801 19.165h6.065a1.123 1.123 0 000-2.247H31.8a1.123 1.123 0 000 2.247zm10.951 0h6.235a1.123 1.123 0 000-2.247h-6.235a1.123 1.123 0 000 2.247zM31.801 23.97h17.186a1.123 1.123 0 000-2.247H31.8a1.123 1.123 0 000 2.246zm0 4.925h5.166a1.123 1.123 0 000-2.247h-5.166a1.123 1.123 0 000 2.247zm16.029-2.247h-4.38c-1.5 0-2.72 1.22-2.72 2.72v4.227c0 1.5 1.22 2.72 2.72 2.72h4.38c1.5 0 2.719-1.22 2.719-2.72v-4.227c0-1.5-1.22-2.72-2.72-2.72zm.472 6.947c0 .26-.212.473-.472.473h-4.38a.473.473 0 01-.473-.473v-4.227c0-.261.212-.473.473-.473h4.38c.26 0 .472.212.472.473v4.227zm-16.501.257h5.166a1.123 1.123 0 000-2.246h-5.166a1.123 1.123 0 000 2.246zM9.225 36.188h15.838c.62 0 1.123-.503 1.123-1.123v-17.36c0-.62-.503-1.123-1.123-1.123H9.225c-.62 0-1.123.503-1.123 1.123v17.36c0 .62.503 1.123 1.123 1.123zm14.714-2.247H10.35v-3.226l.01-.038c.468-1.731 2.08-2.94 3.92-2.94h5.73c1.84 0 3.452 1.209 3.92 2.94l.01.037v3.227zm-9.188-10.843a2.395 2.395 0 012.393-2.393 2.395 2.395 0 012.392 2.393 2.395 2.395 0 01-2.392 2.392 2.395 2.395 0 01-2.393-2.392zm9.188 3.748a6.357 6.357 0 00-2.877-1.269 4.61 4.61 0 00.72-2.48 4.646 4.646 0 00-2.823-4.268h4.98v8.017zm-8.61-8.017a4.646 4.646 0 00-2.824 4.269c0 .911.265 1.761.721 2.48a6.354 6.354 0 00-2.878 1.268V18.83h4.98zm2.947 21.989c-.848-.565-1.978.254-1.705 1.233.128.461.547.8 1.026.822.48.023.929-.27 1.102-.717a1.13 1.13 0 00-.423-1.338z"/></g><defs><clipPath id="clip0"><path fill="#fff" d="M.342.344h57.514v57.514H.342z"/></clipPath></defs></svg>