<svg width="58" height="58" fill="none" xmlns="http://www.w3.org/2000/svg"><g clip-path="url(#clip0)" fill="#E41C6B"><path d="M52.914 46.683a4.767 4.767 0 001.192-3.156v-.488a4.793 4.793 0 00-4.788-4.788 4.793 4.793 0 00-4.788 4.788v.488c0 1.208.45 2.313 1.192 3.156a8.063 8.063 0 00-3.818 3.316 8.064 8.064 0 00-3.817-3.316 4.767 4.767 0 001.191-3.156v-.488a4.793 4.793 0 00-4.788-4.788 4.793 4.793 0 00-4.788 4.788v.488c0 1.208.451 2.313 1.192 3.156a8.063 8.063 0 00-3.817 3.316 8.064 8.064 0 00-3.818-3.316 4.767 4.767 0 001.192-3.156v-.488a4.793 4.793 0 00-4.788-4.788 4.793 4.793 0 00-4.788 4.788v.488c0 1.208.45 2.313 1.192 3.156a8.043 8.043 0 00-2.695 1.845V37.561l2.68-1.272h22.103a1.123 1.123 0 000-2.247H19.508a14.108 14.108 0 002.262-2.535l1.058-1.526a3.075 3.075 0 00-.422-3.976 3.036 3.036 0 00-2.252-.821 3.032 3.032 0 00-2.152 1.055 11.784 11.784 0 01-6.08 3.745l-.327.082a4.99 4.99 0 00.625-2.423v-.52a5.028 5.028 0 00-5.022-5.021 5.028 5.028 0 00-5.022 5.021v.52c0 1.176.407 2.258 1.087 3.115a4.675 4.675 0 00-2.921 4.328v21.647c0 .62.503 1.123 1.123 1.123h55.267c.62 0 1.123-.503 1.123-1.123v-2.648c0-3.331-2.042-6.193-4.94-7.402zm-6.137-3.644a2.544 2.544 0 012.541-2.542 2.544 2.544 0 012.541 2.542v.488a2.544 2.544 0 01-2.54 2.542 2.544 2.544 0 01-2.542-2.542v-.488zm-14.828 0a2.544 2.544 0 012.541-2.542 2.544 2.544 0 012.542 2.542v.488a2.544 2.544 0 01-2.542 2.542 2.544 2.544 0 01-2.54-2.542v-.488zm-14.828 0a2.544 2.544 0 012.542-2.542 2.544 2.544 0 012.541 2.542v.488a2.544 2.544 0 01-2.541 2.542 2.544 2.544 0 01-2.542-2.542v-.488zM4.423 27.124a2.779 2.779 0 012.775-2.776 2.779 2.779 0 012.775 2.776v.52a2.778 2.778 0 01-2.719 2.773h-.112a2.778 2.778 0 01-2.72-2.774v-.52zm-1.835 7.962a2.424 2.424 0 012.422-2.422h5.324a1.1 1.1 0 00.274-.034l1.86-.467a14.02 14.02 0 007.234-4.456.805.805 0 01.571-.28.803.803 0 01.598.218c.292.273.34.727.112 1.056l-1.059 1.525a11.86 11.86 0 01-4.651 3.946l-3.506 1.664a1.123 1.123 0 00-.641 1.015v8.087H2.588v-9.852zm0 12.1h8.538v8.424H7.98v-4.212a1.123 1.123 0 00-2.246 0v4.212H2.588v-8.425zm10.784 6.899a5.776 5.776 0 015.77-5.77h1.042a5.776 5.776 0 015.77 5.77v1.525H13.371v-1.525zm14.828 0a5.776 5.776 0 015.77-5.77h1.041a5.776 5.776 0 015.77 5.77v1.525H28.2v-1.525zm27.409 1.525H43.028v-1.525a5.776 5.776 0 015.77-5.77h1.041a5.776 5.776 0 015.77 5.77v1.525z"/><path d="M42.649 34.043a1.129 1.129 0 00-1.124 1.123 1.125 1.125 0 001.124 1.124 1.127 1.127 0 001.123-1.123 1.127 1.127 0 00-1.123-1.124z"/><path d="M56.731.344H11.8c-.62 0-1.123.503-1.123 1.123v12.581a1.123 1.123 0 002.246 0V2.59h42.686v31.453h-8.467a1.123 1.123 0 000 2.247h9.59c.62 0 1.124-.503 1.124-1.124V1.467c0-.62-.503-1.123-1.123-1.123zM11.8 19.665a1.128 1.128 0 001.123-1.124c0-.295-.12-.585-.33-.794a1.132 1.132 0 00-.794-.329 1.129 1.129 0 00-1.124 1.123 1.127 1.127 0 001.124 1.124z"/><path d="M20.785 19.593h-4.306a1.123 1.123 0 000 2.247h5.43l2.851-.005-.001.052a3.599 3.599 0 003.595 3.595 3.599 3.599 0 003.594-3.595l-.001-.053h10.55l-.002.053a3.599 3.599 0 003.595 3.595 3.599 3.599 0 003.595-3.595l-.002-.047h1.88c.62 0 1.124-.503 1.124-1.123v-3.95a4.593 4.593 0 00-4.588-4.587h-1.681l-2.11-4.971a3.888 3.888 0 00-3.586-2.373h-9.01a3.888 3.888 0 00-3.585 2.373l-2.11 4.971h-6.824a1.123 1.123 0 000 2.247h2.236a4.558 4.558 0 00-.644 2.34v2.826zm7.569 3.642a1.35 1.35 0 01-1.348-1.348 1.35 1.35 0 011.348-1.348 1.35 1.35 0 011.348 1.348 1.35 1.35 0 01-1.348 1.348zm17.736 0a1.35 1.35 0 01-1.348-1.348 1.35 1.35 0 011.348-1.348 1.35 1.35 0 011.348 1.348 1.35 1.35 0 01-1.348 1.348zm4.35-6.468v2.826h-1.585a3.588 3.588 0 00-5.525-.006h-5.99v-5.16H48.1a2.343 2.343 0 012.341 2.34zm-8.2-8.68l1.737 4.093h-6.636V7.083h3.381c.663 0 1.258.394 1.517 1.004zm-12.045 0a1.645 1.645 0 011.517-1.004h3.382v5.097h-6.637l1.738-4.093zm-3.435 6.34h8.334v5.16h-3.98a3.588 3.588 0 00-5.52 0l-2.563.005v-2.825c0-1.29 1.05-2.34 2.341-2.34h1.388z"/></g><defs><clipPath id="clip0"><path fill="#fff" d="M.342.344h57.514v57.514H.342z"/></clipPath></defs></svg>