<svg width="58" height="58" fill="none" xmlns="http://www.w3.org/2000/svg"><g clip-path="url(#clip0)" fill="#E41C6B"><path d="M53.131 13.33h-.928V.345H5.822V13.33h-.928a4.644 4.644 0 00-4.638 4.638v29.684a4.644 4.644 0 004.638 4.638h12.06v3.711h-3.711v1.855h31.54v-1.855h-3.711v-3.71h12.06a4.644 4.644 0 004.637-4.639V17.97a4.644 4.644 0 00-4.638-4.638zM7.677 9.62h42.671v29.684H7.677V9.62zM50.348 2.2v5.566H7.677V2.199h42.671zM4.894 15.186h.928V41.16h46.381V15.186h.928a2.787 2.787 0 012.783 2.783v25.046H2.111V17.97a2.787 2.787 0 012.783-2.783zm34.323 40.816H18.809v-3.71h20.408v3.71zm13.914-5.566H4.894a2.787 2.787 0 01-2.783-2.783V44.87h53.803v2.783a2.787 2.787 0 01-2.783 2.783z"/><path d="M5.822 46.727h1.856v1.855H5.822v-1.855zm3.709 0h1.855v1.855H9.531v-1.855zm3.713 0H15.1v1.855h-1.855v-1.855zM9.531 4.055h1.855V5.91H9.531V4.055zm3.713 0H15.1V5.91h-1.855V4.055zm3.709 0h1.855V5.91h-1.855V4.055zM24.72 22.8l-3.13-.893v-.247a4.643 4.643 0 001.856-3.691v-1.663c0-2.493-1.856-4.606-4.227-4.812a4.66 4.66 0 00-3.545 1.2 4.646 4.646 0 00-1.505 3.419v1.855c0 1.45.7 2.82 1.856 3.691v.247l-3.13.894a4.66 4.66 0 00-3.364 4.46v2.767h18.553V27.26a4.66 4.66 0 00-3.364-4.46zm1.509 5.372H11.387v-.912c0-1.236.83-2.337 2.018-2.676l4.475-1.279V20.63l-.461-.268a2.753 2.753 0 01-1.394-2.394v-1.855c0-.778.329-1.526.903-2.052a2.748 2.748 0 012.132-.72c1.418.123 2.53 1.425 2.53 2.965v1.662c0 .99-.52 1.886-1.394 2.394l-.46.268v2.675l4.474 1.279a2.797 2.797 0 012.019 2.676v.912zM9.531 31.883h18.553v1.855H9.531v-1.855zm0 3.711h18.553v1.855H9.531v-1.855zm20.409 1.854h18.552V22.605H29.94v14.843zm1.855-12.987h14.842v11.131H31.795V24.461zM29.94 11.477h18.552v1.855H29.94v-1.855zm0 3.711h18.552v1.855H29.94v-1.855zm0 3.707h12.986v1.855H29.94v-1.855z"/></g><defs><clipPath id="clip0"><path fill="#fff" d="M.256.344H57.77v57.514H.256z"/></clipPath></defs></svg>