<svg width="64" height="64" fill="none" xmlns="http://www.w3.org/2000/svg"><path d="M54.736 8.48h-8.45l-5.618-5.617a.984.984 0 00-.696-.289H19.304a1.969 1.969 0 00-1.969 1.969V8.48H9.461A4.927 4.927 0 004.54 13.4v31.496a4.927 4.927 0 004.921 4.922h14.633l-.738 5.905h-1.1a1.969 1.969 0 00-1.968 1.968v1.969h-1.969v1.968h27.559V59.66h-1.969v-1.97a1.969 1.969 0 00-1.968-1.968h-1.1l-.738-5.905h14.633a4.928 4.928 0 004.921-4.922V13.401a4.927 4.927 0 00-4.921-4.921zm-13.78-2.546l2.546 2.546h-2.545V5.934zM19.305 4.543h19.684V8.48a1.968 1.968 0 001.969 1.968h3.937v25.59h-25.59V4.543zM9.46 10.448h7.874v25.59a1.969 1.969 0 001.969 1.969h25.59a1.968 1.968 0 001.968-1.969v-25.59h7.874a2.953 2.953 0 012.953 2.953v26.574H6.509V13.401a2.953 2.953 0 012.952-2.953zM41.94 59.66H22.256v-1.97h19.685v1.969zm-3.084-3.937H25.34l.738-5.905h12.041l.738 5.905zm15.879-7.874H9.461a2.953 2.953 0 01-2.952-2.953v-2.952h51.18v2.952a2.953 2.953 0 01-2.953 2.953z" fill="#E41C6B"/><path d="M54.736 43.91h-1.968v1.969h1.968V43.91zM32.098 10.45a9.842 9.842 0 109.843 9.842 9.853 9.853 0 00-9.843-9.843zm0 17.715a7.874 7.874 0 117.874-7.873 7.883 7.883 0 01-7.874 7.873z" fill="#E41C6B"/><path d="M35.051 17.34v-1.97a.984.984 0 00-.984-.984H30.13a.984.984 0 00-.984.984v1.968h-1.968a.984.984 0 00-.985.985v3.937a.985.985 0 00.985.984h1.968v1.968a.985.985 0 00.984.985h3.937a.985.985 0 00.984-.985v-1.968h1.969a.985.985 0 00.984-.984v-3.937a.984.984 0 00-.984-.985h-1.97zm.985 3.936h-1.969a.984.984 0 00-.984.985v1.968h-1.968v-1.968a.985.985 0 00-.985-.985h-1.968v-1.968h1.968a.984.984 0 00.985-.984v-1.969h1.968v1.969a.984.984 0 00.984.984h1.969v1.968z" fill="#E41C6B"/></svg>