<svg width="208" height="75" fill="none" xmlns="http://www.w3.org/2000/svg"><path d="M5.308 22.402h7.226l5.204 21.078 5.807-21.078h5.592l5.807 21.078 5.205-21.078h7.227l-9.548 30.11h-6.583L26.34 34.749l-5.883 17.764h-6.85l-8.3-30.11z" fill="url(#paint0_linear)"/><path d="M59.482 11.673c-.004 4.982-2.3 10.95-5.13 16.128.963-4.735.109-8.862-.816-11.077a3.974 3.974 0 00-.282-.58 5.46 5.46 0 00-3.558-2.541 9.913 9.913 0 00-4.512.304 29.701 29.701 0 00-6.458 2.747 69.634 69.634 0 00-7.69 4.87A42.65 42.65 0 0149.683 7.8a19.296 19.296 0 015.138-1.289 4.879 4.879 0 012.486.309c1.71.814 2.205 2.983 2.174 4.854z" fill="url(#paint1_linear)"/><path d="M53.665 16.604a3.893 3.893 0 00-.284-.571 5.427 5.427 0 00-1.522-1.62 5.537 5.537 0 00-2.056-.886 10.164 10.164 0 00-4.538.3 30.202 30.202 0 00-6.495 2.709 70.23 70.23 0 00-7.735 4.801 42.082 42.082 0 0111.957-10.332c6.574-.22 9.507 2.416 10.673 5.6z" fill="url(#paint2_linear)"/><path d="M26.507 34.823L23.565 22.63l-6.11 20.82 2.862 8.921 6.19-17.547z" fill="url(#paint3_linear)"/><path d="M34.914 43.448l2.85 8.922 9.435-29.741h-7.142l-5.143 20.819z" fill="url(#paint4_linear)"/><path d="M43.318 7.84S54.542.602 59.443 3.164c4.43 2.314 2.332 10.414 2.332 10.414S66.068 2.773 60.53.488C53.75-2.31 43.318 7.84 43.318 7.84z" fill="url(#paint5_linear)"/><path d="M10.345 49.454l-.474-2.255S1.905 57.02 0 66.596c0 0 4.46-10.798 10.345-17.142z" fill="url(#paint6_linear)"/><path d="M10.777 50.795S3.95 64.024 7.827 66.203c3.877 2.18 25.294.29 41.96-25.47 0 0-18.764 34.267-43.18 34.267-.002 0-14.374-2.059 4.17-24.205z" fill="url(#paint7_linear)"/><path d="M73.616 37L70.4 25.8h1.568l2.56 9.216 2.72-9.216h1.504l2.72 9.216 2.56-9.216H85.6L82.384 37h-1.728L78 28.056 75.344 37h-1.728zm20.64 0l-.913-2.512h-5.04L87.391 37h-1.584l4.176-11.2h1.68L95.84 37h-1.584zm-5.44-3.904h4.015l-2.016-5.52-2 5.52zm15.547-7.296l-3.968 6.672V37h-1.487v-4.544L94.954 25.8h1.665l3.04 5.248 3.039-5.248h1.664zm15.273 9.712c-1.12 1.13-2.491 1.696-4.112 1.696-1.622 0-2.992-.565-4.112-1.696-1.12-1.13-1.68-2.501-1.68-4.112 0-1.621.56-2.992 1.68-4.112 1.12-1.13 2.49-1.696 4.112-1.696 1.621 0 2.992.565 4.112 1.696 1.13 1.12 1.696 2.49 1.696 4.112 0 1.61-.566 2.981-1.696 4.112zm-7.2-1.008c.832.832 1.861 1.248 3.088 1.248 1.226 0 2.25-.416 3.072-1.248.832-.843 1.248-1.877 1.248-3.104 0-1.237-.416-2.272-1.248-3.104-.822-.843-1.846-1.264-3.072-1.264-1.227 0-2.256.421-3.088 1.264-.822.832-1.232 1.867-1.232 3.104 0 1.227.41 2.261 1.232 3.104zm17.453-7.296h-4.96v3.632h4.752v1.408h-4.752V37h-1.488V25.8h6.448v1.408zm10.058 10c-1.046 0-1.942-.245-2.688-.736a3.903 3.903 0 01-1.552-2.016l1.28-.736c.437 1.355 1.434 2.032 2.992 2.032.768 0 1.354-.155 1.76-.464.405-.32.608-.741.608-1.264 0-.533-.203-.933-.608-1.2-.406-.267-1.083-.55-2.032-.848a49.08 49.08 0 01-1.072-.352 13.158 13.158 0 01-.928-.416c-.363-.192-.635-.384-.816-.576a3.17 3.17 0 01-.496-.784 2.706 2.706 0 01-.208-1.088c0-.97.341-1.739 1.024-2.304.682-.576 1.514-.864 2.496-.864.885 0 1.653.224 2.304.672a4.168 4.168 0 011.488 1.776l-1.248.72c-.48-1.152-1.328-1.728-2.544-1.728-.608 0-1.099.15-1.472.448-.374.299-.56.704-.56 1.216 0 .49.176.864.528 1.12.352.256.96.523 1.824.8.309.096.528.165.656.208.128.043.325.117.592.224.277.107.48.192.608.256s.298.155.512.272c.224.117.389.23.496.336.106.107.229.24.368.4.149.15.256.304.32.464.064.16.117.347.16.56.053.203.08.421.08.656 0 .981-.358 1.765-1.072 2.352-.715.576-1.648.864-2.8.864zm13.042-1.072c-.779.715-1.787 1.072-3.024 1.072-1.238 0-2.251-.357-3.04-1.072-.779-.725-1.168-1.69-1.168-2.896V25.8h1.488v7.376c0 .79.234 1.419.704 1.888.469.459 1.141.688 2.016.688.874 0 1.546-.23 2.016-.688.469-.47.704-1.099.704-1.888V25.8h1.472v7.44c0 1.205-.39 2.17-1.168 2.896zm9.027 1.072c-1.696 0-3.099-.56-4.208-1.68-1.099-1.12-1.648-2.496-1.648-4.128 0-1.632.549-3.008 1.648-4.128 1.109-1.12 2.512-1.68 4.208-1.68 1.024 0 1.963.245 2.816.736a5.298 5.298 0 012.016 1.984l-1.296.752c-.32-.619-.8-1.11-1.44-1.472a4.03 4.03 0 00-2.096-.56c-1.291 0-2.347.416-3.168 1.248-.811.832-1.216 1.872-1.216 3.12 0 1.237.405 2.272 1.216 3.104.821.832 1.877 1.248 3.168 1.248.768 0 1.467-.181 2.096-.544.64-.373 1.12-.864 1.44-1.472l1.296.736a5.292 5.292 0 01-2 2 5.636 5.636 0 01-2.832.736zm12.07 0c-1.696 0-3.099-.56-4.208-1.68-1.099-1.12-1.648-2.496-1.648-4.128 0-1.632.549-3.008 1.648-4.128 1.109-1.12 2.512-1.68 4.208-1.68 1.024 0 1.963.245 2.816.736a5.298 5.298 0 012.016 1.984l-1.296.752c-.32-.619-.8-1.11-1.44-1.472a4.03 4.03 0 00-2.096-.56c-1.291 0-2.347.416-3.168 1.248-.811.832-1.216 1.872-1.216 3.12 0 1.237.405 2.272 1.216 3.104.821.832 1.877 1.248 3.168 1.248.768 0 1.467-.181 2.096-.544.64-.373 1.12-.864 1.44-1.472l1.296.736a5.292 5.292 0 01-2 2 5.636 5.636 0 01-2.832.736zm8.325-1.616h5.2V37h-6.688V25.8h6.608v1.408h-5.12v3.44h4.72v1.392h-4.72v3.552zm10.932 1.616c-1.045 0-1.941-.245-2.688-.736a3.909 3.909 0 01-1.552-2.016l1.28-.736c.438 1.355 1.435 2.032 2.992 2.032.768 0 1.355-.155 1.76-.464a1.53 1.53 0 00.608-1.264c0-.533-.202-.933-.608-1.2-.405-.267-1.082-.55-2.032-.848a53.02 53.02 0 01-1.072-.352 13.583 13.583 0 01-.928-.416c-.362-.192-.634-.384-.816-.576a3.23 3.23 0 01-.496-.784 2.723 2.723 0 01-.208-1.088c0-.97.342-1.739 1.024-2.304.683-.576 1.515-.864 2.496-.864.886 0 1.654.224 2.304.672a4.154 4.154 0 011.488 1.776l-1.248.72c-.48-1.152-1.328-1.728-2.544-1.728-.608 0-1.098.15-1.472.448-.373.299-.56.704-.56 1.216 0 .49.176.864.528 1.12.352.256.96.523 1.824.8.31.096.528.165.656.208.128.043.326.117.592.224.278.107.48.192.608.256s.299.155.512.272c.224.117.39.23.496.336.107.107.23.24.368.4.15.15.256.304.32.464.064.16.118.347.16.56.054.203.08.421.08.656 0 .981-.357 1.765-1.072 2.352-.714.576-1.648.864-2.8.864zm9.18 0c-1.045 0-1.941-.245-2.688-.736a3.909 3.909 0 01-1.552-2.016l1.28-.736c.437 1.355 1.435 2.032 2.992 2.032.768 0 1.355-.155 1.76-.464.405-.32.608-.741.608-1.264 0-.533-.203-.933-.608-1.2-.405-.267-1.083-.55-2.032-.848-.469-.15-.827-.267-1.072-.352a13.367 13.367 0 01-.928-.416c-.363-.192-.635-.384-.816-.576a3.2 3.2 0 01-.496-.784 2.706 2.706 0 01-.208-1.088c0-.97.341-1.739 1.024-2.304.683-.576 1.515-.864 2.496-.864.885 0 1.653.224 2.304.672a4.168 4.168 0 011.488 1.776l-1.248.72c-.48-1.152-1.328-1.728-2.544-1.728-.608 0-1.099.15-1.472.448-.373.299-.56.704-.56 1.216 0 .49.176.864.528 1.12.352.256.96.523 1.824.8.309.096.528.165.656.208.128.043.325.117.592.224.277.107.48.192.608.256s.299.155.512.272c.224.117.389.23.496.336.107.107.229.24.368.4.149.15.256.304.32.464.064.16.117.347.16.56.053.203.08.421.08.656 0 .981-.357 1.765-1.072 2.352-.715.576-1.648.864-2.8.864z" fill="#000"/><path d="M72.1 56.076h4.48V57h-5.46v-9.8h.98v8.876zm8.622-6.244c1.036 0 1.871.369 2.506 1.106.644.728.966 1.591.966 2.59 0 .103-.01.247-.028.434H78.02c.093.71.392 1.274.896 1.694.513.41 1.143.616 1.89.616.532 0 .99-.107 1.372-.322.392-.224.686-.513.882-.868l.812.476a3.324 3.324 0 01-1.26 1.176c-.532.29-1.139.434-1.82.434-1.102 0-1.998-.345-2.688-1.036-.69-.69-1.036-1.568-1.036-2.632 0-1.045.34-1.918 1.022-2.618.681-.7 1.558-1.05 2.632-1.05zm0 .896c-.728 0-1.34.22-1.834.658-.486.43-.775.99-.868 1.68h5.222c-.094-.737-.378-1.311-.854-1.722a2.471 2.471 0 00-1.666-.616zM91.684 50h.924v6.72c0 1.008-.346 1.801-1.036 2.38-.691.579-1.517.868-2.478.868-1.643 0-2.75-.57-3.318-1.708l.812-.462c.42.85 1.255 1.274 2.506 1.274.802 0 1.432-.215 1.89-.644.466-.42.7-.99.7-1.708v-1.092c-.644 1.027-1.587 1.54-2.828 1.54a3.492 3.492 0 01-2.562-1.064c-.7-.71-1.05-1.577-1.05-2.604 0-1.027.35-1.895 1.05-2.604a3.492 3.492 0 012.562-1.064c1.24 0 2.184.513 2.828 1.54V50zm-4.718 5.474c.532.532 1.185.798 1.96.798.774 0 1.428-.266 1.96-.798.532-.541.798-1.2.798-1.974 0-.775-.266-1.428-.798-1.96-.532-.541-1.186-.812-1.96-.812-.775 0-1.428.27-1.96.812-.532.532-.798 1.185-.798 1.96 0 .775.266 1.433.798 1.974zM100.584 50h.924v7h-.924v-1.372c-.644 1.027-1.587 1.54-2.828 1.54a3.492 3.492 0 01-2.562-1.064c-.7-.71-1.05-1.577-1.05-2.604 0-1.027.35-1.895 1.05-2.604a3.492 3.492 0 012.562-1.064c1.241 0 2.184.513 2.828 1.54V50zm-4.718 5.474c.532.532 1.185.798 1.96.798.775 0 1.428-.266 1.96-.798.532-.541.798-1.2.798-1.974 0-.775-.266-1.428-.798-1.96-.532-.541-1.185-.812-1.96-.812-.775 0-1.428.27-1.96.812-.532.532-.798 1.185-.798 1.96 0 .775.266 1.433.798 1.974zM103.464 57V46.78h.924V57h-.924zm6.161-7.168c.849 0 1.517.261 2.002.784.495.513.742 1.209.742 2.086V57h-.924v-4.298c0-.625-.168-1.11-.504-1.456-.327-.345-.793-.518-1.4-.518-.672 0-1.218.215-1.638.644-.42.42-.63 1.073-.63 1.96V57h-.924v-7h.924v1.092c.523-.84 1.307-1.26 2.352-1.26zm7.765 0c1.036 0 1.871.369 2.506 1.106.644.728.966 1.591.966 2.59 0 .103-.01.247-.028.434h-6.146c.093.71.392 1.274.896 1.694.513.41 1.143.616 1.89.616.532 0 .989-.107 1.372-.322.392-.224.686-.513.882-.868l.812.476a3.324 3.324 0 01-1.26 1.176c-.532.29-1.139.434-1.82.434-1.102 0-1.998-.345-2.688-1.036-.691-.69-1.036-1.568-1.036-2.632 0-1.045.34-1.918 1.022-2.618.681-.7 1.558-1.05 2.632-1.05zm0 .896c-.728 0-1.34.22-1.834.658-.486.43-.775.99-.868 1.68h5.222c-.094-.737-.378-1.311-.854-1.722a2.473 2.473 0 00-1.666-.616zm12.082-3.528c.877 0 1.61.294 2.198.882.588.588.882 1.32.882 2.198 0 .877-.294 1.61-.882 2.198-.588.588-1.321.882-2.198.882h-2.52V57h-.98v-9.8h3.5zm0 5.236c.606 0 1.106-.2 1.498-.602.401-.41.602-.929.602-1.554s-.201-1.139-.602-1.54c-.392-.41-.892-.616-1.498-.616h-2.52v4.312h2.52zm5.405-1.274c.429-.85 1.166-1.274 2.212-1.274v.896c-.635 0-1.162.187-1.582.56-.42.373-.63.961-.63 1.764V57h-.924v-7h.924v1.162zM143.951 50h.924v7h-.924v-1.372c-.644 1.027-1.586 1.54-2.828 1.54-.998 0-1.852-.355-2.562-1.064-.7-.71-1.05-1.577-1.05-2.604 0-1.027.35-1.895 1.05-2.604a3.492 3.492 0 012.562-1.064c1.242 0 2.184.513 2.828 1.54V50zm-4.718 5.474c.532.532 1.186.798 1.96.798.775 0 1.428-.266 1.96-.798.532-.541.798-1.2.798-1.974 0-.775-.266-1.428-.798-1.96-.532-.541-1.185-.812-1.96-.812-.774 0-1.428.27-1.96.812-.532.532-.798 1.185-.798 1.96 0 .775.266 1.433.798 1.974zM155.26 50h.952l-2.156 7h-1.008l-1.806-5.642L149.436 57h-1.008l-2.156-7h.952l1.722 5.81L150.78 50h.924l1.834 5.81L155.26 50zm7.938 6.118c-.71.7-1.578 1.05-2.604 1.05-1.027 0-1.9-.35-2.618-1.05-.71-.71-1.064-1.582-1.064-2.618 0-1.036.354-1.904 1.064-2.604.718-.71 1.591-1.064 2.618-1.064 1.026 0 1.894.355 2.604 1.064.718.7 1.078 1.568 1.078 2.604s-.36 1.909-1.078 2.618zm-4.564-.644c.532.532 1.185.798 1.96.798.774 0 1.428-.266 1.96-.798.532-.541.798-1.2.798-1.974 0-.775-.266-1.428-.798-1.96-.532-.541-1.186-.812-1.96-.812-.775 0-1.428.27-1.96.812-.532.532-.798 1.185-.798 1.96 0 .775.266 1.433.798 1.974zm13.25 1.694c-.682 0-1.293-.14-1.834-.42a2.514 2.514 0 01-1.148-1.26l.826-.49c.308.812 1.026 1.218 2.156 1.218.681 0 1.222-.163 1.624-.49.41-.327.616-.826.616-1.498V47.2h.98v7.028c0 .952-.308 1.68-.924 2.184-.607.504-1.372.756-2.296.756zM183.012 50h.924v7h-.924v-1.372c-.644 1.027-1.587 1.54-2.828 1.54a3.491 3.491 0 01-2.562-1.064c-.7-.71-1.05-1.577-1.05-2.604 0-1.027.35-1.895 1.05-2.604a3.491 3.491 0 012.562-1.064c1.241 0 2.184.513 2.828 1.54V50zm-4.718 5.474c.532.532 1.185.798 1.96.798.774 0 1.428-.266 1.96-.798.532-.541.798-1.2.798-1.974 0-.775-.266-1.428-.798-1.96-.532-.541-1.186-.812-1.96-.812-.775 0-1.428.27-1.96.812-.532.532-.798 1.185-.798 1.96 0 .775.266 1.433.798 1.974zm8.606.63h4.032V57h-5.32v-.616l3.892-5.488h-3.752V50h5.04v.616l-3.892 5.488zm11.164-8.904h.924V57h-.924v-1.372c-.644 1.027-1.586 1.54-2.828 1.54-.998 0-1.852-.355-2.562-1.064-.7-.71-1.05-1.577-1.05-2.604 0-1.027.35-1.895 1.05-2.604a3.492 3.492 0 012.562-1.064c1.242 0 2.184.513 2.828 1.54V47.2zm-4.718 8.274c.532.532 1.186.798 1.96.798.775 0 1.428-.266 1.96-.798.532-.541.798-1.2.798-1.974 0-.775-.266-1.428-.798-1.96-.532-.541-1.185-.812-1.96-.812-.774 0-1.428.27-1.96.812-.532.532-.798 1.185-.798 1.96 0 .775.266 1.433.798 1.974zM205.985 50h.98l-2.996 7.644c-.271.69-.658 1.232-1.162 1.624a2.286 2.286 0 01-1.666.532v-.868c.84.093 1.479-.392 1.918-1.456l.182-.434L200.105 50h.98l2.632 5.866L205.985 50z" fill="#DA0D73"/><defs><linearGradient id="paint0_linear" x1="25.753" y1="18.759" x2="28.355" y2="50.694" gradientUnits="userSpaceOnUse"><stop stop-color="#FFAB67"/><stop offset=".055" stop-color="#FF9E6C"/><stop offset=".33" stop-color="#FF6683"/><stop offset=".463" stop-color="#FF518D"/><stop offset="1" stop-color="#5E309D"/></linearGradient><linearGradient id="paint1_linear" x1="42.045" y1="64.478" x2="51.757" y2="90.425" gradientUnits="userSpaceOnUse"><stop stop-color="#00EFA9"/><stop offset="1" stop-color="#3F56F0"/></linearGradient><linearGradient id="paint2_linear" x1="28.569" y1="69.927" x2="39.668" y2="61.036" gradientUnits="userSpaceOnUse"><stop stop-color="#00EFA9"/><stop offset="1" stop-color="#3F56F0"/></linearGradient><linearGradient id="paint3_linear" x1="17.5" y1="49.099" x2="29.608" y2="46.166" gradientUnits="userSpaceOnUse"><stop stop-color="#FFAB67"/><stop offset=".055" stop-color="#FF9E6C"/><stop offset=".33" stop-color="#FF6683"/><stop offset=".463" stop-color="#FF518D"/><stop offset="1" stop-color="#5E309D"/></linearGradient><linearGradient id="paint4_linear" x1="34.84" y1="48.831" x2="49.843" y2="41.712" gradientUnits="userSpaceOnUse"><stop stop-color="#FFAB67"/><stop offset=".055" stop-color="#FF9E6C"/><stop offset=".33" stop-color="#FF6683"/><stop offset=".463" stop-color="#FF518D"/><stop offset="1" stop-color="#5E309D"/></linearGradient><linearGradient id="paint5_linear" x1="14.075" y1="111.595" x2="36.117" y2="100.216" gradientUnits="userSpaceOnUse"><stop stop-color="#00EFA9"/><stop offset="1" stop-color="#3F56F0"/></linearGradient><linearGradient id="paint6_linear" x1="150.611" y1="105.35" x2="170.239" y2="104.028" gradientUnits="userSpaceOnUse"><stop stop-color="#00EFA9"/><stop offset="1" stop-color="#3F56F0"/></linearGradient><linearGradient id="paint7_linear" x1="-11.846" y1="69.072" x2="47.233" y2="36.418" gradientUnits="userSpaceOnUse"><stop stop-color="#00EFA9"/><stop offset="1" stop-color="#3F56F0"/></linearGradient></defs></svg>