<svg width="39" height="39" fill="none" xmlns="http://www.w3.org/2000/svg"><g clip-path="url(#clip0)"><path d="M19.5 39C30.27 39 39 30.27 39 19.5S30.27 0 19.5 0 0 8.73 0 19.5 8.73 39 19.5 39z" fill="#E6EFF4"/><path d="M30.155 8.846a5.413 5.413 0 00-3.84-1.59h-13.63a5.43 5.43 0 00-5.43 5.43v13.63c0 1.499.609 2.857 1.591 3.839l8.753 8.753c.626.06 1.26.093 1.902.093C30.27 39 39 30.27 39 19.5a19.6 19.6 0 00-.093-1.902l-8.753-8.753z" fill="#B6D1DD"/><path d="M26.314 31.745h-13.63a5.43 5.43 0 01-5.43-5.43v-13.63a5.43 5.43 0 015.43-5.43h13.63a5.43 5.43 0 015.43 5.43v13.63a5.43 5.43 0 01-5.43 5.43z" fill="#41A0D7"/><path d="M19.287 12.613c-4.107 0-7.437 3.067-7.437 6.85 0 1.995.926 3.79 2.404 5.043l.194 2.759a.235.235 0 00.351.187l2.44-1.402a8.04 8.04 0 002.048.263c4.108 0 7.438-3.067 7.438-6.85 0-3.783-3.33-6.85-7.438-6.85z" fill="#fff"/><path d="M13.79 29.65l-.36-1.211.503-.15.175.586.535-.295.254.46-1.107.61zm1.774-.978l-.254-.46 1.64-.904.098.023.128.03-.09.404.029.052-.046.025-.007.03-.035-.007-1.463.807zm3.723-.558c-.488 0-.977-.034-1.455-.102l.073-.52a9.952 9.952 0 001.851.086l.025.524c-.163.008-.33.012-.494.012zm1.273-.078l-.065-.52a9.625 9.625 0 001.807-.402l.163.499c-.615.2-1.256.343-1.905.423zm-7.352-.342l-.544-1.825.503-.15.544 1.825-.503.15zm9.99-.353l-.2-.485a9.225 9.225 0 001.627-.878l.295.435a9.758 9.758 0 01-1.721.928zm2.352-1.395l-.33-.408c.484-.39.924-.83 1.306-1.304l.409.329a9.17 9.17 0 01-1.385 1.383zm-13.197-.596a8.947 8.947 0 01-1.242-1.515l.44-.286c.333.511.726.99 1.17 1.426l-.367.375zM27.4 23.93l-.437-.291a7.969 7.969 0 00.84-1.636l.492.183a8.5 8.5 0 01-.895 1.744zm-16.686-.772a8.318 8.318 0 01-.704-1.832l.51-.13c.149.592.37 1.17.659 1.717l-.465.245zm17.82-1.72l-.507-.137a7.655 7.655 0 00.258-1.818l.525.011a8.18 8.18 0 01-.276 1.943zm-18.68-.884a8.223 8.223 0 01-.06-1.962l.523.046a7.76 7.76 0 00.057 1.837l-.52.079zm18.412-1.807a7.656 7.656 0 00-.356-1.802l.499-.163c.203.625.331 1.273.38 1.926l-.524.04zm-17.849-.838l-.516-.097a8.25 8.25 0 01.59-1.871l.478.216a7.721 7.721 0 00-.552 1.752zm17.231-1.653a8.06 8.06 0 00-.923-1.591l.421-.314c.394.53.725 1.1.984 1.696l-.482.21zM11.304 15.5l-.457-.259a8.826 8.826 0 011.154-1.584l.387.354a8.29 8.29 0 00-1.084 1.49zm14.955-1.407a8.758 8.758 0 00-1.367-1.24l.31-.424c.531.39 1.019.832 1.449 1.315l-.392.349zm-13.349-.606l-.356-.386a9.484 9.484 0 011.568-1.17l.27.452a8.944 8.944 0 00-1.482 1.104zm11.368-1.046a9.3 9.3 0 00-1.665-.805l.18-.493a9.848 9.848 0 011.76.85l-.275.447zm-9.236-.412l-.232-.47a9.951 9.951 0 011.83-.686l.134.507a9.427 9.427 0 00-1.732.65zm6.865-.62a9.717 9.717 0 00-1.823-.324l.042-.523a10.25 10.25 0 011.922.342l-.141.505zm-4.41-.192l-.095-.516c.616-.115 1.25-.173 1.885-.173h.058l-.002.526h-.056a9.86 9.86 0 00-1.79.163z" fill="#C8E6EB"/></g><defs><clipPath id="clip0"><path fill="#fff" d="M0 0h39v39H0z"/></clipPath></defs></svg>