<svg width="39" height="39" fill="none" xmlns="http://www.w3.org/2000/svg"><g clip-path="url(#clip0)"><path d="M19.5 39C30.27 39 39 30.27 39 19.5S30.27 0 19.5 0 0 8.73 0 19.5 8.73 39 19.5 39z" fill="#41B4E6"/><path d="M39 19.5c0-.475-.018-.946-.051-1.413l-8.082-8.081-22.734 8.942 8.698 8.699.114.41.148-.149v.001l-.148.148 9.622 9.622C33.843 34.85 39 27.777 39 19.5z" fill="#0091C8"/><path d="M17.606 22.341l8.813 6.653 4.448-18.988-22.734 8.942 6.918 2.292 12.624-8.469-10.069 9.57z" fill="#fff"/><path d="M15.05 21.24l1.895 6.818.661-5.717 10.07-9.57L15.05 21.24z" fill="#D2D2D7"/><path d="M20.47 24.504l-3.525 3.554.661-5.716 2.864 2.162z" fill="#B9B9BE"/></g><defs><clipPath id="clip0"><path fill="#fff" d="M0 0h39v39H0z"/></clipPath></defs></svg>