<svg width="39" height="39" fill="none" xmlns="http://www.w3.org/2000/svg"><path d="M19.5 39C30.27 39 39 30.27 39 19.5S30.27 0 19.5 0 0 8.73 0 19.5 8.73 39 19.5 39z" fill="#ADDC51"/><path d="M11.92 11.834c-3.513 3.513-4.098 8.865-1.702 13l-1.5 5.411 8.637 8.637c.705.077 1.42.118 2.145.118 9.459 0 17.344-6.736 19.123-15.672L27.13 11.834c-4.2-4.2-11.008-4.202-15.21 0z" fill="#94C435"/><path d="M27.13 11.834c-4.2-4.2-11.008-4.202-15.21 0-3.513 3.513-4.098 8.865-1.702 13l-1.5 5.411 5.413-1.499a10.758 10.758 0 0012.999-1.701c4.199-4.2 4.203-11.008 0-15.21z" fill="#5A915A"/><path d="M25.421 23.28c-.004-.321-.304-.583-.672-.628a8.946 8.946 0 01-2.537-.694c-.286-.125-.614-.075-.812.134-.18.192-.363.38-.553.564a10.237 10.237 0 01-4.537-4.537c.184-.19.373-.373.565-.552.208-.198.258-.527.133-.812a8.948 8.948 0 01-.694-2.538c-.045-.368-.306-.668-.627-.672h-.798c-1.165-.066-2.172 1.525-1.668 3.358a12.675 12.675 0 008.842 8.842c1.833.504 3.424-.503 3.358-1.668v-.797z" fill="#fff"/></svg>