<svg xmlns="http://www.w3.org/2000/svg" width="21.054" height="21.092"><path data-name="Icon feather-phone-call" d="M12.889 4.382a4.787 4.787 0 013.782 3.782M12.889.552a8.617 8.617 0 017.612 7.6m-.957 7.641v2.872a1.915 1.915 0 01-2.087 1.915 18.949 18.949 0 01-8.263-2.939 18.671 18.671 0 01-5.745-5.745 18.949 18.949 0 01-2.939-8.3 1.915 1.915 0 011.904-2.087h2.872a1.915 1.915 0 011.915 1.643 12.294 12.294 0 00.67 2.691 1.915 1.915 0 01-.431 2.02l-1.215 1.22a15.32 15.32 0 005.745 5.745l1.216-1.216a1.915 1.915 0 012.02-.431 12.294 12.294 0 002.691.67 1.915 1.915 0 011.646 1.944z" fill="none" stroke="#bf4949" stroke-linecap="round" stroke-linejoin="round"/></svg>