<svg xmlns="http://www.w3.org/2000/svg" width="1345" height="134"><defs><clipPath id="a"><path data-name="Rectangle 143" transform="translate(-41.229 -492)" fill="#fff" d="M0 0h134v1345H0z"/></clipPath></defs><g data-name="Mask Group 9" transform="rotate(90 405.885 447.115)" clip-path="url(#a)"><ellipse data-name="Ellipse 7" cx="27.5" cy="81.5" rx="27.5" ry="81.5" transform="translate(50.771 107)" fill="none" opacity=".86"/><g data-name="Icon ionic-ios-information-circle-outline" fill="#fff"><path data-name="Path 106" d="M68.455 181.948a1.449 1.449 0 111.406-1.441 1.408 1.408 0 01-1.406 1.441zm2.51-.1v-2.686h10.132v2.688z"/><path data-name="Path 107" d="M63.454 180.5a10.813 10.813 0 113.167 7.65 10.746 10.746 0 01-3.167-7.65m-1.683 0a12.5 12.5 0 1012.5-12.5 12.5 12.5 0 00-12.5 12.5z"/></g></g></svg>