<svg xmlns="http://www.w3.org/2000/svg" width="275.271" height="36.918"><path data-name="Rectangle 36" fill="none" stroke="#fff" stroke-miterlimit="3.864" stroke-width="1.857" d="M.928.928h273.414v35.061H.928z"/><path data-name="Path 1" d="M12.783.916h7.6v20.336h-7.6zm31.32 0h7.524l6.269 10.489a13.951 13.951 0 01-.177-1.589 41.47 41.47 0 01-.054-2.283V.916h7.2v20.336h-7.382l-6.386-10.719c.075.461.133.954.17 1.485s.058 1.127.058 1.785v7.449h-7.222zm48.871 0h8.779a17.742 17.742 0 012.45 1.09l-2.27 5.41a9.407 9.407 0 00-2.169-1.209 5.9 5.9 0 00-2.111-.411 2.325 2.325 0 00-1.2.259.821.821 0 00-.415.728c0 .58 1.035 1.094 3.108 1.534l.764.169a5.916 5.916 0 013.382 1.962 5.4 5.4 0 011.246 3.583 7.085 7.085 0 01-2.493 5.6 9.516 9.516 0 01-6.485 2.172 14.962 14.962 0 01-4.092-.576 18.729 18.729 0 01-4.088-1.736l2.36-5.783a15.152 15.152 0 002.863 1.645 6.171 6.171 0 002.347.518 2.186 2.186 0 001.209-.292.9.9 0 00.436-.782c0-.572-.731-1.012-2.2-1.312l-1.109-.239a6.588 6.588 0 01-3.548-2.02 5.314 5.314 0 01-1.246-3.583 6.851 6.851 0 012.4-5.417 8.117 8.117 0 012.08-1.31zm76.778 0h7.6v20.336h-7.6zm78.992 0h8.55l7.158 20.328h-8.039l-.665-2.6h-5.645l-.64 2.6h-8.023zm2.609 12.834h3.108l-.615-2.345q-.465-1.777-.636-2.731a14.163 14.163 0 01-.216-1.806c-.154.564-.224 1.168-.341 1.806s-.328 1.547-.64 2.731zM201.079.916h12.524a7.406 7.406 0 013.124 1.473 6.3 6.3 0 012.16 5.162 5.8 5.8 0 01-1.1 3.649 4.193 4.193 0 01-2.929 1.645l5.555 8.408h-8.384l-3.626-6.816v6.816h-7.32zm7.333 5v4.052h1.163a2.393 2.393 0 001.641-.514 1.874 1.874 0 00.573-1.473 1.963 1.963 0 00-.573-1.518 2.359 2.359 0 00-1.641-.527zm-79.96-5h12.464a7.694 7.694 0 013.369 1.485q2.181 1.8 2.181 5.726 0 3.653-1.961 5.347t-6.232 1.686h-2.343v6.092h-7.478zm7.516 5.43v3.438h1.163a2.6 2.6 0 001.629-.444 1.507 1.507 0 00.565-1.263 1.532 1.532 0 00-.582-1.275 2.553 2.553 0 00-1.616-.457z" fill="#fff" fill-rule="evenodd"/></svg>