<svg xmlns="http://www.w3.org/2000/svg" width="44" height="46.079"><g fill="#6d6d6d" stroke="#6d6d6d" stroke-linecap="round" stroke-linejoin="round" stroke-width=".5"><path data-name="Path 111" d="M29.343 6.869a.346.346 0 00-.346.346v13.3a2.423 2.423 0 01-2.42 2.42h-9.5a2.423 2.423 0 01-2.42-2.42v-13.3a.346.346 0 00-.692 0v13.3a3.115 3.115 0 003.112 3.112h9.5a3.115 3.115 0 003.112-3.112v-13.3a.346.346 0 00-.346-.346zm0 0"/><path data-name="Path 112" d="M29.389 2.094H25.27L24.7.95a1.261 1.261 0 00-1.136-.7h-3.47a1.261 1.261 0 00-1.134.7l-.572 1.144h-4.12A1.269 1.269 0 0013 3.362V4.65a1.269 1.269 0 001.268 1.27H29.39a1.269 1.269 0 001.267-1.27V3.362a1.269 1.269 0 00-1.268-1.268zm-9.811-.834a.573.573 0 01.516-.319h3.47a.573.573 0 01.516.318l.417.834h-5.336zm10.388 3.39a.577.577 0 01-.576.576H14.268a.577.577 0 01-.576-.576V3.362a.577.577 0 01.576-.576H29.39a.577.577 0 01.576.576zm0 0"/></g><g data-name="Group 134" fill="none" stroke="#6d6d6d" stroke-linecap="round"><path data-name="Line 33" d="M18.5 10.579l7 7"/><path data-name="Line 34" d="M25.5 10.579l-7 7"/></g><text data-name="Emalda" transform="translate(22 43.079)" fill="#6d6d6d" font-size="12" font-family="Raleway-Regular, Raleway"><tspan x="-21.036" y="0">Emalda</tspan></text></svg>