<svg xmlns="http://www.w3.org/2000/svg" width="237.61" height="31.342"><path data-name="Rectangle 36" fill="none" stroke="#bf4949" stroke-miterlimit="3.864" d="M.5.5h236.61v30.342H.5z"/><path data-name="Path 1" d="M10.759.489h6.576v17.6h-6.576zm27.1 0h6.511l5.425 9.077a12.071 12.071 0 01-.148-1.377 35.406 35.406 0 01-.047-1.976V.489h6.231v17.6h-6.389l-5.526-9.278c.065.4.115.826.147 1.285s.05.975.05 1.545v6.448h-6.252zm42.294 0h7.6a15.354 15.354 0 012.125.943l-1.969 4.681a8.141 8.141 0 00-1.877-1.047 5.1 5.1 0 00-1.826-.356 2.012 2.012 0 00-1.043.224.71.71 0 00-.36.63c0 .5.9.947 2.689 1.328l.662.146a5.12 5.12 0 012.927 1.7 4.673 4.673 0 011.079 3.1 6.131 6.131 0 01-2.157 4.845 8.235 8.235 0 01-5.612 1.879 12.948 12.948 0 01-3.541-.5 16.208 16.208 0 01-3.538-1.5l2.042-5a13.112 13.112 0 002.477 1.424 5.341 5.341 0 002.031.449 1.892 1.892 0 001.046-.253.774.774 0 00.378-.676c0-.495-.633-.876-1.9-1.136l-.96-.206a5.7 5.7 0 01-3.07-1.748 4.6 4.6 0 01-1.079-3.1 5.929 5.929 0 012.075-4.688A7.024 7.024 0 0180.153.489zm66.443 0h6.576v17.6h-6.576zm68.359 0h7.4l6.195 17.592h-6.957l-.575-2.246h-4.883l-.554 2.246h-6.943zm2.258 11.106h2.689l-.532-2.029q-.4-1.538-.55-2.364a12.257 12.257 0 01-.187-1.563c-.133.488-.194 1.011-.295 1.563s-.284 1.338-.554 2.364zM173.709.489h10.84a6.41 6.41 0 012.7 1.274 5.456 5.456 0 011.87 4.467 5.016 5.016 0 01-.95 3.159 3.629 3.629 0 01-2.535 1.424l4.807 7.276h-7.255l-3.142-5.9v5.9h-6.335zm6.346 4.325V8.32h1.007a2.07 2.07 0 001.42-.445 1.621 1.621 0 00.5-1.274 1.7 1.7 0 00-.5-1.314 2.041 2.041 0 00-1.42-.456zM110.858.489h10.786a6.659 6.659 0 012.916 1.285q1.888 1.559 1.888 4.955a5.8 5.8 0 01-1.7 4.628q-1.7 1.467-5.393 1.459h-2.026v5.273h-6.472zm6.5 4.7v2.975h1.007a2.249 2.249 0 001.414-.385 1.3 1.3 0 00.489-1.093 1.326 1.326 0 00-.5-1.1 2.209 2.209 0 00-1.4-.4z" fill="#bf4949" fill-rule="evenodd"/></svg>