<svg width="114" height="120" fill="none" xmlns="http://www.w3.org/2000/svg"><path d="M109.905 69.567c-2.344-1.785-5.651-2.729-9.566-2.729-3.18 0-6.007.59-8.314 1.643A33.847 33.847 0 0090.1 66.31c2.216-3.814 3.468-8.138 3.468-12.716 0-6.264-2.343-12.05-6.29-16.707 1.483-1.218 3.008-1.559 5.17-.227.84.517 1.776 1.285 2.842 2.352.108.108.212.214.313.319 3.57 3.697 3.177 5.617 2.202 7.138-.013.02-.023.041-.035.063-.14.207-.295.412-.466.617a1.75 1.75 0 002.688 2.24c.285-.342.533-.681.75-1.019.003-.005.007-.008.009-.013a8.487 8.487 0 00.268-.448l.053-.095c.068-.124.132-.249.191-.373.028-.057.054-.115.08-.172.044-.096.085-.193.123-.289 1.836-4.523-1.658-8.377-3.408-10.147a10.758 10.758 0 00-.094-.096l-.06-.06-.14-.14c-1.793-1.793-7.092-7.09-12.908-2.178-5.707-5.292-13.74-8.593-22.623-8.593-8.884 0-16.916 3.301-22.623 8.593-5.816-4.911-11.116.385-12.908 2.179-1.874 1.873-7.575 7.575-1.456 13.694 1.78 1.779 3.676 2.717 5.66 2.806-.005.185-.008.37-.008.556 0 4.489 1.222 8.837 3.467 12.717a33.322 33.322 0 00-1.922 2.171c-2.308-1.053-5.135-1.644-8.316-1.644-1.589 0-3.077.158-4.443.463v-26.35a3.688 3.688 0 003.21-1.864 3.69 3.69 0 000-3.728l-.094-.162c7.6-2.143 13.068-9.17 13.068-17.264C35.87 8.045 27.824 0 17.936 0 12.378 0 7.224 2.515 3.798 6.9a1.75 1.75 0 102.757 2.154 14.356 14.356 0 0111.38-5.555c7.96 0 14.435 6.476 14.435 14.434 0 6.83-4.835 12.712-11.412 14.114a3.68 3.68 0 00-3.022-1.547 3.68 3.68 0 00-3.022 1.547C8.336 30.645 3.502 24.762 3.502 17.933c0-.75.057-1.504.172-2.24a1.748 1.748 0 10-3.457-.538 18.162 18.162 0 00-.215 2.778c0 8.095 5.469 15.121 13.069 17.264l-.094.162a3.692 3.692 0 000 3.73 3.69 3.69 0 003.21 1.863v27.595c-.582.302-1.125.641-1.623 1.02-2.495 1.9-3.813 4.64-3.813 7.919 0 3.278 1.318 6.016 3.813 7.917 2.343 1.786 5.65 2.73 9.564 2.73.504 0 .998-.016 1.483-.046.03 1.29.147 2.578.347 3.85-4.535 3.263-7.493 9.677-7.493 15.596C18.465 115.34 23.66 120 32.36 120c5.126 0 9.032-1.618 11.38-4.543 5.595 2.907 11.962 4.439 18.494 4.439 6.6 0 13.025-1.562 18.66-4.526 2.364 2.799 6.207 4.344 11.214 4.344 8.701 0 13.896-4.66 13.896-12.466 0-5.903-2.942-12.297-7.455-15.57a29.32 29.32 0 00.308-3.59c.486.029.979.045 1.482.045 3.915 0 7.222-.944 9.566-2.73 2.494-1.9 3.813-4.638 3.813-7.918 0-3.279-1.319-6.017-3.813-7.918zM16.008 37.34a.21.21 0 010-.23l1.73-2.997c.017-.03.065-.114.198-.114s.18.083.198.114l1.73 2.997a.21.21 0 010 .23c-.066.114-.162.114-.199.114h-3.459c-.036 0-.132 0-.198-.114zm11.714 10.419c-2.31-2.31-2.81-4.48 1.455-8.747 3.814-3.813 5.953-3.815 8.013-2.124-3.08 3.634-5.183 7.957-5.958 12.658-.923-.005-2.101-.379-3.51-1.788zM14.25 77.484c0-1.916.677-3.499 1.936-4.686v5.94a1.75 1.75 0 103.5 0v-7.833c1.283-.373 2.77-.57 4.442-.57 5.414 0 11.24 2.238 11.24 7.149s-5.826 7.148-11.24 7.148c-6.186 0-9.878-2.671-9.878-7.147zM32.36 116.5c-4.743 0-10.397-1.556-10.397-8.968 0-3.395 1.206-7.089 3.226-9.884 2.048-2.832 4.595-4.392 7.17-4.392 2.578 0 5.125 1.56 7.172 4.392 2.02 2.795 3.226 6.489 3.226 9.884 0 7.412-5.654 8.968-10.397 8.968zm70.145-9.254c0 7.413-5.654 8.969-10.397 8.969s-10.397-1.556-10.397-8.969c0-3.393 1.207-7.088 3.227-9.883 2.047-2.831 4.594-4.392 7.17-4.392 2.577 0 5.124 1.56 7.171 4.392 2.02 2.795 3.226 6.49 3.226 9.883zM95.233 89.97a10.184 10.184 0 00-3.125-.497c-7.953 0-13.896 9.385-13.896 17.774 0 1.896.31 3.605.897 5.107-5.096 2.648-10.903 4.043-16.875 4.043-5.934 0-11.711-1.379-16.787-3.995.53-1.445.809-3.073.809-4.869 0-8.39-5.943-17.774-13.896-17.774-1.073 0-2.11.172-3.1.488a26.128 26.128 0 01-.157-2.649c5.931-1.344 9.764-5.13 9.764-10.113 0-2.846-1.252-5.3-3.427-7.133.298-.358.607-.712.924-1.058 2.14 2.784 4.86 5.238 8.072 7.208a1.748 1.748 0 101.83-2.982c-7.431-4.559-11.868-12.009-11.868-19.926 0-13.415 12.487-24.33 27.836-24.33 15.35 0 27.836 10.915 27.836 24.33 0 13.414-12.487 24.328-27.836 24.328-3.08 0-6.105-.436-8.993-1.298a1.75 1.75 0 00-1 3.353 34.916 34.916 0 009.993 1.444c10.729 0 20.212-4.813 25.863-12.135.32.35.63.705.931 1.066-2.175 1.834-3.428 4.288-3.428 7.133 0 4.983 3.833 8.769 9.762 10.113a25.3 25.3 0 01-.13 2.372zm5.106-5.337c-5.413 0-11.24-2.237-11.24-7.148s5.827-7.149 11.24-7.149c6.187 0 9.88 2.673 9.88 7.149 0 4.477-3.693 7.148-9.88 7.148z" fill="#F90"/><path d="M78.109 62.393c0-4.225-1.708-7.564-4.937-9.654-2.68-1.736-6.361-2.616-10.94-2.616-4.578 0-8.259.88-10.94 2.616-3.23 2.09-4.936 5.429-4.936 9.654 0 8.225 6.38 13.751 15.876 13.751 9.497 0 15.877-5.526 15.877-13.75zM62.232 65.64c-2.073 0-4.099-3.223-4.099-5.094 0-.501 0-1.34 4.1-1.34 4.098 0 4.098.839 4.098 1.34 0 1.871-2.026 5.094-4.099 5.094zm-12.378-3.246c0-5.82 4.165-8.772 12.378-8.772 8.214 0 12.377 2.952 12.377 8.772 0 6.804-5.39 9.66-10.627 10.167v-3.7c3.476-1.11 5.848-5.332 5.848-8.315 0-1.92-.99-3.392-2.787-4.146-1.145-.48-2.629-.694-4.81-.694-2.183 0-3.667.215-4.813.694-1.797.754-2.787 2.226-2.787 4.146 0 2.983 2.373 7.205 5.849 8.315v3.7c-5.237-.507-10.628-3.363-10.628-10.167zm24.99-16.023a3.46 3.46 0 11-6.92 0 3.46 3.46 0 016.92 0zm-18.028 0a3.46 3.46 0 11-6.92 0 3.46 3.46 0 016.92 0z" fill="#F90"/></svg>