<svg width="116" height="104" fill="none" xmlns="http://www.w3.org/2000/svg"><path d="M25.093 23.93a41.22 41.22 0 0116.368-3.385 40.985 40.985 0 0116.328 3.386 40.826 40.826 0 019.116-2.744L57.53 13.35a1.932 1.932 0 01-.554-2.199l3.845-9.641c.292-.733 1-1.214 1.786-1.213h24.99c.787 0 1.495.48 1.786 1.213l3.845 9.641c.31.776.086 1.664-.553 2.199l-9.758 8.157c22.302 4.846 36.466 26.911 31.635 49.284-4.832 22.373-26.828 36.58-49.13 31.734a41.24 41.24 0 01-7.61-2.446c-20.962 9.063-45.28-.635-54.315-21.663-9.035-21.028.634-45.421 21.596-54.485zm37.86-17.38l-1.346 3.388h3.372L62.953 6.55zm3.049-2.397l2.372 3.967 2.372-3.967h-4.744zm8.364 1.443l-2.597 4.342h6.061l-3.464-4.342zm3.775-1.443l3.46 4.343 2.602-4.343H78.14zm9.11 2.397l-2.026 3.388h3.378L87.251 6.55zm-1.118 7.245H64.072l6.92 5.785h8.22l6.92-5.785zM74.14 99.608c20.703-.02 37.47-16.872 37.45-37.64-.02-20.767-16.82-37.587-37.523-37.567a37.38 37.38 0 00-11.71 1.894c1.455.86 2.855 1.81 4.195 2.84 18.134-4.24 36.262 7.068 40.489 25.259 4.228 18.19-7.046 36.374-25.18 40.615-18.133 4.24-36.26-7.068-40.488-25.258-3.044-13.096 1.936-26.757 12.684-34.794a29.492 29.492 0 00-4.175-1.606C34.1 46.782 32.16 70.505 45.55 86.336a37.426 37.426 0 0028.591 13.272zm-3.827-67.235c16.324 15.938 16.677 42.133.79 58.509-.245.251-.492.5-.742.745 16.315 2.108 31.245-9.45 33.346-25.816 2.102-16.367-9.42-31.343-25.735-33.451a29.665 29.665 0 00-3.832-.245c-1.28.005-2.558.091-3.827.258zM57.8 86.97c13.745-9.022 17.596-27.512 8.603-41.3a29.787 29.787 0 00-8.603-8.63c-13.745 9.023-17.595 27.515-8.6 41.303a29.79 29.79 0 008.6 8.627zM45.244 32.383h-.004c-16.316-2.09-31.232 9.484-33.316 25.851-2.083 16.367 9.454 31.33 25.77 33.42a29.69 29.69 0 007.612-.008c-16.33-15.931-16.694-42.126-.813-58.508.247-.255.497-.506.751-.755zM12.902 86.366a37.423 37.423 0 0028.559 13.243 37.178 37.178 0 0011.782-1.894 41.525 41.525 0 01-4.2-2.846C30.9 99.113 12.763 87.8 8.532 69.603 4.302 51.404 15.578 33.21 33.72 28.966s36.278 7.068 40.51 25.266c3.046 13.104-1.937 26.773-12.692 34.814a29.332 29.332 0 004.183 1.613c15.767-13.446 17.683-37.168 4.28-52.984-13.404-15.817-37.052-17.739-52.82-4.293C1.416 46.828-.5 70.55 12.903 86.366z" fill="#F90"/></svg>