<svg width="120" height="120" fill="none" xmlns="http://www.w3.org/2000/svg"><g clip-path="url(#clip0)" fill="#F90"><path d="M119.017 84.575V66.863c-.006-5.433-4.408-9.835-9.84-9.84h-7.873V43.501a1.968 1.968 0 00-1.968-1.968H87.528a1.968 1.968 0 00-1.968 1.968v13.52H67.847V33.405a1.968 1.968 0 00-1.968-1.968H54.071a1.968 1.968 0 00-1.968 1.968v23.617H34.39V43.255a1.968 1.968 0 00-1.968-1.968H20.614a1.968 1.968 0 00-1.969 1.968v13.767h-7.872c-5.431.006-9.833 4.408-9.84 9.84v17.713a11.416 11.416 0 005.904 10.179v21.31H2.901a1.969 1.969 0 000 3.937h114.148a1.969 1.969 0 000-3.937h-3.936v-21.28a11.843 11.843 0 005.904-10.209zM89.496 45.47h7.872v11.552h-7.872V45.47zM56.039 35.374h7.872v21.648H56.04V35.374zm-33.457 9.85h7.872v11.798h-7.872V45.223zM4.869 66.862a5.904 5.904 0 015.904-5.905h98.404a5.903 5.903 0 015.904 5.905v17.712a7.92 7.92 0 01-4.71 7.223 8.05 8.05 0 01-8.729-1.64 7.904 7.904 0 01-2.306-5.583v-7.872a7.853 7.853 0 00-4.357-7.007l-.12-.065a7.515 7.515 0 00-.972-.38c-.196-.065-.376-.13-.571-.176a7.597 7.597 0 00-.763-.135c-.173-.025-.338-.077-.514-.09-.094 0-.185.013-.277.01-.093-.004-.195-.03-.298-.03-.218 0-.428.046-.645.063-.217.018-.447.028-.668.066-.34.063-.676.15-1.005.257-.178.055-.358.094-.531.162a7.534 7.534 0 00-1.061.53c-.124.072-.256.123-.378.198-.46.298-.887.643-1.275 1.03a7.82 7.82 0 00-2.31 5.567v3.936a7.872 7.872 0 11-15.744 0v-3.936a7.853 7.853 0 00-4.357-7.007l-.12-.065a7.517 7.517 0 00-.972-.38c-.197-.065-.376-.13-.571-.176a7.597 7.597 0 00-.763-.135c-.173-.025-.339-.077-.514-.09-.095 0-.185.013-.277.01-.093-.004-.195-.03-.298-.03-.218 0-.429.046-.645.063-.217.018-.447.028-.668.066-.339.063-.674.15-1.003.257-.18.055-.36.094-.533.162a7.644 7.644 0 00-1.057.529c-.126.071-.26.124-.382.197a7.821 7.821 0 00-3.584 6.599V88.51a7.872 7.872 0 11-15.745 0V76.703a7.853 7.853 0 00-4.357-7.007l-.12-.065a7.515 7.515 0 00-.973-.38c-.196-.065-.375-.13-.57-.176a7.602 7.602 0 00-.763-.135c-.173-.025-.339-.077-.514-.09a7.872 7.872 0 00-8.447 7.853v7.872a7.885 7.885 0 01-2.29 5.567 8.122 8.122 0 01-7.354 2.086c-.47-.1-.932-.242-1.377-.426a8.1 8.1 0 01-2.419-1.644 7.904 7.904 0 01-2.305-5.583V66.863zm5.904 49.201V96.22c.197.033.394.042.591.065l.151.016a11.85 11.85 0 005.098-.591c.5-.176.988-.385 1.46-.626.1-.049.197-.102.302-.157a12.06 12.06 0 001.11-.683c.114-.078.23-.151.341-.234a11.477 11.477 0 004.724-9.435v-7.872a3.908 3.908 0 011.8-3.301c.042-.025.087-.043.128-.066a3.89 3.89 0 01.605-.302c.061-.023.124-.038.185-.057a3.75 3.75 0 01.59-.148c.095-.015.197-.019.29-.03.165-.015.331-.02.497-.017.124.006.248.019.37.038a3.4 3.4 0 01.44.08c.049.012.094.03.14.044a4.3 4.3 0 012.827 4.091v11.476c0 6.522 5.287 11.809 11.808 11.809 6.523 0 11.809-5.287 11.809-11.809V76.703c0-1.337.68-2.581 1.804-3.303.034-.021.073-.035.107-.057.2-.122.41-.226.628-.31.055-.022.112-.035.167-.052a4.3 4.3 0 01.59-.154c.095-.013.198-.019.284-.028.166-.016.333-.022.5-.017.124.006.247.019.37.038.148.017.294.044.44.08.048.012.093.03.14.044a4.3 4.3 0 012.842 4.091v3.604c0 6.521 5.287 11.809 11.808 11.809 6.523 0 11.809-5.288 11.809-11.809v-3.936a3.908 3.908 0 011.8-3.301c.042-.025.087-.043.13-.07.193-.115.395-.215.603-.298.062-.023.126-.038.197-.057.19-.065.383-.114.58-.148.095-.015.198-.019.29-.03.165-.015.331-.02.498-.017.123.006.247.019.37.038.148.017.294.044.439.08.049.012.094.03.14.044a4.3 4.3 0 012.825 4.091v7.54a11.82 11.82 0 003.459 8.367c.39.38.806.734 1.245 1.059.128.092.26.174.394.263a12.08 12.08 0 001.428.842c.397.197.804.372 1.219.523.082.03.163.068.248.095 1.08.368 2.206.58 3.346.63h.013c.549.022 1.099.006 1.645-.05l.197-.021c.197-.021.394-.03.591-.063v19.844H10.773zm49.203-88.562c5.432-.007 9.835-4.409 9.84-9.84 0-4.724-6.847-14.877-8.22-16.863a2.045 2.045 0 00-3.24 0c-1.374 1.986-8.22 12.139-8.22 16.863.006 5.431 4.408 9.833 9.84 9.84zm0-22.027C62.808 9.9 65.88 15.51 65.88 17.66a5.904 5.904 0 11-11.808 0c0-2.15 3.072-7.761 5.904-12.187zm33.456 32.37c5.432-.007 9.834-4.41 9.84-9.84 0-4.725-6.847-14.877-8.22-16.864a2.045 2.045 0 00-3.24 0c-1.374 1.987-8.22 12.14-8.22 16.863.006 5.432 4.408 9.834 9.84 9.84zm0-22.028c2.832 4.427 5.904 10.038 5.904 12.187a5.904 5.904 0 11-11.809 0c0-2.15 3.073-7.76 5.905-12.187zM26.518 37.844c5.432-.007 9.834-4.41 9.84-9.84 0-4.725-6.847-14.877-8.22-16.864a2.045 2.045 0 00-3.24 0c-1.374 1.987-8.22 12.14-8.22 16.863.006 5.432 4.408 9.834 9.84 9.84zm0-22.028c2.832 4.427 5.904 10.038 5.904 12.187a5.904 5.904 0 11-11.809 0c0-2.15 3.073-7.76 5.905-12.187z"/></g><defs><clipPath id="clip0"><path fill="#fff" d="M0 0h120v120H0z"/></clipPath></defs></svg>