<svg width="114" height="116" fill="none" xmlns="http://www.w3.org/2000/svg"><path d="M39.97 64.117v15.27a2.226 2.226 0 004.454 0V65.512l-7.053-7.444a6.574 6.574 0 01-1.625-6.077l1.697-7.072h-1.984l1.488-2.257c.314.143.644.257.99.327a6.585 6.585 0 011.747-2.708 6.564 6.564 0 013.794-1.722c.217-.023.435-.037.658-.039v-7.285a2.226 2.226 0 00-4.452 0v2.686a4.617 4.617 0 00-.82-.077c-.281 0-.556.029-.824.078v-6.34a2.226 2.226 0 00-4.452 0V39.67l-1.078 1.636-1.078-1.636V27.583a2.226 2.226 0 00-4.452 0v6.339a4.675 4.675 0 00-.825-.078c-.568 0-1.11.108-1.614.296V23.788a2.226 2.226 0 00-4.453 0v12.088l-1.366 2.073V27.583a2.226 2.226 0 00-4.452 0v2.763a4.604 4.604 0 00-1.615-.296 4.619 4.619 0 100 9.238c.569 0 1.111-.108 1.615-.296v1.345c0 .271.055.537.15.787H8.68l-3.46-5.249V23.79a2.226 2.226 0 00-4.452 0v12.754c0 .436.128.862.367 1.225l6.004 9.109v9.732a2.25 2.25 0 00-.044.441v18.543a2.226 2.226 0 104.452 0v-15.27h2.214v15.27a2.226 2.226 0 004.453 0V57.05c0-.151-.016-.299-.045-.442v-9.685l2.471 3.748v9.731c-.028.143-.044.29-.044.442v18.543a2.226 2.226 0 004.452 0v-15.27h2.214v15.27a2.226 2.226 0 004.451 0V60.844a2.27 2.27 0 00-.044-.442v-9.731l.84-1.276.841 1.276v9.731c-.029.143-.044.29-.044.442v18.543a2.226 2.226 0 004.452 0v-15.27h2.213zM26.154 44.919H22.18l-1.36-2.064 1.355-2.056a4.603 4.603 0 005.896 1.862l1.488 2.258h-3.405zm23.104-4.049a11.02 11.02 0 015.196-4.393v-3.57c0-1.23-.997-2.226-2.226-2.226a2.21 2.21 0 00-1.432.534v-3.629a2.226 2.226 0 00-4.452 0v11.29c.51.173.986.407 1.425.688a6.56 6.56 0 011.49 1.306zm-1.664 28.186l-1.74-1.837v13.294l1.74-2.126v-9.331zm62.901-45.778a2.226 2.226 0 00-2.226 2.226V37.59l-3.459 5.249h-5.738c.095-.251.15-.516.15-.787v-1.346a4.6 4.6 0 001.614.296 4.618 4.618 0 004.618-4.619 4.618 4.618 0 00-4.618-4.619 4.59 4.59 0 00-1.614.296v-2.763a2.226 2.226 0 00-4.453 0v10.368l-1.367-2.074V25.504a2.226 2.226 0 10-4.452 0v10.35a4.603 4.603 0 00-1.615-.295c-.281 0-.556.03-.824.078v-6.339a2.226 2.226 0 10-4.452 0v12.087l-1.078 1.636-.17-.257v8.604l.17-.257.84 1.276v9.732c-.028.142-.044.29-.044.441v18.543a2.226 2.226 0 004.452 0v-15.27h2.213v15.27a2.226 2.226 0 104.453 0V62.56a2.24 2.24 0 00-.045-.442v-9.731l2.47-3.748v9.685c-.027.143-.043.29-.043.442v18.543a2.226 2.226 0 104.452 0v-15.27h2.213v15.27a2.226 2.226 0 004.453 0V58.766c0-.151-.016-.299-.045-.442v-9.731l6.004-9.11c.24-.363.367-.788.367-1.224V25.504a2.225 2.225 0 00-2.226-2.226zM91.311 46.635h-7.378l1.488-2.257a4.59 4.59 0 001.917.42 4.612 4.612 0 003.979-2.282l1.355 2.055-1.361 2.064zm-11.142 7.761c-.125.255-.26.506-.418.745L71.01 68.404v13.8c.046.314.069.632.069.946v.107c.08.009.16.024.242.024 1.23 0 2.226-.996 2.226-2.225V65.785h2.213v15.27a2.226 2.226 0 004.453 0V62.513a2.24 2.24 0 00-.045-.441v-7.675zM67.195 29.26a2.226 2.226 0 10-4.452 0v.292a2.207 2.207 0 00-1.432-.534 2.226 2.226 0 00-2.225 2.226v4.429c1.286.046 2.518.31 3.657.76.27.107.535.227.794.354a11.14 11.14 0 013.658 2.861V29.261zm-48.124-9.766c1.328-1.743 1.388-4.194.29-6.111-1.188-2.074-6.378-6.024-3.512-8.321 1.591-1.276-.661-3.498-2.236-2.236-1.866 1.496-2.044 3.793-1.394 5.968.865 2.898 6.552 5.914 4.122 9.104-1.237 1.622 1.512 3.194 2.73 1.596zm82.44-13.492c2.028-.206 1.346-3.296-.661-3.093-2.38.241-3.777 2.072-4.415 4.251-.849 2.903 2.285 8.526-1.488 9.882-1.92.69-.468 3.503 1.423 2.824 2.062-.741 3.444-2.766 3.565-4.972.13-2.386-2.079-8.522 1.576-8.892zM39.535 19.145c.34 2.183 1.917 4.061 4.043 4.593 1.95.488 3.114-2.455 1.136-2.951-3.89-.975-1.33-6.881-2.464-9.686-.85-2.105-2.423-3.788-4.816-3.79-2.017-.003-2.389 3.139-.35 3.141 3.672.006 2.085 6.333 2.451 8.693zM78.25 7.806c.93-2.072 1.055-4.372-.6-6.1-1.395-1.458-3.92.45-2.51 1.923 2.54 2.653-3.123 5.889-4.573 7.788-1.34 1.757-1.602 4.195-.514 6.097.999 1.745 3.929.547 2.916-1.224-1.99-3.48 4.043-5.724 5.281-8.484zm-28.547 3.33c.847 2.04 2.825 3.491 5.015 3.504 2.01.013 2.445-3.123.405-3.136-4.01-.026-2.922-6.37-4.688-8.826C49.109.834 47.183-.428 44.858.136c-1.96.475-1.578 3.616.404 3.136 3.57-.866 3.526 5.657 4.441 7.864zM27.25 19.782c2.854 0 2.854-4.427 0-4.427-2.855 0-2.855 4.427 0 4.427zm-21.073-6.33c2.855 0 2.855-4.427 0-4.427s-2.855 4.427 0 4.427zm59.46-10.103c-2.855 0-2.855 4.427 0 4.427s2.855-4.427 0-4.427zM61.39 19.128c2.854 0 2.854-4.427 0-4.427-2.855 0-2.855 4.427 0 4.427zm24.502-6.615c2.854 0 2.854-4.427 0-4.427s-2.855 4.427 0 4.427zm25.32.351c-2.855 0-2.855 4.426 0 4.426 2.854 0 2.854-4.426 0-4.426z" fill="#F90"/><path d="M68.927 65.57l8.017-12.163a3.43 3.43 0 00.566-1.89V27.285c0-.084-.006-.167-.012-.25a3.433 3.433 0 00-6.857.25v23.202l-1.67 2.533-3.667 5.565H51.615l-5.74-6.06 1.139-4.741.446-1.86.004-.02c.021-.09.038-.18.05-.27.005-.045.013-.09.018-.134a3.44 3.44 0 00-.47-2.15 3.427 3.427 0 00-2.14-1.568l-.066-.012a3.432 3.432 0 00-.74-.085c-.014 0-.027.003-.04.003a3.433 3.433 0 00-3.295 2.63l-.145.605-.224.933-1.65 6.877a3.436 3.436 0 00.846 3.165l4.756 5.02 1.631 1.723 4.857 5.128v11.719l-.449.549-3.77 4.606-7.19 8.79a3.436 3.436 0 00.328 4.7l8.751 8.078a3.42 3.42 0 002.329.911 3.435 3.435 0 002.33-5.959l-6.373-5.883 5.79-7.075h8.282v23.561a3.435 3.435 0 006.87 0v-28.61c0-.233-.025-.461-.07-.682V67.462l1.247-1.892z" fill="#F90"/><path d="M50.816 48.603a7.93 7.93 0 003.895 5.104 7.857 7.857 0 002.284.824c.492.095.999.149 1.518.149a7.914 7.914 0 007.091-4.408 7.835 7.835 0 00.83-3.514c0-.62-.078-1.219-.212-1.797a7.908 7.908 0 00-3.65-4.996 7.88 7.88 0 00-1.53-.708 7.894 7.894 0 00-2.128-.4c-.133-.007-.265-.02-.4-.02a7.883 7.883 0 00-4.195 1.21 7.913 7.913 0 00-3.679 5.85c-.005.045-.005.09-.012.135a8.12 8.12 0 00-.033.646c0 .026-.004.052-.004.08a7.914 7.914 0 00.225 1.845z" fill="#F90"/></svg>