<svg width="120" height="120" fill="none" xmlns="http://www.w3.org/2000/svg"><path d="M118.243 56.85c-1.321-.364-2.442.45-2.893 1.642-.775 2.048-3.686 3.273-5.793 3.548-3.173.414-6.264-.976-9.067-2.276-3.326-1.542-6.753-3.014-10.491-2.983-3.762.032-7.434 1.535-10.498 3.648-3.448 2.377-6.219 5.48-8.93 8.639-.826.963-.946 2.38 0 3.327.847.846 2.497.968 3.328 0 4.352-5.072 10.088-11.763 17.569-10.842 3.532.435 6.696 2.406 9.937 3.722 3.333 1.352 6.988 1.991 10.52 1.063 3.501-.92 6.655-3.14 7.961-6.595.449-1.189-.499-2.58-1.643-2.894zM48.405 32.005c2.224-3.08 4.594-6.37 5.27-10.197.657-3.712-.303-7.45-2.37-10.576-2.386-3.605-5.847-6.199-9.264-8.753-1.019-.762-2.629-.166-3.219.843-.703 1.202-.177 2.456.844 3.219 5.258 3.93 11.832 9.4 8.67 16.719-2.808 6.5-10.114 11.728-9.2 19.525.44 3.756 2.67 7.153 6.467 8.156 2.93.774 4.18-3.762 1.25-4.537-2.372-.626-3.31-3.219-3.056-5.492.369-3.301 2.717-6.288 4.608-8.907zm33.765 5.713a10.754 10.754 0 00-4.796-7.68 10.003 10.003 0 00-4.704-1.591c.805-2.652 2.31-5.088 4.511-6.774 1.007-.772 1.542-2.025.844-3.219-.58-.99-2.203-1.621-3.218-.844a19.226 19.226 0 00-7.162 11.566c-3.07 1.117-5.801 3.372-7.375 6.174-4.23 7.529-1.557 16.33 2.699 23.176 1.595 2.566 5.667.206 4.062-2.375-2.776-4.465-5.115-9.817-3.903-15.176.588-2.6 2.08-5.038 4.21-6.482.206 2.582.931 5.13 2.193 7.394 1.751 3.14 5.076 5.749 8.749 3.992 2.965-1.417 4.268-5.065 3.89-8.16zm-5.236 3.244c-1.28 1.827-2.626-.165-3.34-1.45-.974-1.75-1.5-3.744-1.595-5.735-.01-.206-.01-.414-.012-.622a8.4 8.4 0 01.35.02c3.447.29 6.793 4.654 4.597 7.787zm14.799 3.18c-3.027 0-3.033 4.705 0 4.705 3.027 0 3.032-4.705 0-4.705zm2.934-6.807c-3.027 0-3.032 4.705 0 4.705 3.027 0 3.033-4.705 0-4.705zm4.597 6.002c-3.027 0-3.032 4.705 0 4.705 3.028 0 3.033-4.705 0-4.705zm-78.25-19.25c-3.027 0-3.033 4.705 0 4.705 3.027 0 3.032-4.705 0-4.705zm2.934-6.807c-3.027 0-3.032 4.706 0 4.706 3.028 0 3.033-4.705 0-4.705zm4.596 6.003c-3.027 0-3.032 4.705 0 4.705 3.027 0 3.032-4.705 0-4.705zM66.407 83.07L35.168 51.83a2.352 2.352 0 00-3.768.612l-2.809 5.625L.248 114.834a2.351 2.351 0 003.155 3.156l62.392-31.153a2.35 2.35 0 00.612-3.768zM7.604 110.632l10.166-20.36 3.432 13.571-13.598 6.789zM46.425 91.25l-4.005-9.762a2.352 2.352 0 10-4.353 1.786l4.138 10.083-16.694 8.335-4.52-17.871 9.496-19.02 2.613 6.368a2.354 2.354 0 004.353-1.785L33.279 59.21l.871-1.745 26.622 26.621-14.347 7.163zm63.873-13.111c-5.248 0-9.518 4.27-9.518 9.518 0 5.25 4.27 9.52 9.518 9.52 5.249 0 9.52-4.27 9.52-9.52 0-5.248-4.271-9.518-9.52-9.518zm0 14.333a4.82 4.82 0 01-4.813-4.815 4.818 4.818 0 014.813-4.813 4.82 4.82 0 014.815 4.813 4.82 4.82 0 01-4.815 4.815zm-2.525-80.56l-9.46-9.46a2.354 2.354 0 00-3.328 0l-9.459 9.46a2.353 2.353 0 000 3.327l9.46 9.46c.459.459 1.06.688 1.663.688.602 0 1.204-.23 1.663-.689l9.461-9.458a2.349 2.349 0 000-3.328zm-11.124 7.796l-6.132-6.132 6.132-6.134 6.134 6.134-6.134 6.132z" fill="#F90"/><path d="M37.56 74.036c-3.027 0-3.032 4.705 0 4.705 3.027 0 3.032-4.705 0-4.705z" fill="#F90"/></svg>