<svg width="104" height="120" fill="none" xmlns="http://www.w3.org/2000/svg"><path d="M41.086 13.291c1.336.441 2.6 1.005 3.758 1.676a1.933 1.933 0 101.94-3.344 23.836 23.836 0 00-4.488-2.003 1.933 1.933 0 00-1.21 3.671zM54.19 33.982c0 2.883-.334 5.83-.994 8.76a1.933 1.933 0 103.77.85 43.78 43.78 0 001.09-9.61c0-6.75-1.647-12.371-4.895-16.71a1.933 1.933 0 00-3.095 2.318c2.737 3.654 4.125 8.497 4.125 14.392zM26.28 63.495c-4.804-3.276-9.1-9.559-11.49-16.806a1.933 1.933 0 00-3.671 1.212c2.688 8.145 7.42 14.993 12.982 18.788a1.931 1.931 0 002.686-.507 1.933 1.933 0 00-.508-2.687z" fill="#F90"/><path d="M93.77 31.565c-5.884-5.73-14.129-8.887-23.215-8.887a37.94 37.94 0 00-5.654.42c-1.534-5.57-4.31-10.382-8.24-14.21C50.777 3.155 42.531 0 33.445 0S16.115 3.156 10.23 8.887C3.922 15.031.588 23.708.588 33.982c0 10.463 3.429 21.354 9.408 29.88 5.097 7.27 11.385 11.946 18.101 13.575a6.019 6.019 0 00-.708 2.838v4.123c0 1.068.865 1.933 1.933 1.933h2.076c-.158 1.189-.46 1.995-.793 2.884-.541 1.441-1.154 3.076-1.154 6.174 0 3.1.613 4.735 1.154 6.177.487 1.3.907 2.422.907 4.821 0 2.399-.42 3.521-.907 4.821-.541 1.442-1.154 3.077-1.154 6.177a1.933 1.933 0 003.865 0c0-2.399.42-3.521.908-4.82.54-1.443 1.154-3.078 1.154-6.178s-.613-4.735-1.154-6.177c-.487-1.3-.908-2.422-.908-4.82s.42-3.519.908-4.817c.415-1.107.872-2.33 1.063-4.241h2.282a1.933 1.933 0 001.932-1.933v-4.123c0-1.025-.257-1.99-.708-2.838.975-.236 1.94-.537 2.895-.9 5.078 12.488 13.883 21.18 23.526 23.564a6.017 6.017 0 00-.715 2.852v4.123c0 1.068.865 1.933 1.933 1.933h2.075c-.157 1.189-.46 1.995-.793 2.884-.54 1.441-1.154 3.076-1.154 6.174a1.933 1.933 0 003.866 0c0-2.397.42-3.518.908-4.817.415-1.107.872-2.33 1.062-4.241h2.282a1.933 1.933 0 001.933-1.933v-4.123c0-1.025-.257-1.99-.708-2.838 6.715-1.629 13.004-6.306 18.101-13.575 5.979-8.526 9.408-19.417 9.408-29.88.001-10.274-3.334-18.952-9.641-25.096zM13.16 61.643c-5.533-7.892-8.707-17.973-8.707-27.66 0-9.208 2.93-16.928 8.474-22.326 5.158-5.025 12.445-7.791 20.518-7.791 8.074 0 15.36 2.766 20.519 7.79 5.543 5.4 8.473 13.12 8.473 22.326 0 9.688-3.173 19.77-8.707 27.66-5.687 8.111-12.89 12.577-20.285 12.577-7.393 0-14.597-4.466-20.284-12.576zm22.476 18.632v2.19h-4.381v-2.19c0-1.208.982-2.19 2.19-2.19s2.19.983 2.19 2.19zm37.11 22.679v2.19h-4.381v-2.19c0-1.208.982-2.191 2.19-2.191s2.19.983 2.19 2.191zM90.84 84.321c-5.687 8.11-12.891 12.576-20.285 12.576-5.211 0-10.427-2.27-15.082-6.567-4.183-3.861-7.806-9.312-10.278-15.438a29.95 29.95 0 003.69-2.458c2.765 7.325 7.19 13.43 12.325 16.933a1.931 1.931 0 102.178-3.193c-4.732-3.228-8.97-9.375-11.38-16.486a42.368 42.368 0 004.887-5.826c5.979-8.526 9.408-19.417 9.408-29.88 0-2.464-.194-4.834-.572-7.102a34.334 34.334 0 014.824-.336c8.073 0 15.36 2.766 20.519 7.79 5.543 5.4 8.473 13.12 8.473 22.326 0 9.688-3.174 19.77-8.707 27.661z" fill="#F90"/><path d="M90.27 39.95a1.933 1.933 0 00-3.094 2.317c2.737 3.655 4.124 8.497 4.124 14.393 0 2.883-.334 5.83-.995 8.759a1.933 1.933 0 103.771.85 43.78 43.78 0 001.09-9.61c0-6.748-1.647-12.37-4.896-16.709zm-6.376-5.648a23.847 23.847 0 00-4.487-2.003 1.933 1.933 0 00-1.211 3.67c1.336.441 2.6 1.005 3.758 1.677a1.933 1.933 0 001.94-3.344z" fill="#F90"/></svg>