<svg width="100" height="60" fill="none" xmlns="http://www.w3.org/2000/svg"><g clip-path="url(#clip0)"><path fill-rule="evenodd" clip-rule="evenodd" d="M53.623.178h14.86v6.22h1.386v5.92h-1.387v26.269h4.462V44.7h-4.462v4.372H53.624V.178z" fill="#D87D1A"/><path d="M66.243 24.954c-.036-.693-.284-1.226-.782-1.617-.48-.391-1.067-.587-1.742-.587-.658 0-1.226.196-1.706.587-.48.391-.747.924-.782 1.617.035.711.284 1.245.782 1.618.48.373 1.048.569 1.706.569a2.79 2.79 0 001.724-.57c.498-.372.764-.923.8-1.617zm-12.62-3.537v-6.896l7.768 1.582v-.995a6.947 6.947 0 01-.48-1.191 6.206 6.206 0 01-.214-1.12c0-.071 0-.124-.017-.195 0-.072-.018-.125-.018-.196.018-1.013.231-1.848.64-2.524.409-.657 1.066-.995 1.937-.995.978 0 1.706.302 2.186.889.48.586.747 1.35.782 2.24 0 .141 0 .284-.017.426a3.509 3.509 0 01-.072.426c-.07.462-.266.942-.55 1.422-.285.48-.73.996-1.334 1.564v.728l4.017.356c.09-.124.16-.248.231-.373v4.088a3.426 3.426 0 00-.55-.586c-1.174-1.102-2.613-1.653-4.284-1.653-1.564 0-2.88.444-3.928 1.315-1.049.87-1.582 2.062-1.582 3.59v.231c0 .196.018.391.036.569.017.178.053.338.089.498l-4.64-3.2zm0 13.135v-8.07l4.48 3.005c.32.213.64.409.941.586.32.178.623.32.925.462.586.267 1.19.462 1.777.57a9.517 9.517 0 001.92.177c1.795 0 3.27-.569 4.372-1.706.16-.16.302-.338.444-.516v5.794a6.577 6.577 0 00-.906-.977c-.729-.658-1.795-.978-3.182-.978-1.262 0-2.221.285-2.879.853-.657.57-1.12 1.191-1.35 1.884a.304.304 0 00-.036.09.136.136 0 01-.036.088h-.07c-.179-.746-.57-1.333-1.192-1.76-.622-.426-1.368-.64-2.24-.64-1.243.036-2.239.41-2.968 1.138zm0 16.174v-7.18c.143.142.285.266.427.409.729.64 1.83 1.048 3.27 1.226v-4.355h-.07c-.463 0-.854-.16-1.191-.497a1.696 1.696 0 01-.516-1.156c0-.07 0-.16.018-.23.018-.072.035-.16.071-.232.071-.266.249-.497.498-.71.248-.214.64-.32 1.19-.32.498 0 .871.106 1.138.302.267.195.444.426.533.675.09.195.16.355.16.533.018.16.018.285.018.356v.515h2.88v-.23c-.018-.09-.018-.196-.018-.285v-.285c.017-.622.16-1.12.462-1.475.284-.355.764-.533 1.404-.533.124 0 .266 0 .444.018.16.017.338.053.516.089.337.088.64.284.924.55.284.267.426.694.444 1.28-.035.569-.195.978-.462 1.244a2.437 2.437 0 01-.924.57c-.16.052-.32.07-.462.088-.142.018-.285.018-.41.018h-.088v4.336c.32-.017.711-.07 1.173-.142.462-.07.942-.23 1.44-.444.817-.338 1.564-.942 2.221-1.777 1.014-1.28 1.085-2.969.978-4.533.693-.017 1.51-.053 2.417-.142 1.067-.089 2.15-.337 3.253-.729 2.062-.622 3.946-1.848 5.634-3.679 1.689-1.83 2.524-4.692 2.524-8.584 0-4.764-1.333-8.14-4-10.15-2.594-1.937-5.847-2.932-9.775-2.985.107-2.098-.373-4.39-1.92-5.883-1.261-1.245-2.754-1.867-4.46-1.867-1.476 0-2.702.445-3.68 1.351-.995.907-1.475 2.186-1.475 3.875v.23c0 .32.018.623.036.907.018.267.053.516.106.747l-2.133-.373V5.208h-2.577V.178h19.214c7.127 0 12.477 1.368 16.067 4.088 3.59 2.72 6.097 5.723 7.554 8.993 1.155 2.56 1.849 4.977 2.062 7.252.213 2.293.32 3.928.32 4.941 0 6.505-1.99 12.335-5.99 17.507-3.999 5.172-10.664 7.767-19.995 7.767h-19.25z" fill="#3A2E94"/><path fill-rule="evenodd" clip-rule="evenodd" d="M49.873 34.357c0 9.011-7.11 16.387-15.8 16.387H15.89C7.198 50.744.089 43.368.089 34.357c0-9.012 7.11-16.388 15.8-16.388h18.183c8.692-.018 15.801 7.359 15.801 16.388z" fill="url(#paint0_linear)"/><path opacity=".89" fill-rule="evenodd" clip-rule="evenodd" d="M33.859 50.726c-8.834 0-16.068-7.233-16.068-16.067V16.174C17.791 7.341 25.026.107 33.86.107s16.067 7.234 16.067 16.067V34.66c0 8.851-7.233 16.067-16.067 16.067z" fill="#D87D1A"/></g><path d="M10.055 59.373h-.812v-1.049H6.671v1.046h-.832l-.047-1.752h.322c.174-.144.308-.356.402-.636.095-.28.16-.629.193-1.042l.123-1.881h2.795v3.56h.498l-.07 1.754zm-2.933-1.755h1.626V54.77H7.667l-.073 1.123c-.059.752-.216 1.327-.472 1.725z" fill="url(#paint1_linear)"/><path d="M15.293 57.445h-1.541l-.293.88h-.935l1.588-4.266h.815l1.596 4.265h-.934l-.296-.879zm-1.304-.712h1.067l-.536-1.596-.53 1.596z" fill="url(#paint2_linear)"/><path d="M20.05 56.821v1.503h-.878V54.06h1.664c.32 0 .602.058.844.175.244.118.431.285.562.501.131.215.197.46.197.736 0 .418-.144.748-.431.99-.285.24-.68.36-1.187.36h-.77zm0-.712h.786c.232 0 .41-.054.53-.164.123-.11.185-.265.185-.468a.704.704 0 00-.185-.507c-.123-.13-.293-.196-.51-.2h-.805v1.34z" fill="url(#paint3_linear)"/><path d="M26.895 56.074l.776-2.015h.95l-1.492 3.518-.12.232c-.22.384-.559.577-1.014.577l-.308-.012-.008-.706c.047.008.123.012.228.012a.588.588 0 00.296-.065.482.482 0 00.19-.237l.109-.278-1.497-3.041h.946l.944 2.015z" fill="url(#paint4_linear)"/><path d="M34.62 56.906c-.033.451-.202.81-.507 1.078-.303.266-.706.399-1.21.399-.54 0-.968-.18-1.283-.542-.314-.361-.475-.854-.48-1.477v-.304c0-.416.072-.78.216-1.09.145-.313.351-.552.619-.718.27-.168.582-.252.937-.252.494 0 .89.133 1.19.398.3.264.474.634.521 1.11h-.879c-.021-.275-.099-.476-.231-.603-.131-.129-.331-.193-.6-.193-.274 0-.485.092-.634.275-.146.184-.231.466-.255.847h1.31v.709h-1.31c.02.373.098.656.235.85.139.191.353.287.644.287.264 0 .464-.063.6-.188.138-.127.216-.322.235-.586h.882z" fill="url(#paint5_linear)"/><path d="M38.625 54.059l1.096 3.093 1.09-3.093h1.154v4.265h-.882v-1.166l.088-2.013-1.151 3.18h-.604l-1.148-3.177.087 2.01v1.166h-.878V54.06h1.148z" fill="url(#paint6_linear)"/><path d="M48.486 56.288c0 .42-.074.788-.222 1.105-.149.316-.362.56-.639.732a1.755 1.755 0 01-.95.258 1.694 1.694 0 01-1.59-.981 2.511 2.511 0 01-.231-1.09V56.1c0-.42.075-.79.225-1.108.152-.32.366-.565.642-.735.277-.172.594-.258.949-.258s.67.086.946.258c.278.17.491.415.642.735.152.319.228.687.228 1.105v.19zm-.89-.193c0-.447-.08-.787-.24-1.02a.783.783 0 00-.686-.348.782.782 0 00-.683.345c-.16.229-.24.565-.243 1.008v.208c0 .436.08.774.24 1.014.16.24.391.36.692.36a.775.775 0 00.68-.346c.158-.232.238-.57.24-1.013v-.208z" fill="url(#paint7_linear)"/><path d="M55.998 56.821v1.503h-.879V54.06h1.664c.32 0 .602.058.844.175.244.118.432.285.563.501.13.215.196.46.196.736 0 .418-.144.748-.43.99-.286.24-.682.36-1.187.36h-.771zm0-.712h.785c.233 0 .41-.054.53-.164.123-.11.185-.265.185-.468a.704.704 0 00-.184-.507c-.124-.13-.294-.196-.51-.2h-.806v1.34z" fill="url(#paint8_linear)"/><path d="M63.129 57.445h-1.541l-.293.88h-.935l1.588-4.266h.815l1.596 4.265h-.934l-.296-.879zm-1.304-.712h1.067l-.537-1.596-.53 1.596z" fill="url(#paint9_linear)"/><path d="M71.022 59.373h-.812v-1.049h-2.572v1.046h-.832l-.047-1.752h.322c.174-.144.308-.356.401-.636.096-.28.16-.629.194-1.042l.123-1.881h2.795v3.56h.498l-.07 1.754zm-2.933-1.755h1.626V54.77h-1.081l-.073 1.123c-.059.752-.216 1.327-.472 1.725z" fill="url(#paint10_linear)"/><path d="M74.74 58.324h-.88V54.06h.88v4.265z" fill="url(#paint11_linear)"/><path d="M81.155 56.903c-.033.46-.203.82-.51 1.084-.304.264-.706.396-1.206.396-.547 0-.978-.184-1.292-.551-.313-.37-.47-.875-.47-1.517v-.261c0-.41.073-.772.217-1.084.145-.313.351-.552.619-.718.27-.168.582-.252.937-.252.492 0 .889.132 1.19.395.3.264.474.634.521 1.11h-.879c-.021-.275-.098-.474-.231-.597-.131-.125-.331-.187-.6-.187-.294 0-.513.105-.66.316-.144.21-.219.534-.223.976v.322c0 .46.07.798.208 1.01.141.214.362.32.663.32.271 0 .473-.062.606-.184.135-.126.212-.318.231-.578h.88z" fill="url(#paint12_linear)"/><path d="M87.106 54.77h-1.307v3.554h-.88v-3.553h-1.288v-.712h3.475v.712z" fill="url(#paint13_linear)"/><path d="M90.785 55.597h.686c.502 0 .9.122 1.192.366.295.242.443.57.443.981 0 .414-.147.747-.44 1-.291.25-.679.376-1.163.38H89.9V54.06h.885v1.538zm0 .709v1.312h.7c.225 0 .404-.061.537-.184a.638.638 0 00.202-.495.572.572 0 00-.194-.458c-.127-.113-.302-.171-.524-.175h-.72z" fill="url(#paint14_linear)"/><defs><linearGradient id="paint0_linear" x1="9.068" y1="50.265" x2="40.896" y2="18.438" gradientUnits="userSpaceOnUse"><stop stop-color="#424C9F"/><stop offset="1" stop-color="#811A82"/></linearGradient><linearGradient id="paint1_linear" x1="6" y1="54" x2="9.751" y2="38.111" gradientUnits="userSpaceOnUse"><stop stop-color="#424C9F"/><stop offset="1" stop-color="#811A82"/></linearGradient><linearGradient id="paint2_linear" x1="6" y1="54" x2="9.751" y2="38.111" gradientUnits="userSpaceOnUse"><stop stop-color="#424C9F"/><stop offset="1" stop-color="#811A82"/></linearGradient><linearGradient id="paint3_linear" x1="6" y1="54" x2="9.751" y2="38.111" gradientUnits="userSpaceOnUse"><stop stop-color="#424C9F"/><stop offset="1" stop-color="#811A82"/></linearGradient><linearGradient id="paint4_linear" x1="6" y1="54" x2="9.751" y2="38.111" gradientUnits="userSpaceOnUse"><stop stop-color="#424C9F"/><stop offset="1" stop-color="#811A82"/></linearGradient><linearGradient id="paint5_linear" x1="6" y1="54" x2="9.751" y2="38.111" gradientUnits="userSpaceOnUse"><stop stop-color="#424C9F"/><stop offset="1" stop-color="#811A82"/></linearGradient><linearGradient id="paint6_linear" x1="6" y1="54" x2="9.751" y2="38.111" gradientUnits="userSpaceOnUse"><stop stop-color="#424C9F"/><stop offset="1" stop-color="#811A82"/></linearGradient><linearGradient id="paint7_linear" x1="6" y1="54" x2="9.751" y2="38.111" gradientUnits="userSpaceOnUse"><stop stop-color="#424C9F"/><stop offset="1" stop-color="#811A82"/></linearGradient><linearGradient id="paint8_linear" x1="6" y1="54" x2="9.751" y2="38.111" gradientUnits="userSpaceOnUse"><stop stop-color="#424C9F"/><stop offset="1" stop-color="#811A82"/></linearGradient><linearGradient id="paint9_linear" x1="6" y1="54" x2="9.751" y2="38.111" gradientUnits="userSpaceOnUse"><stop stop-color="#424C9F"/><stop offset="1" stop-color="#811A82"/></linearGradient><linearGradient id="paint10_linear" x1="6" y1="54" x2="9.751" y2="38.111" gradientUnits="userSpaceOnUse"><stop stop-color="#424C9F"/><stop offset="1" stop-color="#811A82"/></linearGradient><linearGradient id="paint11_linear" x1="6" y1="54" x2="9.751" y2="38.111" gradientUnits="userSpaceOnUse"><stop stop-color="#424C9F"/><stop offset="1" stop-color="#811A82"/></linearGradient><linearGradient id="paint12_linear" x1="6" y1="54" x2="9.751" y2="38.111" gradientUnits="userSpaceOnUse"><stop stop-color="#424C9F"/><stop offset="1" stop-color="#811A82"/></linearGradient><linearGradient id="paint13_linear" x1="6" y1="54" x2="9.751" y2="38.111" gradientUnits="userSpaceOnUse"><stop stop-color="#424C9F"/><stop offset="1" stop-color="#811A82"/></linearGradient><linearGradient id="paint14_linear" x1="6" y1="54" x2="9.751" y2="38.111" gradientUnits="userSpaceOnUse"><stop stop-color="#424C9F"/><stop offset="1" stop-color="#811A82"/></linearGradient><clipPath id="clip0"><path fill="#fff" d="M0 0h99v50.833H0z"/></clipPath></defs></svg>